SplineFontDB: 1.0
FontName: ScidbDiagramAdventurer
FullName: Scidb Diagram Adventurer
FamilyName: Scidb Diagram Adventurer
Weight: Book
Copyright: © 2000 by M@rroquin Design - Mexico. All rights reserved.
Version: Macromedia Fontographer 4.1 3/02/00
ItalicAngle: 0
UnderlinePosition: 0
UnderlineWidth: 0
Ascent: 2048
Descent: 0
Order2: 1
NeedsXUIDChange: 1
XUID: [1021 555 146130107 7604503]
FSType: 2
OS2Version: 1
OS2_WeightWidthSlopeOnly: 0
OS2_UseTypoMetrics: 1
CreationTime: 949588223
ModificationTime: 1254834012
PfmFamily: 81
TTFWeight: 400
TTFWidth: 5
LineGap: 0
VLineGap: 0
Panose: 0 0 4 0 0 0 0 0 0 0
OS2TypoAscent: 0
OS2TypoAOffset: 1
OS2TypoDescent: 0
OS2TypoDOffset: 1
OS2TypoLinegap: 0
OS2WinAscent: 0
OS2WinAOffset: 1
OS2WinDescent: 0
OS2WinDOffset: 1
HheadAscent: 0
HheadAOffset: 1
HheadDescent: 0
HheadDOffset: 1
OS2SubXSize: 1434
OS2SubYSize: 1331
OS2SubXOff: 0
OS2SubYOff: 293
OS2SupXSize: 1434
OS2SupYSize: 1331
OS2SupXOff: 0
OS2SupYOff: 928
OS2StrikeYSize: 102
OS2StrikeYPos: 530
OS2Vendor: 'MACR'
TtfTable: prep 142
5V3ik(`4&*()@W"'GM2o&eYcg&.f?_%LrpW$k*LO$47(G#RCM7!WiB'!!!%Z\,lV`7;,(XBLG:&
6q(cW7;,(XBLG:&6q(cW7;,(XBLG:&6q(cW7;,(XBLG:&6q(cW7;,(XBLG:&6q(cW7;,(XBLK01
"@`AAZNg\(!%Y;W"@ZulYm(D$BLDh#
EndTtf
TtfTable: fpgm 20
5QLj9G"!OX"!pA\@;$K&BOF4[
EndTtf
TtfTable: cvt  58
!!!6K#@Rl<!'L@Z!*fLi!>b_n!1O$Z"'YlW!r2m+!A4@m!;QW=!e16p![7])"53iT>$V+/!!<3$
EndTtf
TtfTable: maxp 32
!!*'"!,M\<!%n6O!!!!#!!iQi!"&]+!4r8.!!*'#
EndTtf
LangName: 1033 "" "" "Regular" "" "" "Macromedia Fontographer 4.1 3/02/00" 
Encoding: Custom
UnicodeInterp: none
NameList: Adobe Glyph List
DisplaySize: -24
AntiAlias: 1
FitToEm: 1
WinInfo: 29 29 16
BeginChars: 65537 82
StartChar: quotedbl
Encoding: 34 34 0
Width: 2048
Flags: W
Fore
0 426 m 1,0,-1
 2048 426 l 1,1,-1
 2048 222 l 1,2,-1
 0 222 l 1,3,-1
 0 426 l 1,0,-1
0 86 m 1,4,-1
 2048 86 l 1,5,-1
 2048 0 l 1,6,-1
 0 0 l 1,7,-1
 0 86 l 1,4,-1
EndSplineSet
EndChar
StartChar: dollar
Encoding: 36 36 1
Width: 2048
Flags: W
Fore
1621 0 m 1,0,-1
 1621 2047 l 1,1,-1
 1826 2047 l 1,2,-1
 1826 0 l 1,3,-1
 1621 0 l 1,0,-1
1962 0 m 1,4,-1
 1962 2047 l 1,5,-1
 2048 2047 l 1,6,-1
 2048 0 l 1,7,-1
 1962 0 l 1,4,-1
EndSplineSet
EndChar
StartChar: percent
Encoding: 37 37 2
Width: 2048
Flags: W
Fore
427 2047 m 1,0,-1
 427 0 l 1,1,-1
 222 0 l 1,2,-1
 222 2047 l 1,3,-1
 427 2047 l 1,0,-1
86 2047 m 1,4,-1
 86 0 l 1,5,-1
 0 0 l 1,6,-1
 0 2047 l 1,7,-1
 86 2047 l 1,4,-1
EndSplineSet
EndChar
StartChar: parenleft
Encoding: 40 40 3
Width: 2048
Flags: W
Fore
0 1621 m 1,0,-1
 0 1826 l 1,1,-1
 2048 1826 l 1,2,-1
 2048 1621 l 1,3,-1
 0 1621 l 1,0,-1
0 1962 m 1,4,-1
 0 2048 l 1,5,-1
 2048 2048 l 1,6,-1
 2048 1962 l 1,7,-1
 0 1962 l 1,4,-1
EndSplineSet
EndChar
StartChar: asterisk
Encoding: 42 42 4
Width: 2048
Flags: W
Fore
3 4 m 1,0,1
 5 2 l 1,2,3
 4 0 4 0 3 0 c 0,4,5
 1 0 1 0 1 2 c 0,6,7
 1 3 1 3 3 4 c 1,0,1
EndSplineSet
EndChar
StartChar: plus
Encoding: 43 43 5
Width: 2048
Flags: W
Fore
2049 339 m 1,0,-1
 2049 237 l 1,1,-1
 1814 0 l 1,2,-1
 1711 0 l 1,3,-1
 2049 339 l 1,0,-1
2049 529 m 1,4,-1
 1520 0 l 1,5,-1
 1417 0 l 1,6,-1
 2049 631 l 1,7,-1
 2049 529 l 1,4,-1
2049 925 m 1,8,-1
 2049 823 l 1,9,-1
 1228 0 l 1,10,-1
 1124 0 l 1,11,-1
 2049 925 l 1,8,-1
2049 1116 m 1,12,-1
 933 0 l 1,13,-1
 830 0 l 1,14,-1
 2049 1220 l 1,15,-1
 2049 1116 l 1,12,-1
2049 49 m 1,16,-1
 2049 0 l 1,17,-1
 2001 0 l 1,18,-1
 2049 49 l 1,16,-1
2049 1705 m 1,19,-1
 345 0 l 1,20,-1
 243 0 l 1,21,-1
 2049 1808 l 1,22,-1
 2049 1705 l 1,19,-1
2049 1410 m 1,23,-1
 639 0 l 1,24,-1
 536 0 l 1,25,-1
 2049 1512 l 1,26,-1
 2049 1410 l 1,23,-1
1411 2048 m 1,27,-1
 1511 2048 l 1,28,-1
 0 536 l 1,29,-1
 0 638 l 1,30,-1
 1411 2048 l 1,27,-1
1704 2048 m 1,31,-1
 1807 2048 l 1,32,-1
 0 242 l 1,33,-1
 0 345 l 1,34,-1
 1704 2048 l 1,31,-1
50 2048 m 1,35,-1
 0 2001 l 1,36,-1
 0 2048 l 1,37,-1
 50 2048 l 1,35,-1
1117 2048 m 1,38,-1
 1221 2048 l 1,39,-1
 0 829 l 1,40,-1
 0 932 l 1,41,-1
 1117 2048 l 1,38,-1
926 2048 m 1,42,-1
 0 1123 l 1,43,-1
 0 1225 l 1,44,-1
 824 2048 l 1,45,-1
 926 2048 l 1,42,-1
530 2048 m 1,46,-1
 632 2048 l 1,47,-1
 0 1417 l 1,48,-1
 0 1519 l 1,49,-1
 530 2048 l 1,46,-1
338 2048 m 1,50,-1
 0 1710 l 1,51,-1
 0 1813 l 1,52,-1
 238 2048 l 1,53,-1
 338 2048 l 1,50,-1
2049 2048 m 1,54,-1
 2049 1996 l 1,55,-1
 51 0 l 1,56,-1
 0 0 l 1,57,-1
 0 51 l 1,58,-1
 1998 2048 l 1,59,-1
 2049 2048 l 1,54,-1
EndSplineSet
EndChar
StartChar: two
Encoding: 50 50 6
Width: 2048
Flags: W
Fore
0 221 m 1,0,-1
 2048 221 l 1,1,-1
 2048 137 l 1,2,-1
 0 137 l 1,3,-1
 0 221 l 1,0,-1
EndSplineSet
EndChar
StartChar: four
Encoding: 52 52 7
Width: 2048
Flags: W
Fore
1827 0 m 1,0,-1
 1827 2047 l 1,1,-1
 1911 2047 l 1,2,-1
 1911 0 l 1,3,-1
 1827 0 l 1,0,-1
EndSplineSet
EndChar
StartChar: five
Encoding: 53 53 8
Width: 2048
Flags: W
Fore
137 0 m 1,0,-1
 137 2047 l 1,1,-1
 221 2047 l 1,2,-1
 221 0 l 1,3,-1
 137 0 l 1,0,-1
EndSplineSet
EndChar
StartChar: eight
Encoding: 56 56 9
Width: 2048
Flags: W
Fore
0 1911 m 1,0,-1
 2048 1911 l 1,1,-1
 2048 1827 l 1,2,-1
 0 1827 l 1,3,-1
 0 1911 l 1,0,-1
EndSplineSet
EndChar
StartChar: B
Encoding: 66 66 10
Width: 2048
Flags: W
Fore
1024 856 m 0,0,1
 1026 856 1026 856 1030 858.5 c 128,-1,2
 1034 861 1034 861 1037 861 c 0,3,4
 1088 859 1088 859 1088 842 c 0,5,6
 1088 816 1088 816 1024 816 c 0,7,8
 961 816 961 816 961 842 c 0,9,10
 961 859 961 859 1012 861 c 0,11,12
 1014 861 1014 861 1017.5 858.5 c 128,-1,13
 1021 856 1021 856 1024 856 c 0,0,1
1259 1256 m 1,14,15
 1279 1336 1279 1336 1304 1389 c 1,16,17
 1276 1387 1276 1387 1283 1387 c 1,18,19
 1262 1385 1262 1385 1242 1385 c 0,20,21
 1126 1385 1126 1385 1045 1448 c 0,22,23
 1034 1456 1034 1456 1024 1456 c 0,24,25
 1012 1456 1012 1456 1004 1448 c 0,26,27
 923 1385 923 1385 807 1385 c 0,28,29
 787 1385 787 1385 766 1387 c 1,30,31
 772 1387 772 1387 745 1389 c 1,32,33
 771 1331 771 1331 791 1256 c 1,34,-1
 1259 1256 l 1,14,15
1134 1065 m 1,35,36
 1137 1069 1137 1069 1138 1073 c 1,37,38
 1138 1085 1138 1085 1124 1085 c 0,39,40
 1111 1085 1111 1085 1111 1073 c 0,41,42
 1111 1066 1111 1066 1117 1063 c 1,43,44
 1078 1063 1078 1063 1076 1080 c 0,45,46
 1074 1100 1074 1100 1124 1105 c 0,47,48
 1173 1109 1173 1109 1176 1089 c 1,49,50
 1176 1070 1176 1070 1134 1065 c 1,35,36
815 1188 m 1,51,52
 800 1127 800 1127 800 1055 c 0,53,54
 800 916 800 916 868 857 c 0,55,56
 895 832 895 832 923 793 c 0,57,58
 958 744 958 744 1004 744 c 2,59,-1
 1045 744 l 2,60,61
 1091 744 1091 744 1126 793 c 0,62,63
 1153 832 1153 832 1181 857 c 0,64,65
 1249 916 1249 916 1249 1055 c 0,66,67
 1249 1127 1249 1127 1234 1188 c 1,68,-1
 815 1188 l 1,51,52
914 1065 m 1,69,70
 871 1070 871 1070 872 1089 c 0,71,72
 873 1110 873 1110 924 1105 c 0,73,74
 974 1100 974 1100 972 1080 c 0,75,76
 970 1064 970 1064 931 1063 c 1,77,78
 937 1066 937 1066 937 1073 c 0,79,80
 937 1085 937 1085 924 1085 c 256,81,82
 911 1085 911 1085 911 1073 c 0,83,84
 911 1068 911 1068 914 1065 c 1,69,70
1024 1037 m 0,85,86
 1044 1037 1044 1037 1044 972 c 0,87,88
 1044 965 1044 965 1045 963 c 1,89,90
 1057 956 1057 956 1057 943 c 0,91,92
 1057 925 1057 925 1038 923 c 1,93,94
 1030 910 1030 910 1024 910 c 0,95,96
 1017 910 1017 910 1010 923 c 1,97,98
 991 925 991 925 991 943 c 0,99,100
 991 955 991 955 1003 963 c 1,101,102
 1005 966 1005 966 1005 972 c 0,103,104
 1005 1037 1005 1037 1024 1037 c 0,85,86
1660 205 m 1,105,-1
 1660 267 l 2,106,107
 1660 369 1660 369 1573 459 c 0,108,109
 1496 538 1496 538 1382 551 c 0,110,111
 1221 570 1221 570 1126 708 c 1,112,113
 1093 678 1093 678 1045 678 c 2,114,-1
 1004 678 l 2,115,116
 952 678 952 678 922 708 c 1,117,118
 825 570 825 570 666 551 c 0,119,120
 551 538 551 538 475 459 c 0,121,122
 388 370 388 370 388 267 c 2,123,-1
 388 205 l 1,124,-1
 1660 205 l 1,105,-1
320 137 m 1,125,-1
 320 205 l 2,126,127
 319 217 319 217 319 225 c 0,128,129
 320 233 320 233 320 245 c 0,130,131
 320 392 320 392 420 499 c 0,132,133
 514 601 514 601 664 619 c 0,134,135
 795 635 795 635 873 755 c 1,136,137
 870 756 870 756 869 759 c 1,138,139
 852 784 852 784 829 804 c 0,140,141
 732 889 732 889 732 1059 c 0,142,143
 732 1134 732 1134 747 1188 c 1,144,145
 730 1188 730 1188 730 1223 c 1,146,147
 702 1330 702 1330 648 1434 c 0,148,149
 624 1481 624 1481 655 1495 c 0,150,151
 682 1506 682 1506 707 1466 c 1,152,153
 753 1452 753 1452 811 1452 c 0,154,155
 945 1452 945 1452 993 1535 c 1,156,157
 986 1587 986 1587 1032 1646 c 1,158,159
 1073 1735 1073 1735 1259 1838 c 0,160,161
 1307 1864 1307 1864 1353 1884 c 1,162,163
 1376 1890 1376 1890 1399 1892 c 0,164,165
 1444 1895 1444 1895 1485 1882 c 0,166,167
 1540 1865 1540 1865 1544 1826 c 0,168,169
 1550 1753 1550 1753 1421 1736 c 0,170,171
 1214 1707 1214 1707 1094 1624 c 1,172,173
 1057 1584 1057 1584 1057 1552 c 0,174,175
 1057 1544 1057 1544 1059 1538 c 2,176,177
 1060 1527 1060 1527 1068 1518 c 0,178,179
 1122 1452 1122 1452 1240 1452 c 0,180,181
 1296 1452 1296 1452 1343 1466 c 1,182,183
 1366 1507 1366 1507 1394 1495 c 0,184,185
 1424 1481 1424 1481 1401 1434 c 0,186,187
 1344 1323 1344 1323 1319 1223 c 1,188,189
 1319 1188 1319 1188 1302 1188 c 1,190,191
 1317 1134 1317 1134 1317 1059 c 0,192,193
 1317 888 1317 888 1220 804 c 0,194,195
 1198 785 1198 785 1180 759 c 0,196,197
 1178 756 1178 756 1176 752 c 1,198,199
 1256 635 1256 635 1384 619 c 0,200,201
 1533 601 1533 601 1628 499 c 0,202,203
 1728 391 1728 391 1728 245 c 0,204,205
 1728 233 1728 233 1728.5 225 c 128,-1,206
 1729 217 1729 217 1728 205 c 2,207,-1
 1728 137 l 1,208,-1
 320 137 l 1,125,-1
707 67 m 1,209,-1
 639 0 l 1,210,-1
 536 0 l 1,211,-1
 605 68 l 1,212,-1
 707 67 l 1,209,-1
311 68 m 1,213,-1
 414 68 l 1,214,-1
 345 0 l 1,215,-1
 243 0 l 1,216,-1
 311 68 l 1,213,-1
1002 68 m 1,217,-1
 933 0 l 1,218,-1
 830 0 l 1,219,-1
 899 67 l 1,220,-1
 1002 68 l 1,217,-1
1296 68 m 1,221,-1
 1228 0 l 1,222,-1
 1124 0 l 1,223,-1
 1192 68 l 1,224,-1
 1296 68 l 1,221,-1
1588 67 m 1,225,-1
 1520 0 l 1,226,-1
 1417 0 l 1,227,-1
 1487 68 l 1,228,-1
 1588 67 l 1,225,-1
1435 1382 m 1,229,230
 1453 1420 1453 1420 1472 1457 c 0,231,232
 1495 1510 1495 1510 1482 1533 c 1,233,-1
 1998 2048 l 1,234,-1
 2049 2048 l 1,235,-1
 2049 1996 l 1,236,-1
 1435 1382 l 1,229,230
254 304 m 1,237,238
 252 278 252 278 249 227 c 0,239,240
 249 218 249 218 250 206 c 2,241,-1
 250 198 l 1,242,-1
 51 0 l 1,243,-1
 0 0 l 1,244,-1
 0 51 l 1,245,-1
 254 304 l 1,237,238
751 800 m 1,246,247
 758 793 758 793 769 783 c 0,248,249
 787 767 787 767 802 748 c 1,250,-1
 777 724 l 2,251,252
 707 673 707 673 628 662 c 0,253,254
 620 661 620 661 609 660 c 1,255,-1
 751 800 l 1,246,247
338 2048 m 1,256,-1
 0 1710 l 1,257,-1
 0 1813 l 1,258,-1
 238 2048 l 1,259,-1
 338 2048 l 1,256,-1
530 2048 m 1,260,-1
 632 2048 l 1,261,-1
 0 1417 l 1,262,-1
 0 1519 l 1,263,-1
 530 2048 l 1,260,-1
926 2048 m 1,264,-1
 0 1123 l 1,265,-1
 0 1225 l 1,266,-1
 824 2048 l 1,267,-1
 926 2048 l 1,264,-1
568 1500 m 1,268,-1
 0 932 l 1,269,-1
 0 829 l 1,270,-1
 596 1425 l 1,271,272
 579 1460 579 1460 570 1476 c 1,273,274
 566 1481 566 1481 567 1488 c 1,275,276
 569 1494 569 1494 568 1500 c 1,268,-1
708 1536 m 1,277,-1
 1221 2048 l 1,278,-1
 1117 2048 l 1,279,-1
 627 1559 l 1,280,281
 633 1562 633 1562 643 1562 c 0,282,283
 654 1562 654 1562 668 1559 c 0,284,285
 697 1554 697 1554 708 1536 c 1,277,-1
50 2048 m 1,286,-1
 0 2001 l 1,287,-1
 0 2048 l 1,288,-1
 50 2048 l 1,286,-1
1596 1838 m 1,289,290
 1596 1841 1596 1841 1596 1842 c 130,-1,291
 1596 1845 l 2,292,293
 1593 1876 1593 1876 1558 1901 c 1,294,-1
 1705 2048 l 1,295,-1
 1807 2048 l 1,296,-1
 1596 1838 l 1,289,290
667 1011 m 1,297,298
 672 966 672 966 685 925 c 1,299,-1
 0 242 l 1,300,-1
 0 344 l 1,301,-1
 667 1011 l 1,297,298
1276 1517 m 1,302,303
 1225 1515 1225 1515 1183 1527 c 1,304,-1
 1309 1653 l 1,305,306
 1326 1657 1326 1657 1352 1664 c 0,307,308
 1391 1674 1391 1674 1441 1682 c 1,309,-1
 1276 1517 l 1,302,303
1417 1953 m 1,310,311
 1365 1940 1365 1940 1306 1920 c 0,312,313
 1290 1914 1290 1914 1266 1904 c 1,314,-1
 1411 2048 l 1,315,-1
 1511 2048 l 1,316,-1
 1417 1953 l 1,310,311
648 1287 m 1,317,318
 656 1258 656 1258 660 1243 c 1,319,320
 660 1217 660 1217 672 1208 c 1,321,-1
 0 535 l 1,322,-1
 0 638 l 1,323,-1
 648 1287 l 1,317,318
1329 690 m 1,324,325
 1295 704 1295 704 1266 729 c 1,326,-1
 2049 1512 l 1,327,-1
 2049 1410 l 1,328,-1
 1329 690 l 1,324,325
1385 1040 m 1,329,330
 1387 1092 1387 1092 1384 1126 c 2,331,-1
 1383 1141 l 1,332,-1
 2049 1808 l 1,333,-1
 2049 1705 l 1,334,-1
 1385 1040 l 1,329,330
2049 49 m 1,335,-1
 2049 0 l 1,336,-1
 2002 0 l 1,337,-1
 2049 49 l 1,335,-1
1559 624 m 1,338,339
 1520 642 1520 642 1484 652 c 1,340,-1
 2049 1220 l 1,341,-1
 2049 1116 l 1,342,-1
 1559 624 l 1,338,339
1719 492 m 1,343,344
 1699 519 1699 519 1672 546 c 1,345,-1
 2049 925 l 1,346,-1
 2049 823 l 1,347,-1
 1719 492 l 1,343,344
1798 277 m 1,348,349
 1795 318 1795 318 1782 364 c 1,350,-1
 2049 631 l 1,351,-1
 2049 529 l 1,352,-1
 1798 277 l 1,348,349
2049 339 m 1,353,-1
 2049 237 l 1,354,-1
 1814 0 l 1,355,-1
 1711 0 l 1,356,-1
 2049 339 l 1,353,-1
EndSplineSet
EndChar
StartChar: K
Encoding: 75 75 11
Width: 2048
Flags: W
Fore
1024 902 m 1,0,-1
 1035 932 l 2,1,2
 1054 987 1054 987 1084 1043 c 1,3,4
 1055 1034 1055 1034 1024 1034 c 0,5,6
 995 1034 995 1034 966 1041 c 1,7,8
 996 978 996 978 1013 932 c 2,9,-1
 1024 902 l 1,0,-1
2049 339 m 1,10,-1
 2049 237 l 1,11,-1
 1814 0 l 1,12,-1
 1711 0 l 1,13,-1
 2049 339 l 1,10,-1
1544 126 m 1,14,15
 1709 174 1709 174 1709 231 c 0,16,17
 1709 258 1709 258 1692 274 c 1,18,-1
 2049 631 l 1,19,-1
 2049 529 l 1,20,-1
 1520 0 l 1,21,-1
 1417 0 l 1,22,-1
 1544 126 l 1,14,15
1679 451 m 1,23,24
 1679 525 1679 525 1682 557 c 1,25,-1
 2049 925 l 1,26,-1
 2049 823 l 1,27,-1
 1679 451 l 1,23,24
1196 73 m 1,28,29
 1249 75 1249 75 1310 81 c 1,30,-1
 1228 0 l 1,31,-1
 1124 0 l 1,32,-1
 1196 73 l 1,28,29
901 70 m 1,33,34
 966 68 966 68 1001 68 c 1,35,-1
 933 0 l 1,36,-1
 830 0 l 1,37,-1
 901 70 l 1,33,34
1953 1020 m 1,38,39
 1971 1082 1971 1082 1971 1142 c 1,40,-1
 2049 1220 l 1,41,-1
 2049 1116 l 1,42,-1
 1953 1020 l 1,38,39
2049 49 m 1,43,-1
 2049 0 l 1,44,-1
 2002 0 l 1,45,-1
 2049 49 l 1,43,-1
399 155 m 1,46,47
 436 137 436 137 473 128 c 1,48,-1
 345 0 l 1,49,-1
 243 0 l 1,50,-1
 399 155 l 1,46,47
1802 1458 m 1,51,52
 1769 1479 1769 1479 1734 1492 c 1,53,-1
 2049 1808 l 1,54,-1
 2049 1705 l 1,55,-1
 1802 1458 l 1,51,52
632 94 m 1,56,57
 686 86 686 86 722 83 c 1,58,-1
 639 0 l 1,59,-1
 536 0 l 1,60,-1
 632 94 l 1,56,57
1938 1297 m 1,61,62
 1922 1330 1922 1330 1901 1364 c 1,63,-1
 2049 1512 l 1,64,-1
 2049 1410 l 1,65,-1
 1938 1297 l 1,61,62
210 847 m 1,66,67
 240 826 240 826 266 800 c 1,68,-1
 0 535 l 1,69,-1
 0 638 l 1,70,-1
 210 847 l 1,66,67
1323 1859 m 1,71,-1
 1322 1960 l 1,72,-1
 1411 2048 l 1,73,-1
 1511 2048 l 1,74,-1
 1323 1859 l 1,71,-1
341 686 m 1,75,76
 358 646 358 646 363 604 c 1,77,-1
 0 242 l 1,78,-1
 0 344 l 1,79,-1
 341 686 l 1,75,76
1323 1566 m 1,80,-1
 1323 1668 l 1,81,-1
 1705 2048 l 1,82,-1
 1807 2048 l 1,83,-1
 1323 1566 l 1,80,-1
50 2048 m 1,84,-1
 0 2001 l 1,85,-1
 0 2048 l 1,86,-1
 50 2048 l 1,84,-1
95 1026 m 1,87,88
 99 996 99 996 123 951 c 1,89,-1
 0 829 l 1,90,-1
 0 932 l 1,91,-1
 95 1026 l 1,87,88
1124 1952 m 1,92,-1
 1021 1952 l 1,93,-1
 1117 2048 l 1,94,-1
 1221 2048 l 1,95,-1
 1124 1952 l 1,92,-1
393 1515 m 1,96,97
 286 1499 286 1499 207 1432 c 1,98,-1
 726 1951 l 1,99,-1
 726 1848 l 1,100,-1
 393 1515 l 1,96,97
162 1386 m 1,101,102
 99 1307 99 1307 86 1209 c 1,103,-1
 0 1123 l 1,104,-1
 0 1225 l 1,105,-1
 162 1386 l 1,101,102
831 1952 m 1,106,-1
 728 1952 l 1,107,-1
 824 2048 l 1,108,-1
 926 2048 l 1,109,-1
 831 1952 l 1,106,-1
530 2048 m 1,110,-1
 632 2048 l 1,111,-1
 0 1417 l 1,112,-1
 0 1519 l 1,113,-1
 530 2048 l 1,110,-1
338 2048 m 1,114,-1
 0 1710 l 1,115,-1
 0 1813 l 1,116,-1
 238 2048 l 1,117,-1
 338 2048 l 1,114,-1
372 422 m 1,118,-1
 372 390 l 2,119,120
 372 378 372 378 372 354 c 0,121,122
 371 330 371 330 371 319 c 1,123,-1
 51 0 l 1,124,-1
 0 0 l 1,125,-1
 0 51 l 1,126,-1
 372 422 l 1,118,-1
1577 1523 m 1,127,128
 1515 1522 1515 1522 1443 1492 c 1,129,-1
 1998 2048 l 1,130,-1
 2049 2048 l 1,131,-1
 2049 1996 l 1,132,-1
 1577 1523 l 1,127,128
725 1657 m 1,133,-1
 571 1502 l 1,134,135
 605 1493 605 1493 646 1473 c 1,136,-1
 725 1553 l 1,137,-1
 725 1657 l 1,133,-1
1787 964 m 1,138,139
 1825 1013 1825 1013 1837 1055 c 128,-1,140
 1849 1097 1849 1097 1849 1138 c 0,141,142
 1849 1196 1849 1196 1825 1253 c 0,143,144
 1783 1349 1783 1349 1685 1385 c 0,145,146
 1639 1401 1639 1401 1569 1392 c 256,147,148
 1499 1383 1499 1383 1456 1365 c 1,149,150
 1480 1367 1480 1367 1502 1367 c 0,151,152
 1639 1367 1639 1367 1719 1282 c 0,153,154
 1811 1183 1811 1183 1811 1053 c 0,155,156
 1811 1033 1811 1033 1787 964 c 1,138,139
1024 1101 m 0,157,158
 1091 1101 1091 1101 1138.5 1148.5 c 128,-1,159
 1186 1196 1186 1196 1186 1263 c 256,160,161
 1186 1330 1186 1330 1138.5 1377.5 c 128,-1,162
 1091 1425 1091 1425 1024 1425 c 0,163,164
 956 1425 956 1425 909 1378 c 128,-1,165
 862 1331 862 1331 862 1263 c 256,166,167
 862 1195 862 1195 909 1148 c 128,-1,168
 956 1101 956 1101 1024 1101 c 0,157,158
863 1542 m 1,169,-1
 976 1656 l 1,170,-1
 862 1769 l 1,171,-1
 863 1542 l 1,169,-1
910 1493 m 1,172,-1
 1139 1493 l 1,173,-1
 1024 1608 l 1,174,-1
 910 1493 l 1,172,-1
1187 1541 m 1,175,-1
 1187 1770 l 1,176,-1
 1072 1655 l 1,177,-1
 1187 1541 l 1,175,-1
1138 1818 m 1,178,-1
 909 1818 l 1,179,-1
 1024 1703 l 1,180,-1
 1138 1818 l 1,178,-1
1024 137 m 0,181,182
 864 137 864 137 688 159 c 0,183,184
 409 194 409 194 409 265 c 0,185,186
 409 281 409 281 428 297 c 1,187,188
 431 380 431 380 431 446 c 0,189,190
 431 553 431 553 424 632 c 0,191,192
 413 684 413 684 404 710 c 0,193,194
 366 813 366 813 260 888 c 0,195,196
 129 1000 129 1000 129 1145 c 0,197,198
 129 1214 129 1214 161 1281 c 0,199,200
 218 1404 218 1404 344 1450 c 0,201,202
 402 1471 402 1471 458 1471 c 0,203,204
 537 1471 537 1471 611 1429 c 0,205,206
 699 1378 699 1378 794 1280 c 1,207,208
 800 1364 800 1364 862 1426 c 1,209,-1
 794 1425 l 1,210,-1
 794 1886 l 1,211,-1
 1254 1886 l 1,212,-1
 1254 1425 l 1,213,-1
 1186 1426 l 1,214,215
 1246 1364 1246 1364 1254 1280 c 1,216,217
 1349 1378 1349 1378 1437 1429 c 0,218,219
 1510 1471 1510 1471 1590 1471 c 0,220,221
 1646 1471 1646 1471 1704 1450 c 0,222,223
 1830 1404 1830 1404 1887 1281 c 0,224,225
 1919 1214 1919 1214 1919 1145 c 0,226,227
 1919 1000 1919 1000 1788 888 c 0,228,229
 1682 814 1682 814 1644 710 c 0,230,231
 1633 680 1633 680 1624 632 c 0,232,233
 1617 545 1617 545 1617 446 c 0,234,235
 1617 379 1617 379 1620 297 c 1,236,237
 1639 281 1639 281 1639 265 c 0,238,239
 1639 194 1639 194 1360 159 c 0,240,241
 1183 137 1183 137 1024 137 c 0,181,182
1024 536 m 0,242,243
 1371 536 1371 536 1549 474 c 1,244,245
 1549 544 1549 544 1555 640 c 1,246,247
 1424 701 1424 701 1024 701 c 0,248,249
 623 701 623 701 493 640 c 1,250,251
 497 544 497 544 499 474 c 1,252,253
 676 536 676 536 1024 536 c 0,242,243
1024 205 m 0,254,255
 1199 205 1199 205 1392 229 c 0,256,257
 1570 251 1570 251 1570 265 c 0,258,259
 1570 292 1570 292 1353 310 c 0,260,261
 1180 325 1180 325 1024 325 c 0,262,263
 840 325 840 325 651 301 c 0,264,265
 478 279 478 279 478 265 c 0,266,267
 478 239 478 239 695 220 c 0,268,269
 872 205 872 205 1024 205 c 0,254,255
1024 393 m 0,270,271
 1369 393 1369 393 1551 331 c 1,272,273
 1551 345 1551 345 1550 373 c 128,-1,274
 1549 401 1549 401 1549 415 c 1,275,276
 1411 468 1411 468 1024 468 c 0,277,278
 636 468 636 468 499 415 c 1,279,280
 499 401 499 401 498 373 c 0,281,282
 498 345 498 345 498 331 c 1,283,284
 678 393 678 393 1024 393 c 0,270,271
265 964 m 1,285,286
 241 1035 241 1035 241 1053 c 0,287,288
 241 1183 241 1183 333 1282 c 0,289,290
 412 1367 412 1367 549 1367 c 0,291,292
 572 1367 572 1367 596 1365 c 1,293,294
 552 1383 552 1383 482 1392 c 0,295,296
 413 1401 413 1401 368 1385 c 0,297,298
 267 1348 267 1348 226 1253 c 0,299,300
 202 1197 202 1197 202 1140 c 0,301,302
 202 1079 202 1079 227 1020 c 0,303,304
 235 1001 235 1001 265 964 c 1,285,286
374 883 m 0,305,306
 443 807 443 807 469 733 c 0,307,308
 476 714 476 714 479 700 c 1,309,310
 640 765 640 765 991 769 c 1,311,312
 978 830 978 830 950 909 c 0,313,314
 878 1104 878 1104 726 1253 c 0,315,316
 654 1309 654 1309 566 1309 c 0,317,318
 460 1309 460 1309 385 1234 c 128,-1,319
 310 1159 310 1159 310 1053 c 0,320,321
 310 954 310 954 374 883 c 0,305,306
1674 883 m 0,322,323
 1738 953 1738 953 1738 1053 c 0,324,325
 1738 1159 1738 1159 1663 1234 c 128,-1,326
 1588 1309 1588 1309 1482 1309 c 0,327,328
 1393 1309 1393 1309 1322 1253 c 0,329,330
 1170 1105 1170 1105 1098 909 c 0,331,332
 1068 827 1068 827 1057 769 c 1,333,334
 1407 765 1407 765 1569 700 c 1,335,336
 1571 710 1571 710 1579 733 c 0,337,338
 1606 809 1606 809 1674 883 c 0,322,323
EndSplineSet
EndChar
StartChar: L
Encoding: 76 76 12
Width: 2048
Flags: W
Fore
1024 1170 m 256,0,1
 931 1170 931 1170 931 1263 c 0,2,3
 931 1357 931 1357 1024 1357 c 256,4,5
 1117 1357 1117 1357 1117 1263 c 0,6,7
 1117 1170 1117 1170 1024 1170 c 256,0,1
1024 666 m 0,8,9
 1373 666 1373 666 1553 603 c 1,10,11
 1554 666 1554 666 1579 733 c 0,12,13
 1625 858 1625 858 1742 936 c 0,14,15
 1849 1008 1849 1008 1849 1144 c 0,16,17
 1849 1198 1849 1198 1824 1252 c 0,18,19
 1780 1348 1780 1348 1680 1384 c 0,20,21
 1634 1401 1634 1401 1589 1401 c 0,22,23
 1518 1401 1518 1401 1454 1359 c 0,24,25
 1203 1195 1203 1195 1098 908 c 0,26,27
 1058 797 1058 797 1058 733 c 1,28,-1
 990 733 l 1,29,30
 990 797 990 797 950 909 c 0,31,32
 845 1195 845 1195 594 1359 c 0,33,34
 529 1401 529 1401 458 1401 c 0,35,36
 413 1401 413 1401 368 1385 c 0,37,38
 268 1348 268 1348 223 1252 c 0,39,40
 198 1199 198 1199 198 1145 c 0,41,42
 198 1009 198 1009 306 936 c 0,43,44
 424 857 424 857 469 733 c 0,45,46
 491 672 491 672 495 603 c 1,47,48
 671 666 671 666 1024 666 c 0,8,9
1024 454 m 0,49,50
 1370 454 1370 454 1551 392 c 1,51,52
 1551 406 1551 406 1550 434 c 128,-1,53
 1549 462 1549 462 1549 476 c 1,54,55
 1411 530 1411 530 1024 530 c 0,56,57
 636 530 636 530 499 476 c 1,58,59
 499 462 499 462 498 434 c 0,60,61
 498 406 498 406 498 392 c 1,62,63
 677 454 677 454 1024 454 c 0,49,50
1024 205 m 0,64,65
 1199 205 1199 205 1392 229 c 0,66,67
 1570 251 1570 251 1570 265 c 0,68,69
 1570 292 1570 292 1353 310 c 0,70,71
 1180 325 1180 325 1024 325 c 0,72,73
 840 325 840 325 651 301 c 0,74,75
 478 279 478 279 478 265 c 0,76,77
 478 239 478 239 695 220 c 0,78,79
 872 205 872 205 1024 205 c 0,64,65
1024 137 m 0,80,81
 864 137 864 137 688 159 c 0,82,83
 409 194 409 194 409 265 c 0,84,85
 409 281 409 281 428 297 c 1,86,87
 431 380 431 380 431 446 c 0,88,89
 431 553 431 553 424 632 c 0,90,91
 413 684 413 684 404 710 c 0,92,93
 366 813 366 813 261 884 c 0,94,95
 129 973 129 973 129 1145 c 0,96,97
 129 1214 129 1214 161 1281 c 0,98,99
 218 1404 218 1404 344 1450 c 0,100,101
 402 1471 402 1471 458 1471 c 0,102,103
 537 1471 537 1471 611 1429 c 0,104,105
 699 1378 699 1378 794 1280 c 1,106,107
 800 1364 800 1364 862 1426 c 1,108,-1
 794 1425 l 1,109,-1
 794 1886 l 1,110,-1
 1254 1886 l 1,111,-1
 1254 1425 l 1,112,-1
 1186 1426 l 1,113,114
 1246 1365 1246 1365 1253 1279 c 1,115,116
 1348 1377 1348 1377 1437 1429 c 0,117,118
 1510 1471 1510 1471 1590 1471 c 0,119,120
 1646 1471 1646 1471 1704 1450 c 0,121,122
 1830 1404 1830 1404 1887 1281 c 0,123,124
 1919 1214 1919 1214 1919 1145 c 0,125,126
 1919 1089 1919 1089 1898 1033 c 0,127,128
 1865 942 1865 942 1788 884 c 0,129,130
 1685 820 1685 820 1644 710 c 0,131,132
 1633 681 1633 681 1624 632 c 0,133,134
 1617 545 1617 545 1617 446 c 0,135,136
 1617 379 1617 379 1620 297 c 1,137,138
 1639 281 1639 281 1639 265 c 0,139,140
 1639 194 1639 194 1360 159 c 0,141,142
 1183 137 1183 137 1024 137 c 0,80,81
862 1547 m 1,143,-1
 862 1493 l 1,144,-1
 916 1493 l 1,145,-1
 1024 1604 l 1,146,-1
 1132 1493 l 1,147,-1
 1187 1493 l 1,148,-1
 1187 1547 l 1,149,-1
 1076 1656 l 1,150,-1
 1187 1769 l 1,151,-1
 1187 1818 l 1,152,-1
 1138 1818 l 1,153,-1
 1024 1707 l 1,154,-1
 916 1818 l 1,155,-1
 862 1818 l 1,156,-1
 862 1764 l 1,157,-1
 973 1656 l 1,158,-1
 862 1547 l 1,143,-1
1024 1101 m 0,159,160
 1091 1101 1091 1101 1138.5 1148.5 c 128,-1,161
 1186 1196 1186 1196 1186 1263 c 256,162,163
 1186 1330 1186 1330 1138.5 1377.5 c 128,-1,164
 1091 1425 1091 1425 1024 1425 c 0,165,166
 956 1425 956 1425 909 1378 c 128,-1,167
 862 1331 862 1331 862 1263 c 256,168,169
 862 1195 862 1195 909 1148 c 128,-1,170
 956 1101 956 1101 1024 1101 c 0,159,160
935 731 m 1,171,172
 714 725 714 725 562 689 c 1,173,174
 555 715 555 715 546 739 c 0,175,176
 491 889 491 889 354 978 c 0,177,178
 297 1014 297 1014 277 1073 c 0,179,180
 250 1146 250 1146 282.5 1215.5 c 128,-1,181
 315 1285 315 1285 388 1312 c 0,182,183
 421 1324 421 1324 454 1324 c 0,184,185
 504 1324 504 1324 550 1295 c 0,186,187
 797 1141 797 1141 897 867 c 0,188,189
 920 801 920 801 935 731 c 1,171,172
1114 731 m 1,190,191
 1127 801 1127 801 1151 867 c 0,192,193
 1250 1139 1250 1139 1498 1295 c 0,194,195
 1544 1324 1544 1324 1594 1324 c 0,196,197
 1626 1324 1626 1324 1660 1312 c 0,198,199
 1732 1285 1732 1285 1765 1215 c 128,-1,200
 1798 1145 1798 1145 1772 1073 c 0,201,202
 1750 1013 1750 1013 1695 978 c 0,203,204
 1557 888 1557 888 1502 739 c 0,205,206
 1491 709 1491 709 1486 688 c 1,207,208
 1338 724 1338 724 1114 731 c 1,190,191
725 1657 m 1,209,-1
 571 1502 l 1,210,211
 605 1493 605 1493 646 1473 c 1,212,-1
 725 1553 l 1,213,-1
 725 1657 l 1,209,-1
1577 1523 m 1,214,215
 1515 1522 1515 1522 1443 1492 c 1,216,-1
 1998 2048 l 1,217,-1
 2049 2048 l 1,218,-1
 2049 1996 l 1,219,-1
 1577 1523 l 1,214,215
372 422 m 1,220,-1
 372 390 l 2,221,222
 372 378 372 378 372 354 c 0,223,224
 371 330 371 330 371 319 c 1,225,-1
 51 0 l 1,226,-1
 0 0 l 1,227,-1
 0 51 l 1,228,-1
 372 422 l 1,220,-1
338 2048 m 1,229,-1
 0 1710 l 1,230,-1
 0 1813 l 1,231,-1
 238 2048 l 1,232,-1
 338 2048 l 1,229,-1
530 2048 m 1,233,-1
 632 2048 l 1,234,-1
 0 1417 l 1,235,-1
 0 1519 l 1,236,-1
 530 2048 l 1,233,-1
831 1952 m 1,237,-1
 728 1952 l 1,238,-1
 824 2048 l 1,239,-1
 926 2048 l 1,240,-1
 831 1952 l 1,237,-1
162 1386 m 1,241,242
 99 1307 99 1307 86 1209 c 1,243,-1
 0 1123 l 1,244,-1
 0 1225 l 1,245,-1
 162 1386 l 1,241,242
393 1515 m 1,246,247
 286 1499 286 1499 207 1432 c 1,248,-1
 726 1951 l 1,249,-1
 726 1848 l 1,250,-1
 393 1515 l 1,246,247
1124 1952 m 1,251,-1
 1021 1952 l 1,252,-1
 1117 2048 l 1,253,-1
 1221 2048 l 1,254,-1
 1124 1952 l 1,251,-1
95 1026 m 1,255,256
 99 996 99 996 123 951 c 1,257,-1
 0 829 l 1,258,-1
 0 932 l 1,259,-1
 95 1026 l 1,255,256
50 2048 m 1,260,-1
 0 2001 l 1,261,-1
 0 2048 l 1,262,-1
 50 2048 l 1,260,-1
1323 1566 m 1,263,-1
 1323 1668 l 1,264,-1
 1705 2048 l 1,265,-1
 1807 2048 l 1,266,-1
 1323 1566 l 1,263,-1
341 686 m 1,267,268
 358 646 358 646 363 604 c 1,269,-1
 0 242 l 1,270,-1
 0 344 l 1,271,-1
 341 686 l 1,267,268
1323 1859 m 1,272,-1
 1322 1960 l 1,273,-1
 1411 2048 l 1,274,-1
 1511 2048 l 1,275,-1
 1323 1859 l 1,272,-1
210 847 m 1,276,277
 240 826 240 826 266 800 c 1,278,-1
 0 535 l 1,279,-1
 0 638 l 1,280,-1
 210 847 l 1,276,277
1938 1297 m 1,281,282
 1922 1330 1922 1330 1901 1364 c 1,283,-1
 2049 1512 l 1,284,-1
 2049 1410 l 1,285,-1
 1938 1297 l 1,281,282
632 94 m 1,286,287
 686 86 686 86 722 83 c 1,288,-1
 639 0 l 1,289,-1
 536 0 l 1,290,-1
 632 94 l 1,286,287
1802 1458 m 1,291,292
 1769 1479 1769 1479 1734 1492 c 1,293,-1
 2049 1808 l 1,294,-1
 2049 1705 l 1,295,-1
 1802 1458 l 1,291,292
399 155 m 1,296,297
 436 137 436 137 473 128 c 1,298,-1
 345 0 l 1,299,-1
 243 0 l 1,300,-1
 399 155 l 1,296,297
2049 49 m 1,301,-1
 2049 0 l 1,302,-1
 2002 0 l 1,303,-1
 2049 49 l 1,301,-1
1953 1020 m 1,304,305
 1971 1082 1971 1082 1971 1142 c 1,306,-1
 2049 1220 l 1,307,-1
 2049 1116 l 1,308,-1
 1953 1020 l 1,304,305
901 70 m 1,309,310
 966 68 966 68 1001 68 c 1,311,-1
 933 0 l 1,312,-1
 830 0 l 1,313,-1
 901 70 l 1,309,310
1196 73 m 1,314,315
 1249 75 1249 75 1310 81 c 1,316,-1
 1228 0 l 1,317,-1
 1124 0 l 1,318,-1
 1196 73 l 1,314,315
1679 451 m 1,319,320
 1679 525 1679 525 1682 557 c 1,321,-1
 2049 925 l 1,322,-1
 2049 823 l 1,323,-1
 1679 451 l 1,319,320
1544 126 m 1,324,325
 1709 174 1709 174 1709 231 c 0,326,327
 1709 258 1709 258 1692 274 c 1,328,-1
 2049 631 l 1,329,-1
 2049 529 l 1,330,-1
 1520 0 l 1,331,-1
 1417 0 l 1,332,-1
 1544 126 l 1,324,325
2049 339 m 1,333,-1
 2049 237 l 1,334,-1
 1814 0 l 1,335,-1
 1711 0 l 1,336,-1
 2049 339 l 1,333,-1
EndSplineSet
EndChar
StartChar: M
Encoding: 77 77 13
Width: 2048
Flags: W
Fore
1588 67 m 1,0,-1
 1520 0 l 1,1,-1
 1417 0 l 1,2,-1
 1487 68 l 1,3,-1
 1588 67 l 1,0,-1
1296 68 m 1,4,-1
 1228 0 l 1,5,-1
 1124 0 l 1,6,-1
 1192 68 l 1,7,-1
 1296 68 l 1,4,-1
1002 68 m 1,8,-1
 933 0 l 1,9,-1
 830 0 l 1,10,-1
 899 67 l 1,11,-1
 1002 68 l 1,8,-1
707 67 m 1,12,-1
 639 0 l 1,13,-1
 536 0 l 1,14,-1
 605 68 l 1,15,-1
 707 67 l 1,12,-1
425 476 m 1,16,17
 435 474 435 474 446 474 c 0,18,19
 520 474 520 474 612 560 c 1,20,-1
 51 0 l 1,21,-1
 0 0 l 1,22,-1
 0 51 l 1,23,-1
 425 476 l 1,16,17
1532 1479 m 1,24,-1
 1506 1490 l 1,25,-1
 1509 1559 l 1,26,-1
 1998 2048 l 1,27,-1
 2049 2048 l 1,28,-1
 2049 1996 l 1,29,-1
 1532 1479 l 1,24,-1
338 2048 m 1,30,-1
 0 1710 l 1,31,-1
 0 1813 l 1,32,-1
 238 2048 l 1,33,-1
 338 2048 l 1,30,-1
530 2048 m 1,34,-1
 632 2048 l 1,35,-1
 0 1417 l 1,36,-1
 0 1519 l 1,37,-1
 530 2048 l 1,34,-1
926 2048 m 1,38,-1
 0 1123 l 1,39,-1
 0 1225 l 1,40,-1
 824 2048 l 1,41,-1
 926 2048 l 1,38,-1
543 1474 m 1,42,-1
 0 932 l 1,43,-1
 0 829 l 1,44,-1
 406 1234 l 1,45,46
 423 1264 423 1264 444 1306 c 0,47,48
 492 1401 492 1401 543 1474 c 1,42,-1
1025 1851 m 1,49,50
 995 1884 995 1884 973 1906 c 1,51,-1
 1117 2048 l 1,52,-1
 1221 2048 l 1,53,-1
 1025 1851 l 1,49,50
50 2048 m 1,54,-1
 0 2001 l 1,55,-1
 0 2048 l 1,56,-1
 50 2048 l 1,54,-1
232 577 m 1,57,58
 252 561 252 561 307 548 c 1,59,-1
 0 242 l 1,60,-1
 0 344 l 1,61,-1
 232 577 l 1,57,58
1359 1600 m 1,62,-1
 1308 1651 l 1,63,-1
 1705 2048 l 1,64,-1
 1807 2048 l 1,65,-1
 1359 1600 l 1,62,-1
150 786 m 1,66,67
 147 735 147 735 161 695 c 1,68,-1
 0 535 l 1,69,-1
 0 638 l 1,70,-1
 150 786 l 1,66,67
1141 1676 m 1,71,72
 1131 1702 1131 1702 1106 1743 c 1,73,-1
 1411 2048 l 1,74,-1
 1511 2048 l 1,75,-1
 1141 1676 l 1,71,72
1787 1147 m 1,76,-1
 1741 1204 l 1,77,-1
 2049 1512 l 1,78,-1
 2049 1410 l 1,79,-1
 1787 1147 l 1,76,-1
443 199 m 1,80,81
 430 160 430 160 430 125 c 0,82,83
 430 105 430 105 434 87 c 1,84,-1
 345 0 l 1,85,-1
 243 0 l 1,86,-1
 443 199 l 1,80,81
1667 1322 m 1,87,-1
 1628 1343 l 1,88,-1
 1651 1408 l 1,89,-1
 2049 1808 l 1,90,-1
 2049 1705 l 1,91,-1
 1667 1322 l 1,87,-1
2049 49 m 1,92,-1
 2049 0 l 1,93,-1
 2002 0 l 1,94,-1
 2049 49 l 1,92,-1
1875 941 m 1,95,-1
 1829 999 l 1,96,-1
 2049 1220 l 1,97,-1
 2049 1116 l 1,98,-1
 1875 941 l 1,95,-1
1948 720 m 1,99,-1
 1908 783 l 1,100,-1
 2049 925 l 1,101,-1
 2049 823 l 1,102,-1
 1948 720 l 1,99,-1
1933 412 m 1,103,-1
 1899 482 l 1,104,-1
 2049 631 l 1,105,-1
 2049 529 l 1,106,-1
 1933 412 l 1,103,-1
1882 68 m 1,107,-1
 1814 0 l 1,108,-1
 1711 0 l 1,109,-1
 1779 68 l 1,110,-1
 1882 68 l 1,107,-1
1915 101 m 1,111,-1
 1884 172 l 1,112,-1
 2049 339 l 1,113,-1
 2049 237 l 1,114,-1
 1915 101 l 1,111,-1
1565 1200 m 1,115,-1
 1645 1200 l 1,116,-1
 1749 1067 l 1,117,-1
 1694 1053 l 1,118,-1
 1818 894 l 1,119,-1
 1749 896 l 1,120,-1
 1854 730 l 1,121,-1
 1778 751 l 1,122,-1
 1838 592 l 1,123,-1
 1771 591 l 1,124,-1
 1854 416 l 1,125,-1
 1785 407 l 1,126,-1
 1845 262 l 1,127,-1
 1788 243 l 1,128,-1
 1833 137 l 1,129,-1
 500 137 l 1,130,131
 498 147 498 147 498 157 c 0,132,133
 498 278 498 278 638 414 c 0,134,135
 646 422 646 422 780 540 c 0,136,137
 899 645 899 645 903 649 c 0,138,139
 984 725 984 725 1007.5 770.5 c 128,-1,140
 1031 816 1031 816 1040 858 c 1,141,142
 977 828 977 828 891 836 c 0,143,144
 846 839 846 839 804 856 c 1,145,146
 728 775 728 775 655 749 c 1,147,148
 639 710 639 710 615 677 c 0,149,150
 574 618 574 618 516 580 c 0,151,152
 439 529 439 529 390 564 c 0,153,154
 366 580 366 580 360 598 c 1,155,156
 352 598 352 598 328 605 c 0,157,158
 251 625 251 625 223 709 c 0,159,160
 198 783 198 783 219 863 c 0,161,162
 243 952 243 952 310 1003 c 0,163,164
 425 1112 425 1112 497 1258 c 0,165,166
 584 1436 584 1436 688 1524 c 1,167,168
 685 1571 685 1571 696 1632 c 0,169,170
 717 1756 717 1756 772 1825 c 1,171,172
 837 1764 837 1764 879 1648 c 0,173,174
 883 1636 883 1636 891 1611 c 1,175,176
 893 1608 893 1608 895 1608 c 256,177,178
 897 1608 897 1608 900 1611 c 1,179,180
 922 1736 922 1736 977 1805 c 1,181,182
 1041 1741 1041 1741 1083 1627 c 1,183,184
 1084 1621 1084 1621 1100 1611 c 1,185,-1
 1250 1604 l 1,186,-1
 1314 1540 l 1,187,-1
 1445 1506 l 1,188,-1
 1443 1444 l 1,189,-1
 1581 1388 l 1,190,-1
 1554 1310 l 1,191,-1
 1702 1232 l 1,192,-1
 1645 1200 l 1,193,-1
 1565 1200 l 1,194,195
 1553 1227 1553 1227 1534 1258 c 0,196,197
 1506 1304 1506 1304 1496 1296 c 0,198,199
 1485 1287 1485 1287 1514 1243 c 1,200,201
 1526 1214 1526 1214 1533 1192 c 0,202,203
 1626 990 1626 990 1626 672 c 0,204,205
 1626 556 1626 556 1605 338 c 0,206,207
 1600 283 1600 283 1591 226 c 1,208,209
 1591 214 1591 214 1652 214 c 0,210,211
 1711 214 1711 214 1711 226 c 0,212,213
 1716 310 1716 310 1716 455 c 0,214,215
 1716 655 1716 655 1675 834 c 0,216,217
 1650 945 1650 945 1567 1194 c 2,218,-1
 1565 1200 l 1,115,-1
1238 816 m 0,219,220
 1307 845 1307 845 1331 892 c 2,221,-1
 1338 906 l 1,222,223
 1352 954 1352 954 1328 966 c 0,224,225
 1303 978 1303 978 1282 934 c 0,226,227
 1276 923 1276 923 1276 924 c 1,228,229
 1256 888 1256 888 1213 866 c 0,230,231
 1181 850 1181 850 1192 825 c 0,232,233
 1203 801 1203 801 1238 816 c 0,219,220
1204 886 m 0,234,235
 1284 958 1284 958 1314 1054 c 0,236,237
 1329 1100 1329 1100 1304 1110 c 0,238,239
 1277 1120 1277 1120 1261 1075 c 0,240,241
 1260 1071 1260 1071 1254 1057 c 0,242,243
 1227 990 1227 990 1172 938 c 0,244,245
 1136 911 1136 911 1153 885 c 0,246,247
 1168 859 1168 859 1204 886 c 0,234,235
1163 963 m 0,248,249
 1241 1065 1241 1065 1251 1191 c 0,250,251
 1252 1208 1252 1208 1252 1217 c 0,252,253
 1250 1270 1250 1270 1218 1270 c 0,254,255
 1185 1270 1185 1270 1185 1218 c 1,256,257
 1184 1214 1184 1214 1183 1196 c 0,258,259
 1175 1090 1175 1090 1109 1001 c 0,260,261
 1071 949 1071 949 1098 929 c 0,262,263
 1105 924 1105 924 1112 924 c 0,264,265
 1133 924 1133 924 1163 963 c 0,248,249
742 1208 m 1,266,267
 741 1211 741 1211 741 1212 c 0,268,269
 741 1215 741 1215 744 1217 c 1,270,271
 748 1216 748 1216 751 1212 c 1,272,273
 773 1228 773 1228 773 1258 c 0,274,275
 773 1272 773 1272 768 1290 c 1,276,277
 813 1317 813 1317 813 1337 c 0,278,279
 813 1365 813 1365 764 1356 c 0,280,281
 671 1339 671 1339 612 1268 c 0,282,283
 586 1238 586 1238 596 1222 c 0,284,285
 610 1197 610 1197 672 1228 c 1,286,287
 695 1202 695 1202 719 1202 c 0,288,289
 730 1202 730 1202 742 1208 c 1,266,267
390 876 m 0,290,291
 423 915 423 915 438 930 c 0,292,293
 452 946 452 946 436 968 c 0,294,295
 414 995 414 995 354 903 c 1,296,297
 346 873 346 873 360 861 c 0,298,299
 373 850 373 850 390 876 c 0,290,291
474 670 m 0,300,301
 483 685 483 685 506 710 c 0,302,303
 522 730 522 730 549 764 c 0,304,305
 557 774 557 774 549 778 c 0,306,307
 541 783 541 783 518 782 c 0,308,309
 494 780 494 780 481 767 c 1,310,311
 455 748 455 748 431 718 c 0,312,313
 424 709 424 709 419 698 c 0,314,315
 399 650 399 650 429 641 c 0,316,317
 452 634 452 634 474 670 c 0,300,301
906 1560 m 1,318,319
 897 1556 897 1556 896 1560 c 1,320,321
 896 1563 896 1563 904 1566 c 1,322,323
 885 1582 885 1582 838 1570 c 0,324,325
 808 1562 808 1562 792 1548 c 0,326,327
 727 1491 727 1491 738 1465 c 0,328,329
 748 1442 748 1442 786 1460 c 0,330,331
 799 1466 799 1466 807 1476 c 0,332,333
 826 1507 826 1507 865 1523 c 0,334,335
 912 1541 912 1541 906 1560 c 1,318,319
EndSplineSet
EndChar
StartChar: N
Encoding: 78 78 14
Width: 2048
Flags: W
Fore
1588 67 m 1,0,-1
 1520 0 l 1,1,-1
 1417 0 l 1,2,-1
 1487 68 l 1,3,-1
 1588 67 l 1,0,-1
1296 68 m 1,4,-1
 1228 0 l 1,5,-1
 1124 0 l 1,6,-1
 1192 68 l 1,7,-1
 1296 68 l 1,4,-1
1002 68 m 1,8,-1
 933 0 l 1,9,-1
 830 0 l 1,10,-1
 899 67 l 1,11,-1
 1002 68 l 1,8,-1
707 67 m 1,12,-1
 639 0 l 1,13,-1
 536 0 l 1,14,-1
 605 68 l 1,15,-1
 707 67 l 1,12,-1
425 476 m 1,16,17
 435 474 435 474 446 474 c 0,18,19
 520 474 520 474 612 560 c 1,20,-1
 51 0 l 1,21,-1
 0 0 l 1,22,-1
 0 51 l 1,23,-1
 425 476 l 1,16,17
1532 1479 m 1,24,-1
 1506 1490 l 1,25,-1
 1509 1559 l 1,26,-1
 1998 2048 l 1,27,-1
 2049 2048 l 1,28,-1
 2049 1996 l 1,29,-1
 1532 1479 l 1,24,-1
338 2048 m 1,30,-1
 0 1710 l 1,31,-1
 0 1813 l 1,32,-1
 238 2048 l 1,33,-1
 338 2048 l 1,30,-1
530 2048 m 1,34,-1
 632 2048 l 1,35,-1
 0 1417 l 1,36,-1
 0 1519 l 1,37,-1
 530 2048 l 1,34,-1
926 2048 m 1,38,-1
 0 1123 l 1,39,-1
 0 1225 l 1,40,-1
 824 2048 l 1,41,-1
 926 2048 l 1,38,-1
543 1474 m 1,42,-1
 0 932 l 1,43,-1
 0 829 l 1,44,-1
 406 1234 l 1,45,46
 423 1264 423 1264 444 1306 c 0,47,48
 492 1401 492 1401 543 1474 c 1,42,-1
1025 1851 m 1,49,50
 995 1884 995 1884 973 1906 c 1,51,-1
 1117 2048 l 1,52,-1
 1221 2048 l 1,53,-1
 1025 1851 l 1,49,50
50 2048 m 1,54,-1
 0 2001 l 1,55,-1
 0 2048 l 1,56,-1
 50 2048 l 1,54,-1
232 577 m 1,57,58
 252 561 252 561 307 548 c 1,59,-1
 0 242 l 1,60,-1
 0 344 l 1,61,-1
 232 577 l 1,57,58
1359 1600 m 1,62,-1
 1308 1651 l 1,63,-1
 1705 2048 l 1,64,-1
 1807 2048 l 1,65,-1
 1359 1600 l 1,62,-1
150 786 m 1,66,67
 147 735 147 735 161 695 c 1,68,-1
 0 535 l 1,69,-1
 0 638 l 1,70,-1
 150 786 l 1,66,67
1141 1676 m 1,71,72
 1131 1702 1131 1702 1106 1743 c 1,73,-1
 1411 2048 l 1,74,-1
 1511 2048 l 1,75,-1
 1141 1676 l 1,71,72
1787 1147 m 1,76,-1
 1741 1204 l 1,77,-1
 2049 1512 l 1,78,-1
 2049 1410 l 1,79,-1
 1787 1147 l 1,76,-1
443 199 m 1,80,81
 430 160 430 160 430 125 c 0,82,83
 430 105 430 105 434 87 c 1,84,-1
 345 0 l 1,85,-1
 243 0 l 1,86,-1
 443 199 l 1,80,81
1667 1322 m 1,87,-1
 1628 1343 l 1,88,-1
 1651 1408 l 1,89,-1
 2049 1808 l 1,90,-1
 2049 1705 l 1,91,-1
 1667 1322 l 1,87,-1
2049 49 m 1,92,-1
 2049 0 l 1,93,-1
 2002 0 l 1,94,-1
 2049 49 l 1,92,-1
1875 941 m 1,95,-1
 1829 999 l 1,96,-1
 2049 1220 l 1,97,-1
 2049 1116 l 1,98,-1
 1875 941 l 1,95,-1
1948 720 m 1,99,-1
 1908 783 l 1,100,-1
 2049 925 l 1,101,-1
 2049 823 l 1,102,-1
 1948 720 l 1,99,-1
1933 412 m 1,103,-1
 1899 482 l 1,104,-1
 2049 631 l 1,105,-1
 2049 529 l 1,106,-1
 1933 412 l 1,103,-1
1882 68 m 1,107,-1
 1814 0 l 1,108,-1
 1711 0 l 1,109,-1
 1779 68 l 1,110,-1
 1882 68 l 1,107,-1
1915 101 m 1,111,-1
 1884 172 l 1,112,-1
 2049 339 l 1,113,-1
 2049 237 l 1,114,-1
 1915 101 l 1,111,-1
825 1586 m 1,115,-1
 812 1624 l 2,116,117
 799 1658 799 1658 782 1695 c 1,118,119
 770 1647 770 1647 766 1619 c 0,120,121
 763 1603 763 1603 758 1568 c 1,122,123
 790 1581 790 1581 821 1586 c 0,124,125
 824 1586 824 1586 825 1586 c 1,115,-1
477 980 m 0,126,127
 491 961 491 961 479 947 c 0,128,129
 446 912 446 912 400 846 c 1,130,131
 391 826 391 826 378 838 c 0,132,133
 371 843 371 843 371 854 c 0,134,135
 371 877 371 877 405 925 c 0,136,137
 459 1003 459 1003 477 980 c 0,126,127
801 1284 m 1,138,139
 843 1325 843 1325 831 1347 c 0,140,141
 822 1362 822 1362 784 1356 c 0,142,143
 692 1339 692 1339 632 1268 c 0,144,145
 607 1238 607 1238 617 1222 c 0,146,147
 629 1200 629 1200 688 1218 c 1,148,149
 720 1182 720 1182 767 1210 c 0,150,151
 814 1237 814 1237 801 1284 c 1,138,139
1040 858 m 1,152,153
 999 838 999 838 967 835 c 0,154,155
 880 826 880 826 804 856 c 1,156,157
 728 775 728 775 655 749 c 1,158,159
 639 710 639 710 615 677 c 0,160,161
 574 618 574 618 516 580 c 0,162,163
 439 529 439 529 390 564 c 0,164,165
 366 580 366 580 360 598 c 1,166,167
 352 598 352 598 328 605 c 0,168,169
 251 625 251 625 223 709 c 0,170,171
 198 783 198 783 219 863 c 0,172,173
 243 952 243 952 310 1003 c 0,174,175
 425 1112 425 1112 497 1258 c 0,176,177
 584 1436 584 1436 688 1524 c 1,178,179
 685 1571 685 1571 696 1632 c 0,180,181
 717 1756 717 1756 772 1825 c 1,182,183
 837 1764 837 1764 879 1648 c 0,184,185
 883 1636 883 1636 891 1611 c 1,186,187
 893 1608 893 1608 895 1608 c 256,188,189
 897 1608 897 1608 900 1611 c 1,190,191
 922 1736 922 1736 977 1805 c 1,192,193
 1041 1741 1041 1741 1083 1627 c 1,194,195
 1084 1621 1084 1621 1100 1611 c 1,196,-1
 1250 1604 l 1,197,-1
 1314 1540 l 1,198,-1
 1445 1506 l 1,199,-1
 1443 1444 l 1,200,-1
 1581 1388 l 1,201,-1
 1554 1310 l 1,202,-1
 1702 1232 l 1,203,-1
 1645 1200 l 1,204,-1
 1749 1067 l 1,205,-1
 1694 1053 l 1,206,-1
 1818 894 l 1,207,-1
 1749 896 l 1,208,-1
 1854 730 l 1,209,-1
 1778 751 l 1,210,-1
 1838 592 l 1,211,-1
 1771 591 l 1,212,-1
 1854 416 l 1,213,-1
 1785 407 l 1,214,-1
 1845 262 l 1,215,-1
 1788 243 l 1,216,-1
 1833 137 l 1,217,-1
 500 137 l 1,218,219
 498 147 498 147 498 157 c 0,220,221
 498 278 498 278 638 414 c 0,222,223
 646 422 646 422 780 540 c 0,224,225
 899 645 899 645 903 649 c 0,226,227
 984 724 984 724 1008 769 c 128,-1,228
 1032 814 1032 814 1041 857 c 1,229,230
 1065 847 1065 847 1101 843 c 1,231,232
 1065 721 1065 721 988 646 c 0,233,234
 907 575 907 575 745 433 c 0,235,236
 612 316 612 316 582 205 c 1,237,-1
 1717 205 l 1,238,239
 1723 289 1723 289 1723 447 c 0,240,241
 1723 927 1723 927 1576 1184 c 1,242,243
 1541 1277 1541 1277 1430 1382 c 0,244,245
 1326 1482 1326 1482 1227 1526 c 0,246,247
 1158 1557 1158 1557 1096 1557 c 0,248,249
 1065 1557 1065 1557 1037 1550 c 1,250,251
 1030 1564 1030 1564 1016 1603 c 0,252,253
 1004 1637 1004 1637 987 1675 c 1,254,255
 963 1581 963 1581 962 1523 c 1,256,257
 888 1510 888 1510 862 1445 c 1,258,259
 854 1432 854 1432 843 1424 c 0,260,261
 805 1398 805 1398 791 1420 c 0,262,263
 787 1426 787 1426 789 1439 c 0,264,265
 795 1470 795 1470 831 1518 c 1,266,267
 776 1506 776 1506 754 1490 c 0,268,269
 644 1405 644 1405 560 1233.5 c 128,-1,270
 476 1062 476 1062 347 944 c 0,271,272
 302 903 302 903 286 845 c 0,273,274
 272 793 272 793 283 743 c 0,275,276
 297 682 297 682 345 670 c 1,277,278
 380 756 380 756 442 814 c 0,279,280
 456 829 456 829 480 831 c 0,281,282
 504 832 504 832 512 827 c 0,283,284
 519 822 519 822 512 810 c 0,285,286
 491 782 491 782 468 745 c 0,287,288
 444 716 444 716 431 691 c 0,289,290
 427 685 427 685 420 670 c 0,291,292
 409 637 409 637 427 621 c 0,293,294
 447 602 447 602 498 650 c 0,295,296
 532 682 532 682 557 717 c 0,297,298
 584 756 584 756 597 791 c 1,299,300
 699 836 699 836 772 902 c 1,301,302
 763 928 763 928 760 951 c 0,303,304
 751 1003 751 1003 784 1009 c 0,305,306
 815 1014 815 1014 826 963 c 0,307,308
 830 947 830 947 838 916 c 1,309,310
 883 902 883 902 922 902 c 0,311,312
 1044 902 1044 902 1131 1000 c 0,313,314
 1213 1091 1213 1091 1224 1217 c 0,315,316
 1225 1229 1225 1229 1226 1238 c 0,317,318
 1226 1290 1226 1290 1259 1290 c 0,319,320
 1291 1290 1291 1290 1293 1237 c 0,321,322
 1293 1228 1293 1228 1292 1212 c 0,323,324
 1280 1059 1280 1059 1173 947 c 1,325,326
 1288 1010 1288 1010 1334 1140 c 0,327,328
 1341 1160 1341 1160 1340 1160 c 1,329,330
 1354 1209 1354 1209 1386 1201 c 0,331,332
 1417 1193 1417 1193 1404 1142 c 0,333,334
 1367 990 1367 990 1225 898 c 1,335,336
 1358 907 1358 907 1402 1000 c 1,337,338
 1402 998 1402 998 1407 1011 c 0,339,340
 1427 1062 1427 1062 1455 1051 c 0,341,342
 1481 1040 1481 1040 1471 986 c 1,343,344
 1466 974 1466 974 1465 970 c 0,345,346
 1424 884 1424 884 1308 853 c 0,347,348
 1216 828 1216 828 1105 843 c 0,349,350
 1063 848 1063 848 1040 858 c 1,152,153
EndSplineSet
EndChar
StartChar: O
Encoding: 79 79 15
Width: 2048
Flags: W
Fore
1024 707 m 0,0,1
 1105 707 1105 707 1154 718 c 0,2,3
 1187 726 1187 726 1183 755 c 0,4,5
 1179 781 1179 781 1145 783 c 1,6,7
 1107 773 1107 773 1024 773 c 0,8,9
 940 773 940 773 903 783 c 1,10,11
 869 782 869 782 866 755 c 0,12,13
 861 726 861 726 894 718 c 0,14,15
 941 707 941 707 1024 707 c 0,0,1
1024 1506 m 0,16,17
 1049 1506 1049 1506 1068 1512 c 0,18,19
 1098 1519 1098 1519 1092 1551 c 0,20,21
 1086 1584 1086 1584 1056 1579 c 1,22,23
 1040 1573 1040 1573 1024 1573 c 256,24,25
 1008 1573 1008 1573 992 1579 c 1,26,27
 961 1584 961 1584 956 1551 c 0,28,29
 950 1518 950 1518 980 1512 c 0,30,31
 1000 1505 1000 1505 1024 1506 c 0,16,17
1138 1552 m 1,32,33
 1205 1449 1205 1449 1300 1366 c 0,34,35
 1320 1348 1320 1348 1314 1331 c 0,36,37
 1308 1313 1308 1313 1280 1313 c 2,38,-1
 1190 1313 l 1,39,40
 1207 1258 1207 1258 1247 1222 c 0,41,42
 1351 1127 1351 1127 1351 993 c 0,43,44
 1351 849 1351 849 1239 757 c 1,45,46
 1283 706 1283 706 1338 672 c 0,47,48
 1472 601 1472 601 1551 471.5 c 128,-1,49
 1630 342 1630 342 1630 190 c 0,50,51
 1630 169 1630 169 1626 137 c 1,52,-1
 422 137 l 1,53,54
 418 180 418 180 418 190 c 0,55,56
 418 342 418 342 496.5 471.5 c 128,-1,57
 575 601 575 601 710 672 c 0,58,59
 764 706 764 706 809 757 c 1,60,61
 697 848 697 848 697 993 c 0,62,63
 697 1127 697 1127 801 1222 c 0,64,65
 839 1258 839 1258 858 1313 c 1,66,-1
 768 1313 l 2,67,68
 740 1313 740 1313 734 1331 c 0,69,70
 727 1348 727 1348 748 1366 c 0,71,72
 843 1450 843 1450 910 1552 c 1,73,74
 862 1600 862 1600 862 1667 c 256,75,76
 862 1734 862 1734 909.5 1781.5 c 128,-1,77
 957 1829 957 1829 1024 1829 c 256,78,79
 1091 1829 1091 1829 1138.5 1781.5 c 128,-1,80
 1186 1734 1186 1734 1186 1667 c 0,81,82
 1186 1602 1186 1602 1138 1552 c 1,32,33
959 1347 m 2,83,84
 925 1347 925 1347 925 1312 c 1,85,-1
 925 1312 l 1,86,87
 925 1278 925 1278 959 1278 c 2,88,-1
 1089 1278 l 2,89,90
 1123 1278 1123 1278 1124 1312 c 1,91,-1
 1124 1312 l 1,92,93
 1124 1347 1124 1347 1089 1347 c 2,94,-1
 959 1347 l 2,83,84
1385 1332 m 1,95,96
 1385 1347 1385 1347 1369 1364 c 1,97,98
 1360 1371 1360 1371 1340 1389 c 1,99,-1
 1998 2048 l 1,100,-1
 2049 2048 l 1,101,-1
 2049 1996 l 1,102,-1
 1385 1332 l 1,95,96
433 482 m 1,103,104
 389 403 389 403 372 320 c 1,105,-1
 51 0 l 1,106,-1
 0 0 l 1,107,-1
 0 51 l 1,108,-1
 433 482 l 1,103,104
338 2048 m 1,109,-1
 0 1710 l 1,110,-1
 0 1813 l 1,111,-1
 238 2048 l 1,112,-1
 338 2048 l 1,109,-1
530 2048 m 1,113,-1
 632 2048 l 1,114,-1
 0 1417 l 1,115,-1
 0 1519 l 1,116,-1
 530 2048 l 1,113,-1
926 2048 m 1,117,-1
 0 1123 l 1,118,-1
 0 1225 l 1,119,-1
 824 2048 l 1,120,-1
 926 2048 l 1,117,-1
50 2048 m 1,121,-1
 0 2001 l 1,122,-1
 0 2048 l 1,123,-1
 50 2048 l 1,121,-1
1249 1488 m 1,124,125
 1230 1510 1230 1510 1204 1547 c 1,126,-1
 1705 2048 l 1,127,-1
 1807 2048 l 1,128,-1
 1249 1488 l 1,124,125
625 968 m 1,129,-1
 0 344 l 1,130,-1
 0 242 l 1,131,-1
 642 883 l 1,132,133
 627 927 627 927 625 968 c 1,129,-1
645 1283 m 1,134,-1
 0 638 l 1,135,-1
 0 535 l 1,136,-1
 729 1264 l 1,137,-1
 681 1265 l 2,138,139
 649 1265 649 1265 645 1283 c 1,134,-1
1365 725 m 1,140,141
 1350 734 1350 734 1325 754 c 1,142,143
 1370 801 1370 801 1397 861 c 1,144,-1
 2049 1512 l 1,145,-1
 2049 1410 l 1,146,-1
 1365 725 l 1,140,141
707 67 m 1,147,-1
 639 0 l 1,148,-1
 536 0 l 1,149,-1
 605 68 l 1,150,-1
 707 67 l 1,147,-1
1415 1071 m 1,151,152
 1405 1112 1405 1112 1388 1146 c 1,153,-1
 2049 1808 l 1,154,-1
 2049 1705 l 1,155,-1
 1415 1071 l 1,151,152
414 68 m 1,156,-1
 345 0 l 1,157,-1
 243 0 l 1,158,-1
 359 115 l 1,159,160
 359 93 359 93 362 68 c 1,161,-1
 414 68 l 1,156,-1
2049 49 m 1,162,-1
 2049 0 l 1,163,-1
 2002 0 l 1,164,-1
 2049 49 l 1,162,-1
1532 598 m 1,165,166
 1505 626 1505 626 1479 648 c 1,167,-1
 2049 1220 l 1,168,-1
 2049 1116 l 1,169,-1
 1532 598 l 1,165,166
1002 68 m 1,170,-1
 933 0 l 1,171,-1
 830 0 l 1,172,-1
 899 67 l 1,173,-1
 1002 68 l 1,170,-1
1296 68 m 1,174,-1
 1228 0 l 1,175,-1
 1124 0 l 1,176,-1
 1192 68 l 1,177,-1
 1296 68 l 1,174,-1
1646 417 m 1,178,179
 1630 455 1630 455 1612 488 c 1,180,-1
 2049 925 l 1,181,-1
 2049 823 l 1,182,-1
 1646 417 l 1,178,179
1690 169 m 1,183,184
 1690 191 1690 191 1690 193 c 0,185,186
 1690 229 1690 229 1686 267 c 1,187,-1
 2049 631 l 1,188,-1
 2049 529 l 1,189,-1
 1690 169 l 1,183,184
1588 67 m 1,190,-1
 1520 0 l 1,191,-1
 1417 0 l 1,192,-1
 1487 68 l 1,193,-1
 1588 67 l 1,190,-1
2049 339 m 1,194,-1
 2049 237 l 1,195,-1
 1814 0 l 1,196,-1
 1711 0 l 1,197,-1
 2049 339 l 1,194,-1
1065 1892 m 1,198,199
 1045 1896 1045 1896 1024 1896 c 0,200,201
 988 1896 988 1896 953 1884 c 1,202,-1
 1117 2048 l 1,203,-1
 1221 2048 l 1,204,-1
 1065 1892 l 1,198,199
1230 1766 m 1,205,206
 1214 1799 1214 1799 1189 1826 c 1,207,-1
 1411 2048 l 1,208,-1
 1511 2048 l 1,209,-1
 1230 1766 l 1,205,206
806 1736 m 1,210,211
 795 1700 795 1700 795 1667 c 0,212,213
 795 1646 795 1646 799 1626 c 1,214,-1
 0 829 l 1,215,-1
 0 932 l 1,216,-1
 806 1736 l 1,210,211
EndSplineSet
EndChar
StartChar: P
Encoding: 80 80 16
Width: 2048
Flags: W
Fore
1561 205 m 1,0,1
 1556 337 1556 337 1487 444 c 0,2,3
 1443 513 1443 513 1337 590 c 0,4,5
 1219 676 1219 676 1178 724 c 1,6,7
 1112 707 1112 707 1024 707 c 0,8,9
 935 707 935 707 870 724 c 1,10,11
 829 676 829 676 710 590 c 0,12,13
 605 513 605 513 560 444 c 0,14,15
 490 337 490 337 487 205 c 1,16,-1
 1561 205 l 1,0,1
1025 773 m 0,17,18
 1123 773 1123 773 1174 792 c 1,19,20
 1284 862 1284 862 1284 993 c 0,21,22
 1284 1096 1284 1096 1205 1170 c 0,23,24
 1141 1228 1141 1228 1121 1313 c 1,25,-1
 927 1313 l 1,26,27
 906 1228 906 1228 843 1170 c 0,28,29
 765 1097 765 1097 765 993 c 0,30,31
 765 862 765 862 875 792 c 1,32,33
 924 773 924 773 1025 773 c 0,17,18
1082 1516 m 1,34,35
 1055 1505 1055 1505 1024 1505 c 0,36,37
 997 1505 997 1505 968 1515 c 1,38,39
 914 1439 914 1439 861 1383 c 1,40,-1
 1187 1383 l 1,41,42
 1127 1444 1127 1444 1082 1516 c 1,34,35
1138 1552 m 1,43,44
 1205 1449 1205 1449 1300 1366 c 0,45,46
 1320 1348 1320 1348 1314 1331 c 0,47,48
 1308 1313 1308 1313 1280 1313 c 2,49,-1
 1190 1313 l 1,50,51
 1207 1258 1207 1258 1247 1222 c 0,52,53
 1351 1127 1351 1127 1351 993 c 0,54,55
 1351 849 1351 849 1239 757 c 1,56,57
 1283 706 1283 706 1338 672 c 0,58,59
 1472 601 1472 601 1551 471.5 c 128,-1,60
 1630 342 1630 342 1630 190 c 0,61,62
 1630 169 1630 169 1626 137 c 1,63,-1
 422 137 l 1,64,65
 418 180 418 180 418 190 c 0,66,67
 418 342 418 342 496.5 471.5 c 128,-1,68
 575 601 575 601 710 672 c 0,69,70
 764 706 764 706 809 757 c 1,71,72
 697 848 697 848 697 993 c 0,73,74
 697 1127 697 1127 801 1222 c 0,75,76
 839 1258 839 1258 858 1313 c 1,77,-1
 768 1313 l 2,78,79
 740 1313 740 1313 734 1331 c 0,80,81
 727 1348 727 1348 748 1366 c 0,82,83
 843 1450 843 1450 910 1552 c 1,84,85
 862 1600 862 1600 862 1667 c 256,86,87
 862 1734 862 1734 909.5 1781.5 c 128,-1,88
 957 1829 957 1829 1024 1829 c 256,89,90
 1091 1829 1091 1829 1138.5 1781.5 c 128,-1,91
 1186 1734 1186 1734 1186 1667 c 0,92,93
 1186 1602 1186 1602 1138 1552 c 1,43,44
1024 1573 m 256,94,95
 1118 1573 1118 1573 1118 1667 c 0,96,97
 1118 1762 1118 1762 1024 1762 c 256,98,99
 930 1762 930 1762 930 1667 c 0,100,101
 930 1573 930 1573 1024 1573 c 256,94,95
806 1736 m 1,102,103
 795 1700 795 1700 795 1667 c 0,104,105
 795 1646 795 1646 799 1626 c 1,106,-1
 0 829 l 1,107,-1
 0 932 l 1,108,-1
 806 1736 l 1,102,103
1230 1766 m 1,109,110
 1214 1799 1214 1799 1189 1826 c 1,111,-1
 1411 2048 l 1,112,-1
 1511 2048 l 1,113,-1
 1230 1766 l 1,109,110
1065 1892 m 1,114,115
 1045 1896 1045 1896 1024 1896 c 0,116,117
 988 1896 988 1896 953 1884 c 1,118,-1
 1117 2048 l 1,119,-1
 1221 2048 l 1,120,-1
 1065 1892 l 1,114,115
2049 339 m 1,121,-1
 2049 237 l 1,122,-1
 1814 0 l 1,123,-1
 1711 0 l 1,124,-1
 2049 339 l 1,121,-1
1588 67 m 1,125,-1
 1520 0 l 1,126,-1
 1417 0 l 1,127,-1
 1487 68 l 1,128,-1
 1588 67 l 1,125,-1
1690 169 m 1,129,130
 1690 191 1690 191 1690 193 c 0,131,132
 1690 229 1690 229 1686 267 c 1,133,-1
 2049 631 l 1,134,-1
 2049 529 l 1,135,-1
 1690 169 l 1,129,130
1646 417 m 1,136,137
 1630 455 1630 455 1612 488 c 1,138,-1
 2049 925 l 1,139,-1
 2049 823 l 1,140,-1
 1646 417 l 1,136,137
1296 68 m 1,141,-1
 1228 0 l 1,142,-1
 1124 0 l 1,143,-1
 1192 68 l 1,144,-1
 1296 68 l 1,141,-1
1002 68 m 1,145,-1
 933 0 l 1,146,-1
 830 0 l 1,147,-1
 899 67 l 1,148,-1
 1002 68 l 1,145,-1
1532 598 m 1,149,150
 1505 626 1505 626 1479 648 c 1,151,-1
 2049 1220 l 1,152,-1
 2049 1116 l 1,153,-1
 1532 598 l 1,149,150
2049 49 m 1,154,-1
 2049 0 l 1,155,-1
 2002 0 l 1,156,-1
 2049 49 l 1,154,-1
414 68 m 1,157,-1
 345 0 l 1,158,-1
 243 0 l 1,159,-1
 359 115 l 1,160,161
 359 93 359 93 362 68 c 1,162,-1
 414 68 l 1,157,-1
1415 1071 m 1,163,164
 1405 1112 1405 1112 1388 1146 c 1,165,-1
 2049 1808 l 1,166,-1
 2049 1705 l 1,167,-1
 1415 1071 l 1,163,164
707 67 m 1,168,-1
 639 0 l 1,169,-1
 536 0 l 1,170,-1
 605 68 l 1,171,-1
 707 67 l 1,168,-1
1365 725 m 1,172,173
 1350 734 1350 734 1325 754 c 1,174,175
 1370 801 1370 801 1397 861 c 1,176,-1
 2049 1512 l 1,177,-1
 2049 1410 l 1,178,-1
 1365 725 l 1,172,173
645 1283 m 1,179,-1
 0 638 l 1,180,-1
 0 535 l 1,181,-1
 729 1264 l 1,182,-1
 681 1265 l 2,183,184
 649 1265 649 1265 645 1283 c 1,179,-1
625 968 m 1,185,-1
 0 344 l 1,186,-1
 0 242 l 1,187,-1
 642 883 l 1,188,189
 627 927 627 927 625 968 c 1,185,-1
1249 1488 m 1,190,191
 1230 1510 1230 1510 1204 1547 c 1,192,-1
 1705 2048 l 1,193,-1
 1807 2048 l 1,194,-1
 1249 1488 l 1,190,191
50 2048 m 1,195,-1
 0 2001 l 1,196,-1
 0 2048 l 1,197,-1
 50 2048 l 1,195,-1
926 2048 m 1,198,-1
 0 1123 l 1,199,-1
 0 1225 l 1,200,-1
 824 2048 l 1,201,-1
 926 2048 l 1,198,-1
530 2048 m 1,202,-1
 632 2048 l 1,203,-1
 0 1417 l 1,204,-1
 0 1519 l 1,205,-1
 530 2048 l 1,202,-1
338 2048 m 1,206,-1
 0 1710 l 1,207,-1
 0 1813 l 1,208,-1
 238 2048 l 1,209,-1
 338 2048 l 1,206,-1
433 482 m 1,210,211
 389 403 389 403 372 320 c 1,212,-1
 51 0 l 1,213,-1
 0 0 l 1,214,-1
 0 51 l 1,215,-1
 433 482 l 1,210,211
1385 1332 m 1,216,217
 1385 1347 1385 1347 1369 1364 c 1,218,219
 1360 1371 1360 1371 1340 1389 c 1,220,-1
 1998 2048 l 1,221,-1
 2049 2048 l 1,222,-1
 2049 1996 l 1,223,-1
 1385 1332 l 1,216,217
EndSplineSet
EndChar
StartChar: Q
Encoding: 81 81 17
Width: 2048
Flags: W
Fore
266 1199 m 256,0,1
 300 1199 300 1199 300 1233 c 256,2,3
 300 1267 300 1267 266 1267 c 256,4,5
 232 1267 232 1267 232 1233 c 256,6,7
 232 1199 232 1199 266 1199 c 256,0,1
266 1131 m 256,8,9
 164 1131 164 1131 164 1233 c 256,10,11
 164 1335 164 1335 266 1335 c 256,12,13
 368 1335 368 1335 368 1233 c 256,14,15
 368 1131 368 1131 266 1131 c 256,8,9
1782 1199 m 256,16,17
 1816 1199 1816 1199 1816 1233 c 256,18,19
 1816 1267 1816 1267 1782 1267 c 256,20,21
 1748 1267 1748 1267 1748 1233 c 256,22,23
 1748 1199 1748 1199 1782 1199 c 256,16,17
1782 1131 m 256,24,25
 1680 1131 1680 1131 1680 1233 c 256,26,27
 1680 1335 1680 1335 1782 1335 c 256,28,29
 1884 1335 1884 1335 1884 1233 c 256,30,31
 1884 1131 1884 1131 1782 1131 c 256,24,25
1413 1359 m 256,32,33
 1447 1359 1447 1359 1447 1393 c 256,34,35
 1447 1427 1447 1427 1413 1427 c 256,36,37
 1379 1427 1379 1427 1379 1393 c 256,38,39
 1379 1359 1379 1359 1413 1359 c 256,32,33
1413 1291 m 256,40,41
 1311 1291 1311 1291 1311 1393 c 0,42,43
 1311 1494 1311 1494 1413 1494 c 256,44,45
 1515 1494 1515 1494 1515 1393 c 0,46,47
 1515 1291 1515 1291 1413 1291 c 256,40,41
1551 357 m 1,48,49
 1546 416 1546 416 1546 477 c 0,50,51
 1546 567 1546 567 1554 658 c 0,52,53
 1553 700 1553 700 1316 721 c 0,54,55
 1163 735 1163 735 1024 735 c 0,56,57
 878 735 878 735 720 720 c 0,58,59
 492 698 492 698 494 658 c 0,60,61
 502 531 502 531 502 477 c 0,62,63
 502 426 502 426 498 357 c 1,64,65
 677 427 677 427 1024 427 c 0,66,67
 1367 427 1367 427 1551 357 c 1,48,49
1024 138 m 1,68,-1
 1024 205 l 1,69,70
 1170 205 1170 205 1328 219 c 0,71,72
 1570 240 1570 240 1570 282 c 256,73,74
 1570 324 1570 324 1329 345 c 0,75,76
 1170 359 1170 359 1024 359 c 0,77,78
 877 359 877 359 719 345 c 0,79,80
 478 324 478 324 478 282 c 256,81,82
 478 240 478 240 720 219 c 0,83,84
 877 205 877 205 1024 205 c 1,85,-1
 1024 138 l 1,86,87
 862 138 862 138 686 163 c 0,88,89
 409 202 409 202 409 282 c 0,90,91
 409 298 409 298 427 316 c 1,92,93
 434 382 434 382 434 477 c 0,94,95
 434 645 434 645 417 769 c 1,96,97
 411 786 411 786 404 804 c 2,98,-1
 391 841 l 2,99,100
 336 991 336 991 266 1131 c 1,101,102
 334 1131 334 1131 360 1195 c 1,103,104
 412 1132 412 1132 488 1023 c 1,105,106
 543 905 543 905 580 911 c 0,107,108
 612 916 612 916 623 1022 c 0,109,110
 627 1068 627 1068 627 1124 c 0,111,112
 627 1198 627 1198 620 1292 c 1,113,114
 629 1291 629 1291 635 1291 c 0,115,116
 671 1291 671 1291 701 1315 c 1,117,118
 772 1067 772 1067 838 951 c 1,119,120
 860 954 860 954 874 954 c 1,121,122
 940 1038 940 1038 978 1463 c 2,123,-1
 980 1495 l 2,124,125
 982 1511 982 1511 984 1526 c 1,126,127
 1003 1517 1003 1517 1024 1517 c 0,128,129
 1044 1517 1044 1517 1064 1526 c 1,130,-1
 1070 1463 l 2,131,132
 1106 1038 1106 1038 1174 954 c 1,133,134
 1187 954 1187 954 1210 951 c 1,135,136
 1274 1066 1274 1066 1348 1314 c 1,137,138
 1376 1291 1376 1291 1413 1291 c 0,139,140
 1418 1291 1418 1291 1428 1292 c 1,141,142
 1420 1197 1420 1197 1420 1122 c 0,143,144
 1420 1067 1420 1067 1424 1022 c 0,145,146
 1435 916 1435 916 1468 911 c 0,147,148
 1504 905 1504 905 1560 1023 c 0,149,150
 1607 1097 1607 1097 1688 1195 c 1,151,152
 1713 1131 1713 1131 1782 1131 c 1,153,154
 1714 998 1714 998 1657 841 c 2,155,-1
 1631 769 l 1,156,157
 1614 639 1614 639 1614 477 c 0,158,159
 1614 386 1614 386 1620 316 c 1,160,161
 1639 300 1639 300 1639 282 c 0,162,163
 1639 202 1639 202 1362 163 c 0,164,165
 1186 138 1186 138 1024 138 c 1,68,-1
1265 946 m 1,166,167
 1325 941 1325 941 1389 929 c 1,168,169
 1364 1010 1364 1010 1361 1146 c 1,170,171
 1312 1021 1312 1021 1265 946 c 1,166,167
1694 1102 m 1,172,173
 1619 1011 1619 1011 1591 966 c 0,174,175
 1573 937 1573 937 1539 888 c 1,176,177
 1557 878 1557 878 1594 861 c 1,178,179
 1635 983 1635 983 1694 1102 c 1,172,173
1024 959 m 256,180,181
 1069 959 1069 959 1114 958 c 1,182,183
 1058 1072 1058 1072 1024 1281 c 1,184,185
 988 1071 988 1071 934 958 c 1,186,187
 979 959 979 959 1024 959 c 256,180,181
783 946 m 1,188,189
 735 1021 735 1021 687 1146 c 1,190,191
 683 1011 683 1011 660 929 c 1,192,193
 721 940 721 940 783 946 c 1,188,189
1024 803 m 0,194,195
 1399 803 1399 803 1561 720 c 1,196,197
 1565 749 1565 749 1570 808 c 1,198,199
 1558 828 1558 828 1495 845 c 1,200,201
 1475 832 1475 832 1456 836 c 0,202,203
 1437 839 1437 839 1421 860 c 1,204,205
 1337 876 1337 876 1220 885 c 1,206,207
 1210 876 1210 876 1199 875 c 0,208,209
 1181 874 1181 874 1164 888 c 1,210,211
 1096 891 1096 891 1024 891 c 256,212,213
 952 891 952 891 884 888 c 1,214,215
 867 874 867 874 850 875 c 0,216,217
 837 876 837 876 828 885 c 1,218,219
 710 876 710 876 628 860 c 1,220,221
 611 839 611 839 592 836 c 0,222,223
 572 832 572 832 553 845 c 1,224,225
 489 828 489 828 478 808 c 1,226,227
 479 786 479 786 487 720 c 1,228,229
 648 803 648 803 1024 803 c 0,194,195
354 1102 m 1,230,231
 411 983 411 983 454 861 c 1,232,233
 472 870 472 870 509 888 c 1,234,235
 483 918 483 918 457 966 c 0,236,237
 415 1026 415 1026 354 1102 c 1,230,231
635 1359 m 256,238,239
 669 1359 669 1359 669 1393 c 256,240,241
 669 1427 669 1427 635 1427 c 256,242,243
 601 1427 601 1427 601 1393 c 256,244,245
 601 1359 601 1359 635 1359 c 256,238,239
635 1291 m 256,246,247
 533 1291 533 1291 533 1393 c 0,248,249
 533 1494 533 1494 635 1494 c 256,250,251
 737 1494 737 1494 737 1393 c 0,252,253
 737 1291 737 1291 635 1291 c 256,246,247
1024 1517 m 256,254,255
 922 1517 922 1517 922 1619 c 256,256,257
 922 1721 922 1721 1024 1721 c 256,258,259
 1126 1721 1126 1721 1126 1619 c 256,260,261
 1126 1517 1126 1517 1024 1517 c 256,254,255
1024 1585 m 256,262,263
 1058 1585 1058 1585 1058 1619 c 256,264,265
 1058 1653 1058 1653 1024 1653 c 256,266,267
 990 1653 990 1653 990 1619 c 256,268,269
 990 1585 990 1585 1024 1585 c 256,262,263
884 1521 m 1,270,271
 905 1490 905 1490 937 1472 c 1,272,-1
 792 1328 l 1,273,274
 806 1358 806 1358 806 1393 c 0,275,276
 806 1412 806 1412 800 1437 c 1,277,-1
 884 1521 l 1,270,271
1170 1707 m 1,278,279
 1150 1737 1150 1737 1122 1758 c 1,280,-1
 1411 2048 l 1,281,-1
 1511 2048 l 1,282,-1
 1170 1707 l 1,278,279
2049 339 m 1,283,-1
 2049 237 l 1,284,-1
 1814 0 l 1,285,-1
 1711 0 l 1,286,-1
 2049 339 l 1,283,-1
1545 126 m 1,287,288
 1663 159 1663 159 1704 237 c 0,289,290
 1714 255 1714 255 1714 273 c 0,291,292
 1714 284 1714 284 1708 291 c 1,293,-1
 2049 631 l 1,294,-1
 2049 529 l 1,295,-1
 1520 0 l 1,296,-1
 1417 0 l 1,297,-1
 1545 126 l 1,287,288
1673 445 m 1,298,299
 1673 493 1673 493 1676 552 c 1,300,-1
 2049 925 l 1,301,-1
 2049 823 l 1,302,-1
 1673 445 l 1,298,299
1197 73 m 1,303,304
 1262 77 1262 77 1312 84 c 1,305,-1
 1228 0 l 1,306,-1
 1124 0 l 1,307,-1
 1197 73 l 1,303,304
902 71 m 1,308,309
 950 68 950 68 1001 68 c 1,310,-1
 933 0 l 1,311,-1
 830 0 l 1,312,-1
 902 71 l 1,308,309
1695 761 m 1,313,314
 1714 817 1714 817 1757 928 c 1,315,-1
 2049 1220 l 1,316,-1
 2049 1116 l 1,317,-1
 1695 761 l 1,313,314
2049 49 m 1,318,-1
 2049 0 l 1,319,-1
 2002 0 l 1,320,-1
 2049 49 l 1,318,-1
405 163 m 1,321,322
 434 147 434 147 478 133 c 1,323,-1
 345 0 l 1,324,-1
 243 0 l 1,325,-1
 405 163 l 1,321,322
1739 1394 m 1,326,327
 1642 1370 1642 1370 1617 1273 c 1,328,-1
 1478 1133 l 1,329,330
 1479 1191 1479 1191 1486 1245 c 1,331,-1
 2049 1808 l 1,332,-1
 2049 1705 l 1,333,-1
 1739 1394 l 1,326,327
634 97 m 1,334,335
 680 89 680 89 724 84 c 1,336,-1
 639 0 l 1,337,-1
 536 0 l 1,338,-1
 634 97 l 1,334,335
1938 1297 m 1,339,340
 1922 1332 1922 1332 1894 1357 c 1,341,-1
 2049 1512 l 1,342,-1
 2049 1410 l 1,343,-1
 1938 1297 l 1,339,340
567 1204 m 1,344,345
 571 1139 571 1139 571 1107 c 1,346,-1
 511 1046 l 1,347,348
 491 1072 491 1072 469 1105 c 1,349,-1
 567 1204 l 1,344,345
291 929 m 1,350,351
 306 891 306 891 320 854 c 1,352,-1
 0 535 l 1,353,-1
 0 638 l 1,354,-1
 291 929 l 1,350,351
363 706 m 1,355,356
 367 661 367 661 370 613 c 1,357,-1
 0 242 l 1,358,-1
 0 344 l 1,359,-1
 363 706 l 1,355,356
910 1255 m 1,360,361
 898 1186 898 1186 884 1125 c 1,362,-1
 836 1077 l 1,363,364
 819 1112 819 1112 805 1149 c 1,365,-1
 910 1255 l 1,360,361
1125 1366 m 1,366,367
 1119 1413 1119 1413 1118 1461 c 1,368,-1
 1705 2048 l 1,369,-1
 1807 2048 l 1,370,-1
 1125 1366 l 1,366,367
50 2048 m 1,371,-1
 0 2001 l 1,372,-1
 0 2048 l 1,373,-1
 50 2048 l 1,371,-1
465 1395 m 1,374,375
 463 1349 463 1349 485 1313 c 1,376,-1
 433 1261 l 1,377,378
 426 1299 426 1299 402 1332 c 1,379,-1
 465 1395 l 1,374,375
163 1094 m 1,380,381
 196 1069 196 1069 234 1062 c 1,382,-1
 0 829 l 1,383,-1
 0 932 l 1,384,-1
 163 1094 l 1,380,381
716 1543 m 1,385,-1
 1221 2048 l 1,386,-1
 1117 2048 l 1,387,-1
 634 1564 l 1,388,389
 678 1564 678 1564 716 1543 c 1,385,-1
277 1399 m 1,390,391
 272 1400 272 1400 266 1400 c 0,392,393
 195 1400 195 1400 145.5 1350 c 128,-1,394
 96 1300 96 1300 96 1229 c 0,395,396
 96 1226 96 1226 97 1220 c 1,397,-1
 0 1123 l 1,398,-1
 0 1225 l 1,399,-1
 824 2048 l 1,400,-1
 926 2048 l 1,401,-1
 277 1399 l 1,390,391
530 2048 m 1,402,-1
 632 2048 l 1,403,-1
 0 1417 l 1,404,-1
 0 1519 l 1,405,-1
 530 2048 l 1,402,-1
338 2048 m 1,406,-1
 0 1710 l 1,407,-1
 0 1813 l 1,408,-1
 238 2048 l 1,409,-1
 338 2048 l 1,406,-1
375 426 m 1,410,411
 375 368 375 368 373 321 c 1,412,-1
 51 0 l 1,413,-1
 0 0 l 1,414,-1
 0 51 l 1,415,-1
 375 426 l 1,410,411
1263 1312 m 1,416,417
 1276 1288 1276 1288 1293 1274 c 1,418,-1
 1275 1221 l 1,419,-1
 1168 1114 l 1,420,421
 1157 1152 1157 1152 1149 1199 c 1,422,-1
 1263 1312 l 1,416,417
1550 1496 m 1,423,424
 1526 1525 1526 1525 1494 1543 c 1,425,-1
 1998 2048 l 1,426,-1
 2049 2048 l 1,427,-1
 2049 1996 l 1,428,-1
 1550 1496 l 1,423,424
EndSplineSet
EndChar
StartChar: R
Encoding: 82 82 18
Width: 2048
Flags: W
Fore
649 1433 m 1,0,-1
 649 683 l 1,1,-1
 1399 683 l 1,2,-1
 1399 1433 l 1,3,-1
 649 1433 l 1,0,-1
564 478 m 1,4,-1
 564 341 l 1,5,-1
 1484 341 l 1,6,-1
 1484 478 l 1,7,-1
 564 478 l 1,4,-1
616 614 m 1,8,-1
 574 546 l 1,9,-1
 1474 546 l 1,10,-1
 1432 614 l 1,11,-1
 616 614 l 1,8,-1
530 273 m 1,12,-1
 530 205 l 1,13,-1
 1520 205 l 1,14,-1
 1520 273 l 1,15,-1
 530 273 l 1,12,-1
1161 1911 m 1,16,-1
 1169 1792 l 1,17,-1
 1314 1792 l 1,18,-1
 1322 1911 l 1,19,-1
 1554 1911 l 1,20,-1
 1554 1570 l 1,21,-1
 1468 1433 l 1,22,-1
 1468 683 l 1,23,-1
 1554 546 l 1,24,-1
 1554 341 l 1,25,-1
 1587 341 l 1,26,-1
 1587 137 l 1,27,-1
 461 137 l 1,28,-1
 461 341 l 1,29,-1
 494 341 l 1,30,-1
 494 546 l 1,31,-1
 580 683 l 1,32,-1
 580 1433 l 1,33,-1
 494 1570 l 1,34,-1
 494 1911 l 1,35,-1
 725 1911 l 1,36,-1
 734 1792 l 1,37,-1
 879 1792 l 1,38,-1
 887 1911 l 1,39,-1
 1161 1911 l 1,16,-1
574 1570 m 1,40,-1
 616 1503 l 1,41,-1
 1432 1503 l 1,42,-1
 1474 1570 l 1,43,-1
 574 1570 l 1,40,-1
564 1638 m 1,44,-1
 1484 1638 l 1,45,-1
 1484 1843 l 1,46,-1
 1391 1843 l 1,47,-1
 1382 1724 l 1,48,-1
 1101 1724 l 1,49,-1
 1092 1843 l 1,50,-1
 956 1843 l 1,51,-1
 947 1724 l 1,52,-1
 666 1724 l 1,53,-1
 657 1843 l 1,54,-1
 564 1843 l 1,55,-1
 564 1638 l 1,44,-1
1621 1567 m 1,56,-1
 1621 1672 l 1,57,-1
 1998 2048 l 1,58,-1
 2049 2048 l 1,59,-1
 2049 1996 l 1,60,-1
 1621 1567 l 1,56,-1
427 477 m 1,61,-1
 0 51 l 1,62,-1
 0 0 l 1,63,-1
 51 0 l 1,64,-1
 427 374 l 1,65,-1
 427 477 l 1,61,-1
338 2048 m 1,66,-1
 0 1710 l 1,67,-1
 0 1813 l 1,68,-1
 238 2048 l 1,69,-1
 338 2048 l 1,66,-1
563 1979 m 1,70,-1
 460 1979 l 1,71,-1
 530 2048 l 1,72,-1
 632 2048 l 1,73,-1
 563 1979 l 1,70,-1
427 1946 m 1,74,-1
 427 1843 l 1,75,-1
 0 1417 l 1,76,-1
 0 1519 l 1,77,-1
 427 1946 l 1,74,-1
785 1908 m 1,78,-1
 785 1979 l 1,79,-1
 754 1979 l 1,80,-1
 824 2048 l 1,81,-1
 926 2048 l 1,82,-1
 785 1908 l 1,78,-1
427 1654 m 1,83,-1
 427 1550 l 1,84,-1
 0 1123 l 1,85,-1
 0 1225 l 1,86,-1
 427 1654 l 1,83,-1
1151 1979 m 1,87,-1
 1048 1979 l 1,88,-1
 1117 2048 l 1,89,-1
 1221 2048 l 1,90,-1
 1151 1979 l 1,87,-1
513 1444 m 1,91,-1
 512 1341 l 1,92,-1
 0 829 l 1,93,-1
 0 932 l 1,94,-1
 513 1444 l 1,91,-1
50 2048 m 1,95,-1
 0 2001 l 1,96,-1
 0 2048 l 1,97,-1
 50 2048 l 1,95,-1
1621 1863 m 1,98,-1
 1621 1965 l 1,99,-1
 1705 2048 l 1,100,-1
 1807 2048 l 1,101,-1
 1621 1863 l 1,98,-1
512 856 m 1,102,-1
 512 754 l 1,103,-1
 0 242 l 1,104,-1
 0 344 l 1,105,-1
 512 856 l 1,102,-1
1442 1979 m 1,106,-1
 1341 1979 l 1,107,-1
 1411 2048 l 1,108,-1
 1511 2048 l 1,109,-1
 1442 1979 l 1,106,-1
512 1150 m 1,110,-1
 0 638 l 1,111,-1
 0 535 l 1,112,-1
 513 1049 l 1,113,-1
 512 1150 l 1,110,-1
1536 896 m 1,114,-1
 1536 999 l 1,115,-1
 2049 1512 l 1,116,-1
 2049 1410 l 1,117,-1
 1536 896 l 1,114,-1
605 68 m 1,118,-1
 707 68 l 1,119,-1
 639 0 l 1,120,-1
 536 0 l 1,121,-1
 605 68 l 1,118,-1
1535 1191 m 1,122,-1
 1536 1294 l 1,123,-1
 2049 1808 l 1,124,-1
 2049 1705 l 1,125,-1
 1535 1191 l 1,122,-1
393 150 m 1,126,-1
 243 0 l 1,127,-1
 345 0 l 1,128,-1
 413 67 l 1,129,-1
 393 68 l 1,130,-1
 393 150 l 1,126,-1
2049 49 m 1,131,-1
 2049 0 l 1,132,-1
 2002 0 l 1,133,-1
 2049 49 l 1,131,-1
898 68 m 1,134,-1
 1000 67 l 1,135,-1
 933 0 l 1,136,-1
 830 0 l 1,137,-1
 898 68 l 1,134,-1
1571 637 m 1,138,-1
 1532 702 l 1,139,-1
 2049 1220 l 1,140,-1
 2049 1116 l 1,141,-1
 1571 637 l 1,138,-1
1192 67 m 1,142,-1
 1296 68 l 1,143,-1
 1228 0 l 1,144,-1
 1124 0 l 1,145,-1
 1192 67 l 1,142,-1
1621 394 m 1,146,-1
 1621 496 l 1,147,-1
 2049 925 l 1,148,-1
 2049 823 l 1,149,-1
 1621 394 l 1,146,-1
1655 135 m 1,150,-1
 1655 237 l 1,151,-1
 2049 631 l 1,152,-1
 2049 529 l 1,153,-1
 1655 135 l 1,150,-1
1485 68 m 1,154,-1
 1588 67 l 1,155,-1
 1520 0 l 1,156,-1
 1417 0 l 1,157,-1
 1485 68 l 1,154,-1
2049 339 m 1,158,-1
 2049 237 l 1,159,-1
 1814 0 l 1,160,-1
 1711 0 l 1,161,-1
 2049 339 l 1,158,-1
EndSplineSet
EndChar
StartChar: T
Encoding: 84 84 19
Width: 2048
Flags: W
Fore
574 1570 m 1,0,-1
 627 1485 l 1,1,-1
 1421 1485 l 1,2,-1
 1474 1570 l 1,3,-1
 574 1570 l 1,0,-1
1144 1911 m 1,4,-1
 1152 1792 l 1,5,-1
 1331 1792 l 1,6,-1
 1340 1911 l 1,7,-1
 1554 1911 l 1,8,-1
 1554 1570 l 1,9,-1
 1468 1433 l 1,10,-1
 1468 683 l 1,11,-1
 1554 546 l 1,12,-1
 1554 341 l 1,13,-1
 1587 341 l 1,14,-1
 1587 137 l 1,15,-1
 461 137 l 1,16,-1
 461 341 l 1,17,-1
 494 341 l 1,18,-1
 494 546 l 1,19,-1
 580 683 l 1,20,-1
 580 1433 l 1,21,-1
 494 1570 l 1,22,-1
 494 1911 l 1,23,-1
 709 1911 l 1,24,-1
 717 1792 l 1,25,-1
 896 1792 l 1,26,-1
 905 1911 l 1,27,-1
 1144 1911 l 1,4,-1
564 1724 m 1,28,-1
 564 1638 l 1,29,-1
 1484 1638 l 1,30,-1
 1484 1724 l 1,31,-1
 564 1724 l 1,28,-1
546 325 m 1,32,-1
 546 239 l 1,33,-1
 1502 239 l 1,34,-1
 1502 325 l 1,35,-1
 546 325 l 1,32,-1
564 546 m 1,36,-1
 564 460 l 1,37,-1
 1484 460 l 1,38,-1
 1484 546 l 1,39,-1
 564 546 l 1,36,-1
649 717 m 1,40,-1
 649 632 l 1,41,-1
 1400 632 l 1,42,-1
 1400 717 l 1,43,-1
 649 717 l 1,40,-1
2049 339 m 1,44,-1
 2049 237 l 1,45,-1
 1814 0 l 1,46,-1
 1711 0 l 1,47,-1
 2049 339 l 1,44,-1
1485 68 m 1,48,-1
 1588 67 l 1,49,-1
 1520 0 l 1,50,-1
 1417 0 l 1,51,-1
 1485 68 l 1,48,-1
1655 135 m 1,52,-1
 1655 237 l 1,53,-1
 2049 631 l 1,54,-1
 2049 529 l 1,55,-1
 1655 135 l 1,52,-1
1621 394 m 1,56,-1
 1621 496 l 1,57,-1
 2049 925 l 1,58,-1
 2049 823 l 1,59,-1
 1621 394 l 1,56,-1
1192 67 m 1,60,-1
 1296 68 l 1,61,-1
 1228 0 l 1,62,-1
 1124 0 l 1,63,-1
 1192 67 l 1,60,-1
1571 637 m 1,64,-1
 1532 702 l 1,65,-1
 2049 1220 l 1,66,-1
 2049 1116 l 1,67,-1
 1571 637 l 1,64,-1
898 68 m 1,68,-1
 1000 67 l 1,69,-1
 933 0 l 1,70,-1
 830 0 l 1,71,-1
 898 68 l 1,68,-1
2049 49 m 1,72,-1
 2049 0 l 1,73,-1
 2002 0 l 1,74,-1
 2049 49 l 1,72,-1
393 150 m 1,75,-1
 243 0 l 1,76,-1
 345 0 l 1,77,-1
 413 67 l 1,78,-1
 393 68 l 1,79,-1
 393 150 l 1,75,-1
1535 1191 m 1,80,-1
 1536 1294 l 1,81,-1
 2049 1808 l 1,82,-1
 2049 1705 l 1,83,-1
 1535 1191 l 1,80,-1
605 68 m 1,84,-1
 707 68 l 1,85,-1
 639 0 l 1,86,-1
 536 0 l 1,87,-1
 605 68 l 1,84,-1
1536 896 m 1,88,-1
 1536 999 l 1,89,-1
 2049 1512 l 1,90,-1
 2049 1410 l 1,91,-1
 1536 896 l 1,88,-1
512 1150 m 1,92,-1
 0 638 l 1,93,-1
 0 535 l 1,94,-1
 513 1049 l 1,95,-1
 512 1150 l 1,92,-1
1442 1979 m 1,96,-1
 1341 1979 l 1,97,-1
 1411 2048 l 1,98,-1
 1511 2048 l 1,99,-1
 1442 1979 l 1,96,-1
512 856 m 1,100,-1
 512 754 l 1,101,-1
 0 242 l 1,102,-1
 0 344 l 1,103,-1
 512 856 l 1,100,-1
1621 1863 m 1,104,-1
 1621 1965 l 1,105,-1
 1705 2048 l 1,106,-1
 1807 2048 l 1,107,-1
 1621 1863 l 1,104,-1
50 2048 m 1,108,-1
 0 2001 l 1,109,-1
 0 2048 l 1,110,-1
 50 2048 l 1,108,-1
513 1444 m 1,111,-1
 512 1341 l 1,112,-1
 0 829 l 1,113,-1
 0 932 l 1,114,-1
 513 1444 l 1,111,-1
1151 1979 m 1,115,-1
 1048 1979 l 1,116,-1
 1117 2048 l 1,117,-1
 1221 2048 l 1,118,-1
 1151 1979 l 1,115,-1
427 1654 m 1,119,-1
 427 1550 l 1,120,-1
 0 1123 l 1,121,-1
 0 1225 l 1,122,-1
 427 1654 l 1,119,-1
785 1908 m 1,123,-1
 785 1979 l 1,124,-1
 754 1979 l 1,125,-1
 824 2048 l 1,126,-1
 926 2048 l 1,127,-1
 785 1908 l 1,123,-1
427 1946 m 1,128,-1
 427 1843 l 1,129,-1
 0 1417 l 1,130,-1
 0 1519 l 1,131,-1
 427 1946 l 1,128,-1
563 1979 m 1,132,-1
 460 1979 l 1,133,-1
 530 2048 l 1,134,-1
 632 2048 l 1,135,-1
 563 1979 l 1,132,-1
338 2048 m 1,136,-1
 0 1710 l 1,137,-1
 0 1813 l 1,138,-1
 238 2048 l 1,139,-1
 338 2048 l 1,136,-1
427 477 m 1,140,-1
 0 51 l 1,141,-1
 0 0 l 1,142,-1
 51 0 l 1,143,-1
 427 374 l 1,144,-1
 427 477 l 1,140,-1
1621 1567 m 1,145,-1
 1621 1672 l 1,146,-1
 1998 2048 l 1,147,-1
 2049 2048 l 1,148,-1
 2049 1996 l 1,149,-1
 1621 1567 l 1,145,-1
EndSplineSet
EndChar
StartChar: V
Encoding: 86 86 20
Width: 2048
Flags: W
Fore
1024 856 m 0,0,1
 1021 856 1021 856 1017.5 858.5 c 128,-1,2
 1014 861 1014 861 1012 861 c 0,3,4
 961 859 961 859 961 842 c 0,5,6
 961 816 961 816 1024 816 c 0,7,8
 1088 816 1088 816 1088 842 c 0,9,10
 1088 859 1088 859 1037 861 c 0,11,12
 1034 861 1034 861 1030 858.5 c 128,-1,13
 1026 856 1026 856 1024 856 c 0,0,1
1341 1775 m 0,14,15
 1379 1789 1379 1789 1424.5 1789.5 c 128,-1,16
 1470 1790 1470 1790 1461 1824 c 0,17,18
 1452 1857 1452 1857 1407 1847 c 0,19,20
 1359 1837 1359 1837 1323 1824 c 0,21,22
 1230 1790 1230 1790 1240 1766 c 0,23,24
 1249 1741 1249 1741 1341 1775 c 0,14,15
1135 1063 m 1,25,26
 1182 1069 1182 1069 1181 1090 c 0,27,28
 1179 1112 1179 1112 1124 1107 c 256,29,30
 1069 1102 1069 1102 1071 1080 c 0,31,32
 1073 1061 1073 1061 1116 1061 c 1,33,34
 1109 1064 1109 1064 1109 1072 c 0,35,36
 1109 1085 1109 1085 1124 1085 c 256,37,38
 1139 1085 1139 1085 1139 1072 c 1,39,40
 1138 1067 1138 1067 1135 1063 c 1,25,26
913 1063 m 1,41,42
 910 1068 910 1068 910 1072 c 0,43,44
 910 1085 910 1085 924 1085 c 0,45,46
 939 1085 939 1085 939 1072 c 0,47,48
 939 1064 939 1064 932 1061 c 1,49,50
 975 1061 975 1061 977 1080 c 0,51,52
 978 1103 978 1103 924 1107 c 0,53,54
 868 1112 868 1112 867 1090 c 0,55,56
 866 1069 866 1069 913 1063 c 1,41,42
1024 1042 m 0,57,58
 1003 1042 1003 1042 1003 972 c 0,59,60
 1003 966 1003 966 1001 962 c 1,61,62
 988 953 988 953 988 940 c 0,63,64
 988 920 988 920 1008 918 c 1,65,66
 1017 903 1017 903 1024 903 c 0,67,68
 1030 903 1030 903 1040 918 c 1,69,70
 1060 919 1060 919 1060 940 c 0,71,72
 1060 952 1060 952 1047 962 c 1,73,74
 1046 966 1046 966 1046 972 c 0,75,76
 1046 1042 1046 1042 1024 1042 c 0,57,58
1277 1323 m 1,77,78
 1282 1335 1282 1335 1283 1337 c 0,79,80
 1294 1371 1294 1371 1304 1392 c 1,81,-1
 744 1392 l 1,82,83
 751 1375 751 1375 765 1337 c 0,84,85
 769 1327 769 1327 771 1323 c 1,86,-1
 1277 1323 l 1,77,78
1233 1190 m 1,87,88
 1252 1186 1252 1186 1259 1222 c 0,89,90
 1265 1258 1265 1258 1248 1258 c 2,91,-1
 800 1258 l 2,92,93
 782 1258 782 1258 789 1222 c 256,94,95
 796 1186 796 1186 815 1190 c 1,96,-1
 1233 1190 l 1,87,88
1050 621 m 2,97,98
 1107 621 1107 621 1143 651 c 1,99,100
 1126 672 1126 672 1116 690 c 1,101,102
 1081 678 1081 678 1050 678 c 2,103,-1
 998 678 l 2,104,105
 966 678 966 678 933 690 c 1,106,107
 921 672 921 672 905 651 c 1,108,109
 940 621 940 621 998 621 c 2,110,-1
 1050 621 l 2,97,98
320 137 m 1,111,-1
 320 205 l 2,112,113
 319 217 319 217 319 225 c 0,114,115
 320 233 320 233 320 245 c 0,116,117
 320 392 320 392 420 499 c 0,118,119
 514 601 514 601 664 619 c 0,120,121
 795 635 795 635 873 755 c 1,122,123
 870 756 870 756 869 759 c 1,124,125
 852 784 852 784 829 804 c 0,126,127
 732 889 732 889 732 1059 c 0,128,129
 732 1134 732 1134 747 1188 c 1,130,131
 730 1188 730 1188 730 1223 c 1,132,133
 702 1330 702 1330 648 1434 c 0,134,135
 624 1481 624 1481 655 1495 c 0,136,137
 682 1506 682 1506 707 1466 c 1,138,139
 753 1452 753 1452 811 1452 c 0,140,141
 945 1452 945 1452 993 1535 c 1,142,143
 986 1587 986 1587 1032 1646 c 1,144,145
 1073 1735 1073 1735 1259 1838 c 0,146,147
 1307 1864 1307 1864 1353 1884 c 1,148,149
 1376 1890 1376 1890 1399 1892 c 0,150,151
 1444 1895 1444 1895 1485 1882 c 0,152,153
 1540 1865 1540 1865 1544 1826 c 0,154,155
 1550 1753 1550 1753 1421 1736 c 0,156,157
 1214 1707 1214 1707 1094 1624 c 1,158,159
 1057 1584 1057 1584 1057 1552 c 0,160,161
 1057 1544 1057 1544 1059 1538 c 2,162,163
 1060 1527 1060 1527 1068 1518 c 0,164,165
 1122 1452 1122 1452 1240 1452 c 0,166,167
 1296 1452 1296 1452 1343 1466 c 1,168,169
 1366 1507 1366 1507 1394 1495 c 0,170,171
 1424 1481 1424 1481 1401 1434 c 0,172,173
 1344 1323 1344 1323 1319 1223 c 1,174,175
 1319 1188 1319 1188 1302 1188 c 1,176,177
 1317 1134 1317 1134 1317 1059 c 0,178,179
 1317 888 1317 888 1220 804 c 0,180,181
 1198 785 1198 785 1180 759 c 0,182,183
 1178 756 1178 756 1176 752 c 1,184,185
 1256 635 1256 635 1384 619 c 0,186,187
 1533 601 1533 601 1628 499 c 0,188,189
 1728 391 1728 391 1728 245 c 0,190,191
 1728 233 1728 233 1728.5 225 c 128,-1,192
 1729 217 1729 217 1728 205 c 2,193,-1
 1728 137 l 1,194,-1
 320 137 l 1,111,-1
2049 339 m 1,195,-1
 2049 237 l 1,196,-1
 1814 0 l 1,197,-1
 1711 0 l 1,198,-1
 2049 339 l 1,195,-1
1798 277 m 1,199,200
 1795 318 1795 318 1782 364 c 1,201,-1
 2049 631 l 1,202,-1
 2049 529 l 1,203,-1
 1798 277 l 1,199,200
1719 492 m 1,204,205
 1699 519 1699 519 1672 546 c 1,206,-1
 2049 925 l 1,207,-1
 2049 823 l 1,208,-1
 1719 492 l 1,204,205
1559 624 m 1,209,210
 1520 642 1520 642 1484 652 c 1,211,-1
 2049 1220 l 1,212,-1
 2049 1116 l 1,213,-1
 1559 624 l 1,209,210
2049 49 m 1,214,-1
 2049 0 l 1,215,-1
 2002 0 l 1,216,-1
 2049 49 l 1,214,-1
1385 1040 m 1,217,218
 1387 1092 1387 1092 1384 1126 c 2,219,-1
 1383 1141 l 1,220,-1
 2049 1808 l 1,221,-1
 2049 1705 l 1,222,-1
 1385 1040 l 1,217,218
1329 690 m 1,223,224
 1295 704 1295 704 1266 729 c 1,225,-1
 2049 1512 l 1,226,-1
 2049 1410 l 1,227,-1
 1329 690 l 1,223,224
648 1287 m 1,228,229
 656 1258 656 1258 660 1243 c 1,230,231
 660 1217 660 1217 672 1208 c 1,232,-1
 0 535 l 1,233,-1
 0 638 l 1,234,-1
 648 1287 l 1,228,229
1417 1953 m 1,235,236
 1365 1940 1365 1940 1306 1920 c 0,237,238
 1290 1914 1290 1914 1266 1904 c 1,239,-1
 1411 2048 l 1,240,-1
 1511 2048 l 1,241,-1
 1417 1953 l 1,235,236
1276 1517 m 1,242,243
 1225 1515 1225 1515 1183 1527 c 1,244,-1
 1309 1653 l 1,245,246
 1326 1657 1326 1657 1352 1664 c 0,247,248
 1391 1674 1391 1674 1441 1682 c 1,249,-1
 1276 1517 l 1,242,243
667 1011 m 1,250,251
 672 966 672 966 685 925 c 1,252,-1
 0 242 l 1,253,-1
 0 344 l 1,254,-1
 667 1011 l 1,250,251
1596 1838 m 1,255,256
 1596 1841 1596 1841 1596 1842 c 130,-1,257
 1596 1845 l 2,258,259
 1593 1876 1593 1876 1558 1901 c 1,260,-1
 1705 2048 l 1,261,-1
 1807 2048 l 1,262,-1
 1596 1838 l 1,255,256
50 2048 m 1,263,-1
 0 2001 l 1,264,-1
 0 2048 l 1,265,-1
 50 2048 l 1,263,-1
708 1536 m 1,266,-1
 1221 2048 l 1,267,-1
 1117 2048 l 1,268,-1
 627 1559 l 1,269,270
 633 1562 633 1562 643 1562 c 0,271,272
 654 1562 654 1562 668 1559 c 0,273,274
 697 1554 697 1554 708 1536 c 1,266,-1
568 1500 m 1,275,-1
 0 932 l 1,276,-1
 0 829 l 1,277,-1
 596 1425 l 1,278,279
 579 1460 579 1460 570 1476 c 1,280,281
 566 1481 566 1481 567 1488 c 1,282,283
 569 1494 569 1494 568 1500 c 1,275,-1
926 2048 m 1,284,-1
 0 1123 l 1,285,-1
 0 1225 l 1,286,-1
 824 2048 l 1,287,-1
 926 2048 l 1,284,-1
530 2048 m 1,288,-1
 632 2048 l 1,289,-1
 0 1417 l 1,290,-1
 0 1519 l 1,291,-1
 530 2048 l 1,288,-1
338 2048 m 1,292,-1
 0 1710 l 1,293,-1
 0 1813 l 1,294,-1
 238 2048 l 1,295,-1
 338 2048 l 1,292,-1
751 800 m 1,296,297
 758 793 758 793 769 783 c 0,298,299
 787 767 787 767 802 748 c 1,300,-1
 777 724 l 2,301,302
 707 673 707 673 628 662 c 0,303,304
 620 661 620 661 609 660 c 1,305,-1
 751 800 l 1,296,297
254 304 m 1,306,307
 252 278 252 278 249 227 c 0,308,309
 249 218 249 218 250 206 c 2,310,-1
 250 198 l 1,311,-1
 51 0 l 1,312,-1
 0 0 l 1,313,-1
 0 51 l 1,314,-1
 254 304 l 1,306,307
1435 1382 m 1,315,316
 1453 1420 1453 1420 1472 1457 c 0,317,318
 1495 1510 1495 1510 1482 1533 c 1,319,-1
 1998 2048 l 1,320,-1
 2049 2048 l 1,321,-1
 2049 1996 l 1,322,-1
 1435 1382 l 1,315,316
1588 67 m 1,323,-1
 1520 0 l 1,324,-1
 1417 0 l 1,325,-1
 1487 68 l 1,326,-1
 1588 67 l 1,323,-1
1296 68 m 1,327,-1
 1228 0 l 1,328,-1
 1124 0 l 1,329,-1
 1192 68 l 1,330,-1
 1296 68 l 1,327,-1
1002 68 m 1,331,-1
 933 0 l 1,332,-1
 830 0 l 1,333,-1
 899 67 l 1,334,-1
 1002 68 l 1,331,-1
311 68 m 1,335,-1
 414 68 l 1,336,-1
 345 0 l 1,337,-1
 243 0 l 1,338,-1
 311 68 l 1,335,-1
707 67 m 1,339,-1
 639 0 l 1,340,-1
 536 0 l 1,341,-1
 605 68 l 1,342,-1
 707 67 l 1,339,-1
EndSplineSet
EndChar
StartChar: W
Encoding: 87 87 21
Width: 2048
Flags: W
Fore
502 478 m 1,0,-1
 588 452 l 1,1,-1
 741 566 l 1,2,-1
 559 621 l 1,3,4
 518 591 518 591 499 576 c 1,5,6
 501 527 501 527 502 478 c 1,0,-1
1024 663 m 1,7,8
 939 621 939 621 853 577 c 1,9,-1
 938 534 l 2,10,11
 981 512 981 512 1024 492 c 1,12,-1
 1195 577 l 1,13,-1
 1024 663 l 1,7,8
1024 708 m 0,14,15
 1320 708 1320 708 1485 669 c 0,16,17
 1538 656 1538 656 1553 694 c 0,18,19
 1557 703 1557 703 1557 711 c 0,20,21
 1557 741 1557 741 1507 757 c 0,22,23
 1327 817 1327 817 1024 817 c 256,24,25
 721 817 721 817 541 757 c 0,26,27
 491 741 491 741 491 711 c 0,28,29
 491 703 491 703 495 694 c 0,30,31
 510 656 510 656 563 669 c 0,32,33
 727 708 727 708 1024 708 c 0,14,15
1024 339 m 0,34,35
 1320 339 1320 339 1485 300 c 0,36,37
 1538 287 1538 287 1553 325 c 0,38,39
 1557 334 1557 334 1557 342 c 0,40,41
 1557 372 1557 372 1507 389 c 0,42,43
 1328 448 1328 448 1024 448 c 0,44,45
 719 448 719 448 541 389 c 0,46,47
 491 372 491 372 491 342 c 0,48,49
 491 334 491 334 495 325 c 0,50,51
 510 287 510 287 563 300 c 0,52,53
 727 339 727 339 1024 339 c 0,34,35
1024 137 m 256,54,55
 863 137 863 137 686 162 c 0,56,57
 409 202 409 202 409 282 c 0,58,59
 409 298 409 298 427 316 c 1,60,61
 434 382 434 382 434 477 c 0,62,63
 434 645 434 645 417 769 c 1,64,65
 411 786 411 786 404 804 c 2,66,-1
 391 841 l 2,67,68
 336 991 336 991 266 1131 c 1,69,70
 164 1131 164 1131 164 1233 c 256,71,72
 164 1335 164 1335 266 1335 c 256,73,74
 368 1335 368 1335 368 1233 c 0,75,76
 368 1204 368 1204 356 1187 c 1,77,78
 388 1140 388 1140 455 1048 c 0,79,80
 462 1039 462 1039 480 1014 c 0,81,82
 551 908 551 908 580 911 c 0,83,84
 633 916 633 916 633 1084 c 0,85,86
 633 1168 633 1168 620 1292 c 1,87,88
 533 1305 533 1305 533 1393 c 0,89,90
 533 1494 533 1494 635 1494 c 256,91,92
 737 1494 737 1494 737 1393 c 0,93,94
 737 1344 737 1344 700 1314 c 1,95,96
 728 1145 728 1145 838 951 c 1,97,98
 860 954 860 954 874 954 c 1,99,100
 922 1015 922 1015 952 1201 c 0,101,102
 974 1337 974 1337 978 1463 c 0,103,104
 978 1489 978 1489 984 1526 c 1,105,106
 922 1550 922 1550 922 1619 c 0,107,108
 922 1721 922 1721 1024 1721 c 256,109,110
 1126 1721 1126 1721 1126 1619 c 0,111,112
 1126 1550 1126 1550 1064 1526 c 1,113,114
 1070 1482 1070 1482 1070 1463 c 0,115,116
 1073 1336 1073 1336 1095 1201 c 0,117,118
 1125 1015 1125 1015 1174 954 c 1,119,120
 1187 954 1187 954 1210 951 c 1,121,122
 1320 1148 1320 1148 1348 1314 c 1,123,124
 1311 1344 1311 1344 1311 1393 c 0,125,126
 1311 1494 1311 1494 1413 1494 c 256,127,128
 1515 1494 1515 1494 1515 1393 c 0,129,130
 1515 1305 1515 1305 1428 1292 c 1,131,132
 1415 1168 1415 1168 1415 1084 c 0,133,134
 1415 916 1415 916 1468 911 c 0,135,136
 1496 908 1496 908 1568 1014 c 0,137,138
 1596 1052 1596 1052 1650 1131 c 0,139,140
 1667 1159 1667 1159 1692 1187 c 1,141,142
 1680 1204 1680 1204 1680 1233 c 0,143,144
 1680 1335 1680 1335 1782 1335 c 256,145,146
 1884 1335 1884 1335 1884 1233 c 256,147,148
 1884 1131 1884 1131 1782 1131 c 1,149,150
 1714 998 1714 998 1657 841 c 2,151,-1
 1631 769 l 1,152,153
 1614 639 1614 639 1614 477 c 0,154,155
 1614 382 1614 382 1621 316 c 1,156,157
 1639 300 1639 300 1639 282 c 0,158,159
 1639 202 1639 202 1362 162 c 0,160,161
 1185 137 1185 137 1024 137 c 256,54,55
1546 478 m 1,162,163
 1546 527 1546 527 1549 576 c 1,164,165
 1529 591 1529 591 1489 621 c 1,166,-1
 1307 566 l 1,167,-1
 1383 509 l 2,168,169
 1421 480 1421 480 1460 452 c 1,170,171
 1502 464 1502 464 1546 478 c 1,162,163
884 1521 m 1,172,173
 905 1490 905 1490 937 1472 c 1,174,-1
 792 1328 l 1,175,176
 806 1358 806 1358 806 1393 c 0,177,178
 806 1412 806 1412 800 1437 c 1,179,-1
 884 1521 l 1,172,173
1170 1707 m 1,180,181
 1150 1737 1150 1737 1122 1758 c 1,182,-1
 1411 2048 l 1,183,-1
 1511 2048 l 1,184,-1
 1170 1707 l 1,180,181
2049 339 m 1,185,-1
 2049 237 l 1,186,-1
 1814 0 l 1,187,-1
 1711 0 l 1,188,-1
 2049 339 l 1,185,-1
1545 126 m 1,189,190
 1663 159 1663 159 1704 237 c 0,191,192
 1714 255 1714 255 1714 273 c 0,193,194
 1714 284 1714 284 1708 291 c 1,195,-1
 2049 631 l 1,196,-1
 2049 529 l 1,197,-1
 1520 0 l 1,198,-1
 1417 0 l 1,199,-1
 1545 126 l 1,189,190
1673 445 m 1,200,201
 1673 493 1673 493 1676 552 c 1,202,-1
 2049 925 l 1,203,-1
 2049 823 l 1,204,-1
 1673 445 l 1,200,201
1197 73 m 1,205,206
 1262 77 1262 77 1312 84 c 1,207,-1
 1228 0 l 1,208,-1
 1124 0 l 1,209,-1
 1197 73 l 1,205,206
902 71 m 1,210,211
 950 68 950 68 1001 68 c 1,212,-1
 933 0 l 1,213,-1
 830 0 l 1,214,-1
 902 71 l 1,210,211
1695 761 m 1,215,216
 1714 817 1714 817 1757 928 c 1,217,-1
 2049 1220 l 1,218,-1
 2049 1116 l 1,219,-1
 1695 761 l 1,215,216
2049 49 m 1,220,-1
 2049 0 l 1,221,-1
 2002 0 l 1,222,-1
 2049 49 l 1,220,-1
405 163 m 1,223,224
 434 147 434 147 478 133 c 1,225,-1
 345 0 l 1,226,-1
 243 0 l 1,227,-1
 405 163 l 1,223,224
1739 1394 m 1,228,229
 1642 1370 1642 1370 1617 1273 c 1,230,-1
 1478 1133 l 1,231,232
 1479 1191 1479 1191 1486 1245 c 1,233,-1
 2049 1808 l 1,234,-1
 2049 1705 l 1,235,-1
 1739 1394 l 1,228,229
634 97 m 1,236,237
 680 89 680 89 724 84 c 1,238,-1
 639 0 l 1,239,-1
 536 0 l 1,240,-1
 634 97 l 1,236,237
1938 1297 m 1,241,242
 1922 1332 1922 1332 1894 1357 c 1,243,-1
 2049 1512 l 1,244,-1
 2049 1410 l 1,245,-1
 1938 1297 l 1,241,242
567 1204 m 1,246,247
 571 1139 571 1139 571 1107 c 1,248,-1
 511 1046 l 1,249,250
 491 1072 491 1072 469 1105 c 1,251,-1
 567 1204 l 1,246,247
291 929 m 1,252,253
 306 891 306 891 320 854 c 1,254,-1
 0 535 l 1,255,-1
 0 638 l 1,256,-1
 291 929 l 1,252,253
363 706 m 1,257,258
 367 661 367 661 370 613 c 1,259,-1
 0 242 l 1,260,-1
 0 344 l 1,261,-1
 363 706 l 1,257,258
910 1255 m 1,262,263
 898 1186 898 1186 884 1125 c 1,264,-1
 836 1077 l 1,265,266
 819 1112 819 1112 805 1149 c 1,267,-1
 910 1255 l 1,262,263
1125 1366 m 1,268,269
 1119 1413 1119 1413 1118 1461 c 1,270,-1
 1705 2048 l 1,271,-1
 1807 2048 l 1,272,-1
 1125 1366 l 1,268,269
50 2048 m 1,273,-1
 0 2001 l 1,274,-1
 0 2048 l 1,275,-1
 50 2048 l 1,273,-1
465 1395 m 1,276,277
 463 1349 463 1349 485 1313 c 1,278,-1
 433 1261 l 1,279,280
 426 1299 426 1299 402 1332 c 1,281,-1
 465 1395 l 1,276,277
163 1094 m 1,282,283
 196 1069 196 1069 234 1062 c 1,284,-1
 0 829 l 1,285,-1
 0 932 l 1,286,-1
 163 1094 l 1,282,283
716 1543 m 1,287,-1
 1221 2048 l 1,288,-1
 1117 2048 l 1,289,-1
 634 1564 l 1,290,291
 678 1564 678 1564 716 1543 c 1,287,-1
277 1399 m 1,292,293
 272 1400 272 1400 266 1400 c 0,294,295
 195 1400 195 1400 145.5 1350 c 128,-1,296
 96 1300 96 1300 96 1229 c 0,297,298
 96 1226 96 1226 97 1220 c 1,299,-1
 0 1123 l 1,300,-1
 0 1225 l 1,301,-1
 824 2048 l 1,302,-1
 926 2048 l 1,303,-1
 277 1399 l 1,292,293
530 2048 m 1,304,-1
 632 2048 l 1,305,-1
 0 1417 l 1,306,-1
 0 1519 l 1,307,-1
 530 2048 l 1,304,-1
338 2048 m 1,308,-1
 0 1710 l 1,309,-1
 0 1813 l 1,310,-1
 238 2048 l 1,311,-1
 338 2048 l 1,308,-1
375 426 m 1,312,313
 375 368 375 368 373 321 c 1,314,-1
 51 0 l 1,315,-1
 0 0 l 1,316,-1
 0 51 l 1,317,-1
 375 426 l 1,312,313
1263 1312 m 1,318,319
 1276 1288 1276 1288 1293 1274 c 1,320,-1
 1275 1221 l 1,321,-1
 1168 1114 l 1,322,323
 1157 1152 1157 1152 1149 1199 c 1,324,-1
 1263 1312 l 1,318,319
1550 1496 m 1,325,326
 1526 1525 1526 1525 1494 1543 c 1,327,-1
 1998 2048 l 1,328,-1
 2049 2048 l 1,329,-1
 2049 1996 l 1,330,-1
 1550 1496 l 1,325,326
EndSplineSet
EndChar
StartChar: b
Encoding: 98 98 22
Width: 2048
Flags: W
Fore
1024 856 m 0,0,1
 1026 856 1026 856 1030 858.5 c 128,-1,2
 1034 861 1034 861 1037 861 c 0,3,4
 1088 859 1088 859 1088 842 c 0,5,6
 1088 816 1088 816 1024 816 c 0,7,8
 961 816 961 816 961 842 c 0,9,10
 961 859 961 859 1012 861 c 0,11,12
 1014 861 1014 861 1017.5 858.5 c 128,-1,13
 1021 856 1021 856 1024 856 c 0,0,1
1259 1256 m 1,14,15
 1279 1336 1279 1336 1304 1389 c 1,16,17
 1276 1387 1276 1387 1283 1387 c 1,18,19
 1262 1385 1262 1385 1242 1385 c 0,20,21
 1126 1385 1126 1385 1045 1448 c 0,22,23
 1034 1456 1034 1456 1024 1456 c 0,24,25
 1012 1456 1012 1456 1004 1448 c 0,26,27
 923 1385 923 1385 807 1385 c 0,28,29
 787 1385 787 1385 766 1387 c 1,30,31
 772 1387 772 1387 745 1389 c 1,32,33
 771 1331 771 1331 791 1256 c 1,34,-1
 1259 1256 l 1,14,15
1134 1065 m 1,35,36
 1137 1069 1137 1069 1138 1073 c 1,37,38
 1138 1085 1138 1085 1124 1085 c 0,39,40
 1111 1085 1111 1085 1111 1073 c 0,41,42
 1111 1066 1111 1066 1117 1063 c 1,43,44
 1078 1063 1078 1063 1076 1080 c 0,45,46
 1074 1100 1074 1100 1124 1105 c 0,47,48
 1173 1109 1173 1109 1176 1089 c 1,49,50
 1176 1070 1176 1070 1134 1065 c 1,35,36
815 1188 m 1,51,52
 800 1127 800 1127 800 1055 c 0,53,54
 800 916 800 916 868 857 c 0,55,56
 895 832 895 832 923 793 c 0,57,58
 958 744 958 744 1004 744 c 2,59,-1
 1045 744 l 2,60,61
 1091 744 1091 744 1126 793 c 0,62,63
 1153 832 1153 832 1181 857 c 0,64,65
 1249 916 1249 916 1249 1055 c 0,66,67
 1249 1127 1249 1127 1234 1188 c 1,68,-1
 815 1188 l 1,51,52
914 1065 m 1,69,70
 871 1070 871 1070 872 1089 c 0,71,72
 873 1110 873 1110 924 1105 c 0,73,74
 974 1100 974 1100 972 1080 c 0,75,76
 970 1064 970 1064 931 1063 c 1,77,78
 937 1066 937 1066 937 1073 c 0,79,80
 937 1085 937 1085 924 1085 c 256,81,82
 911 1085 911 1085 911 1073 c 0,83,84
 911 1068 911 1068 914 1065 c 1,69,70
1024 1037 m 0,85,86
 1044 1037 1044 1037 1044 972 c 0,87,88
 1044 965 1044 965 1045 963 c 1,89,90
 1057 956 1057 956 1057 943 c 0,91,92
 1057 925 1057 925 1038 923 c 1,93,94
 1030 910 1030 910 1024 910 c 0,95,96
 1017 910 1017 910 1010 923 c 1,97,98
 991 925 991 925 991 943 c 0,99,100
 991 955 991 955 1003 963 c 1,101,102
 1005 966 1005 966 1005 972 c 0,103,104
 1005 1037 1005 1037 1024 1037 c 0,85,86
1660 205 m 1,105,-1
 1660 267 l 2,106,107
 1660 369 1660 369 1573 459 c 0,108,109
 1496 538 1496 538 1382 551 c 0,110,111
 1221 570 1221 570 1126 708 c 1,112,113
 1093 678 1093 678 1045 678 c 2,114,-1
 1004 678 l 2,115,116
 952 678 952 678 922 708 c 1,117,118
 825 570 825 570 666 551 c 0,119,120
 551 538 551 538 475 459 c 0,121,122
 388 370 388 370 388 267 c 2,123,-1
 388 205 l 1,124,-1
 1660 205 l 1,105,-1
320 137 m 1,125,-1
 320 205 l 2,126,127
 319 217 319 217 319 225 c 0,128,129
 320 233 320 233 320 245 c 0,130,131
 320 392 320 392 420 499 c 0,132,133
 514 601 514 601 664 619 c 0,134,135
 795 635 795 635 873 755 c 1,136,137
 870 756 870 756 869 759 c 1,138,139
 852 784 852 784 829 804 c 0,140,141
 732 889 732 889 732 1059 c 0,142,143
 732 1134 732 1134 747 1188 c 1,144,145
 730 1188 730 1188 730 1223 c 1,146,147
 702 1330 702 1330 648 1434 c 0,148,149
 624 1481 624 1481 655 1495 c 0,150,151
 682 1506 682 1506 707 1466 c 1,152,153
 753 1452 753 1452 811 1452 c 0,154,155
 945 1452 945 1452 993 1535 c 1,156,157
 986 1587 986 1587 1032 1646 c 1,158,159
 1073 1735 1073 1735 1259 1838 c 0,160,161
 1307 1864 1307 1864 1353 1884 c 1,162,163
 1376 1890 1376 1890 1399 1892 c 0,164,165
 1444 1895 1444 1895 1485 1882 c 0,166,167
 1540 1865 1540 1865 1544 1826 c 0,168,169
 1550 1753 1550 1753 1421 1736 c 0,170,171
 1214 1707 1214 1707 1094 1624 c 1,172,173
 1057 1584 1057 1584 1057 1552 c 0,174,175
 1057 1544 1057 1544 1059 1538 c 2,176,177
 1060 1527 1060 1527 1068 1518 c 0,178,179
 1122 1452 1122 1452 1240 1452 c 0,180,181
 1296 1452 1296 1452 1343 1466 c 1,182,183
 1366 1507 1366 1507 1394 1495 c 0,184,185
 1424 1481 1424 1481 1401 1434 c 0,186,187
 1344 1323 1344 1323 1319 1223 c 1,188,189
 1319 1188 1319 1188 1302 1188 c 1,190,191
 1317 1134 1317 1134 1317 1059 c 0,192,193
 1317 888 1317 888 1220 804 c 0,194,195
 1198 785 1198 785 1180 759 c 0,196,197
 1178 756 1178 756 1176 752 c 1,198,199
 1256 635 1256 635 1384 619 c 0,200,201
 1533 601 1533 601 1628 499 c 0,202,203
 1728 391 1728 391 1728 245 c 0,204,205
 1728 233 1728 233 1728.5 225 c 128,-1,206
 1729 217 1729 217 1728 205 c 2,207,-1
 1728 137 l 1,208,-1
 320 137 l 1,125,-1
EndSplineSet
EndChar
StartChar: k
Encoding: 107 107 23
Width: 2048
Flags: W
Fore
1674 883 m 0,0,1
 1738 953 1738 953 1738 1053 c 0,2,3
 1738 1159 1738 1159 1663 1234 c 128,-1,4
 1588 1309 1588 1309 1482 1309 c 0,5,6
 1393 1309 1393 1309 1322 1253 c 0,7,8
 1170 1105 1170 1105 1098 909 c 0,9,10
 1068 827 1068 827 1057 769 c 1,11,12
 1407 765 1407 765 1569 700 c 1,13,14
 1571 710 1571 710 1579 733 c 0,15,16
 1606 809 1606 809 1674 883 c 0,0,1
374 883 m 0,17,18
 443 807 443 807 469 733 c 0,19,20
 476 714 476 714 479 700 c 1,21,22
 640 765 640 765 991 769 c 1,23,24
 978 830 978 830 950 909 c 0,25,26
 878 1104 878 1104 726 1253 c 0,27,28
 654 1309 654 1309 566 1309 c 0,29,30
 460 1309 460 1309 385 1234 c 128,-1,31
 310 1159 310 1159 310 1053 c 0,32,33
 310 954 310 954 374 883 c 0,17,18
265 964 m 1,34,35
 241 1035 241 1035 241 1053 c 0,36,37
 241 1183 241 1183 333 1282 c 0,38,39
 412 1367 412 1367 549 1367 c 0,40,41
 572 1367 572 1367 596 1365 c 1,42,43
 552 1383 552 1383 482 1392 c 0,44,45
 413 1401 413 1401 368 1385 c 0,46,47
 267 1348 267 1348 226 1253 c 0,48,49
 202 1197 202 1197 202 1140 c 0,50,51
 202 1079 202 1079 227 1020 c 0,52,53
 235 1001 235 1001 265 964 c 1,34,35
1024 393 m 0,54,55
 1369 393 1369 393 1551 331 c 1,56,57
 1551 345 1551 345 1550 373 c 128,-1,58
 1549 401 1549 401 1549 415 c 1,59,60
 1411 468 1411 468 1024 468 c 0,61,62
 636 468 636 468 499 415 c 1,63,64
 499 401 499 401 498 373 c 0,65,66
 498 345 498 345 498 331 c 1,67,68
 678 393 678 393 1024 393 c 0,54,55
1024 205 m 0,69,70
 1199 205 1199 205 1392 229 c 0,71,72
 1570 251 1570 251 1570 265 c 0,73,74
 1570 292 1570 292 1353 310 c 0,75,76
 1180 325 1180 325 1024 325 c 0,77,78
 840 325 840 325 651 301 c 0,79,80
 478 279 478 279 478 265 c 0,81,82
 478 239 478 239 695 220 c 0,83,84
 872 205 872 205 1024 205 c 0,69,70
1024 536 m 0,85,86
 1371 536 1371 536 1549 474 c 1,87,88
 1549 544 1549 544 1555 640 c 1,89,90
 1424 701 1424 701 1024 701 c 0,91,92
 623 701 623 701 493 640 c 1,93,94
 497 544 497 544 499 474 c 1,95,96
 676 536 676 536 1024 536 c 0,85,86
1024 137 m 0,97,98
 864 137 864 137 688 159 c 0,99,100
 409 194 409 194 409 265 c 0,101,102
 409 281 409 281 428 297 c 1,103,104
 431 380 431 380 431 446 c 0,105,106
 431 553 431 553 424 632 c 0,107,108
 413 684 413 684 404 710 c 0,109,110
 366 813 366 813 260 888 c 0,111,112
 129 1000 129 1000 129 1145 c 0,113,114
 129 1214 129 1214 161 1281 c 0,115,116
 218 1404 218 1404 344 1450 c 0,117,118
 402 1471 402 1471 458 1471 c 0,119,120
 537 1471 537 1471 611 1429 c 0,121,122
 699 1378 699 1378 794 1280 c 1,123,124
 800 1364 800 1364 862 1426 c 1,125,-1
 794 1425 l 1,126,-1
 794 1886 l 1,127,-1
 1254 1886 l 1,128,-1
 1254 1425 l 1,129,-1
 1186 1426 l 1,130,131
 1246 1364 1246 1364 1254 1280 c 1,132,133
 1349 1378 1349 1378 1437 1429 c 0,134,135
 1510 1471 1510 1471 1590 1471 c 0,136,137
 1646 1471 1646 1471 1704 1450 c 0,138,139
 1830 1404 1830 1404 1887 1281 c 0,140,141
 1919 1214 1919 1214 1919 1145 c 0,142,143
 1919 1000 1919 1000 1788 888 c 0,144,145
 1682 814 1682 814 1644 710 c 0,146,147
 1633 680 1633 680 1624 632 c 0,148,149
 1617 545 1617 545 1617 446 c 0,150,151
 1617 379 1617 379 1620 297 c 1,152,153
 1639 281 1639 281 1639 265 c 0,154,155
 1639 194 1639 194 1360 159 c 0,156,157
 1183 137 1183 137 1024 137 c 0,97,98
1024 902 m 1,158,-1
 1035 932 l 2,159,160
 1054 987 1054 987 1084 1043 c 1,161,162
 1055 1034 1055 1034 1024 1034 c 0,163,164
 995 1034 995 1034 966 1041 c 1,165,166
 996 978 996 978 1013 932 c 2,167,-1
 1024 902 l 1,158,-1
1138 1818 m 1,168,-1
 909 1818 l 1,169,-1
 1024 1703 l 1,170,-1
 1138 1818 l 1,168,-1
1187 1541 m 1,171,-1
 1187 1770 l 1,172,-1
 1072 1655 l 1,173,-1
 1187 1541 l 1,171,-1
910 1493 m 1,174,-1
 1139 1493 l 1,175,-1
 1024 1608 l 1,176,-1
 910 1493 l 1,174,-1
863 1542 m 1,177,-1
 976 1656 l 1,178,-1
 862 1769 l 1,179,-1
 863 1542 l 1,177,-1
1024 1101 m 0,180,181
 1091 1101 1091 1101 1138.5 1148.5 c 128,-1,182
 1186 1196 1186 1196 1186 1263 c 256,183,184
 1186 1330 1186 1330 1138.5 1377.5 c 128,-1,185
 1091 1425 1091 1425 1024 1425 c 0,186,187
 956 1425 956 1425 909 1378 c 128,-1,188
 862 1331 862 1331 862 1263 c 256,189,190
 862 1195 862 1195 909 1148 c 128,-1,191
 956 1101 956 1101 1024 1101 c 0,180,181
1787 964 m 1,192,193
 1825 1013 1825 1013 1837 1055 c 128,-1,194
 1849 1097 1849 1097 1849 1138 c 0,195,196
 1849 1196 1849 1196 1825 1253 c 0,197,198
 1783 1349 1783 1349 1685 1385 c 0,199,200
 1639 1401 1639 1401 1569 1392 c 256,201,202
 1499 1383 1499 1383 1456 1365 c 1,203,204
 1480 1367 1480 1367 1502 1367 c 0,205,206
 1639 1367 1639 1367 1719 1282 c 0,207,208
 1811 1183 1811 1183 1811 1053 c 0,209,210
 1811 1033 1811 1033 1787 964 c 1,192,193
EndSplineSet
EndChar
StartChar: l
Encoding: 108 108 24
Width: 2048
Flags: W
Fore
1024 1170 m 256,0,1
 931 1170 931 1170 931 1263 c 0,2,3
 931 1357 931 1357 1024 1357 c 256,4,5
 1117 1357 1117 1357 1117 1263 c 0,6,7
 1117 1170 1117 1170 1024 1170 c 256,0,1
1024 666 m 0,8,9
 1373 666 1373 666 1553 603 c 1,10,11
 1554 666 1554 666 1579 733 c 0,12,13
 1625 858 1625 858 1742 936 c 0,14,15
 1849 1008 1849 1008 1849 1144 c 0,16,17
 1849 1198 1849 1198 1824 1252 c 0,18,19
 1780 1348 1780 1348 1680 1384 c 0,20,21
 1634 1401 1634 1401 1589 1401 c 0,22,23
 1518 1401 1518 1401 1454 1359 c 0,24,25
 1203 1195 1203 1195 1098 908 c 0,26,27
 1058 797 1058 797 1058 733 c 1,28,-1
 990 733 l 1,29,30
 990 797 990 797 950 909 c 0,31,32
 845 1195 845 1195 594 1359 c 0,33,34
 529 1401 529 1401 458 1401 c 0,35,36
 413 1401 413 1401 368 1385 c 0,37,38
 268 1348 268 1348 223 1252 c 0,39,40
 198 1199 198 1199 198 1145 c 0,41,42
 198 1009 198 1009 306 936 c 0,43,44
 424 857 424 857 469 733 c 0,45,46
 491 672 491 672 495 603 c 1,47,48
 671 666 671 666 1024 666 c 0,8,9
1024 454 m 0,49,50
 1370 454 1370 454 1551 392 c 1,51,52
 1551 406 1551 406 1550 434 c 128,-1,53
 1549 462 1549 462 1549 476 c 1,54,55
 1411 530 1411 530 1024 530 c 0,56,57
 636 530 636 530 499 476 c 1,58,59
 499 462 499 462 498 434 c 0,60,61
 498 406 498 406 498 392 c 1,62,63
 677 454 677 454 1024 454 c 0,49,50
1024 205 m 0,64,65
 1199 205 1199 205 1392 229 c 0,66,67
 1570 251 1570 251 1570 265 c 0,68,69
 1570 292 1570 292 1353 310 c 0,70,71
 1180 325 1180 325 1024 325 c 0,72,73
 840 325 840 325 651 301 c 0,74,75
 478 279 478 279 478 265 c 0,76,77
 478 239 478 239 695 220 c 0,78,79
 872 205 872 205 1024 205 c 0,64,65
1024 137 m 0,80,81
 864 137 864 137 688 159 c 0,82,83
 409 194 409 194 409 265 c 0,84,85
 409 281 409 281 428 297 c 1,86,87
 431 380 431 380 431 446 c 0,88,89
 431 553 431 553 424 632 c 0,90,91
 413 684 413 684 404 710 c 0,92,93
 366 813 366 813 261 884 c 0,94,95
 129 973 129 973 129 1145 c 0,96,97
 129 1214 129 1214 161 1281 c 0,98,99
 218 1404 218 1404 344 1450 c 0,100,101
 402 1471 402 1471 458 1471 c 0,102,103
 537 1471 537 1471 611 1429 c 0,104,105
 699 1378 699 1378 794 1280 c 1,106,107
 800 1364 800 1364 862 1426 c 1,108,-1
 794 1425 l 1,109,-1
 794 1886 l 1,110,-1
 1254 1886 l 1,111,-1
 1254 1425 l 1,112,-1
 1186 1426 l 1,113,114
 1246 1365 1246 1365 1253 1279 c 1,115,116
 1348 1377 1348 1377 1437 1429 c 0,117,118
 1510 1471 1510 1471 1590 1471 c 0,119,120
 1646 1471 1646 1471 1704 1450 c 0,121,122
 1830 1404 1830 1404 1887 1281 c 0,123,124
 1919 1214 1919 1214 1919 1145 c 0,125,126
 1919 1089 1919 1089 1898 1033 c 0,127,128
 1865 942 1865 942 1788 884 c 0,129,130
 1685 820 1685 820 1644 710 c 0,131,132
 1633 681 1633 681 1624 632 c 0,133,134
 1617 545 1617 545 1617 446 c 0,135,136
 1617 379 1617 379 1620 297 c 1,137,138
 1639 281 1639 281 1639 265 c 0,139,140
 1639 194 1639 194 1360 159 c 0,141,142
 1183 137 1183 137 1024 137 c 0,80,81
862 1547 m 1,143,-1
 862 1493 l 1,144,-1
 916 1493 l 1,145,-1
 1024 1604 l 1,146,-1
 1132 1493 l 1,147,-1
 1187 1493 l 1,148,-1
 1187 1547 l 1,149,-1
 1076 1656 l 1,150,-1
 1187 1769 l 1,151,-1
 1187 1818 l 1,152,-1
 1138 1818 l 1,153,-1
 1024 1707 l 1,154,-1
 916 1818 l 1,155,-1
 862 1818 l 1,156,-1
 862 1764 l 1,157,-1
 973 1656 l 1,158,-1
 862 1547 l 1,143,-1
1024 1101 m 0,159,160
 1091 1101 1091 1101 1138.5 1148.5 c 128,-1,161
 1186 1196 1186 1196 1186 1263 c 256,162,163
 1186 1330 1186 1330 1138.5 1377.5 c 128,-1,164
 1091 1425 1091 1425 1024 1425 c 0,165,166
 956 1425 956 1425 909 1378 c 128,-1,167
 862 1331 862 1331 862 1263 c 256,168,169
 862 1195 862 1195 909 1148 c 128,-1,170
 956 1101 956 1101 1024 1101 c 0,159,160
935 731 m 1,171,172
 714 725 714 725 562 689 c 1,173,174
 555 715 555 715 546 739 c 0,175,176
 491 889 491 889 354 978 c 0,177,178
 297 1014 297 1014 277 1073 c 0,179,180
 250 1146 250 1146 282.5 1215.5 c 128,-1,181
 315 1285 315 1285 388 1312 c 0,182,183
 421 1324 421 1324 454 1324 c 0,184,185
 504 1324 504 1324 550 1295 c 0,186,187
 797 1141 797 1141 897 867 c 0,188,189
 920 801 920 801 935 731 c 1,171,172
1114 731 m 1,190,191
 1127 801 1127 801 1151 867 c 0,192,193
 1250 1139 1250 1139 1498 1295 c 0,194,195
 1544 1324 1544 1324 1594 1324 c 0,196,197
 1626 1324 1626 1324 1660 1312 c 0,198,199
 1732 1285 1732 1285 1765 1215 c 128,-1,200
 1798 1145 1798 1145 1772 1073 c 0,201,202
 1750 1013 1750 1013 1695 978 c 0,203,204
 1557 888 1557 888 1502 739 c 0,205,206
 1491 709 1491 709 1486 688 c 1,207,208
 1338 724 1338 724 1114 731 c 1,190,191
EndSplineSet
EndChar
StartChar: m
Encoding: 109 109 25
Width: 2048
Flags: W
Fore
792 1548 m 0,0,1
 727 1491 727 1491 738 1465 c 0,2,3
 748 1442 748 1442 786 1460 c 0,4,5
 799 1466 799 1466 807 1476 c 0,6,7
 826 1507 826 1507 865 1523 c 0,8,9
 911 1541 911 1541 906 1561 c 0,10,11
 900 1586 900 1586 838 1570 c 0,12,13
 808 1562 808 1562 792 1548 c 0,0,1
474 670 m 0,14,15
 483 685 483 685 506 710 c 0,16,17
 522 730 522 730 549 764 c 0,18,19
 557 774 557 774 549 778 c 0,20,21
 541 783 541 783 518 782 c 0,22,23
 494 780 494 780 481 767 c 1,24,25
 455 748 455 748 431 718 c 0,26,27
 424 709 424 709 419 698 c 0,28,29
 399 650 399 650 429 641 c 0,30,31
 452 634 452 634 474 670 c 0,14,15
688 1524 m 1,32,33
 685 1571 685 1571 696 1632 c 0,34,35
 717 1756 717 1756 772 1825 c 1,36,37
 837 1764 837 1764 879 1648 c 0,38,39
 883 1636 883 1636 891 1611 c 1,40,41
 893 1608 893 1608 895 1608 c 256,42,43
 897 1608 897 1608 900 1611 c 1,44,45
 922 1736 922 1736 977 1805 c 1,46,47
 1041 1741 1041 1741 1083 1627 c 1,48,49
 1084 1621 1084 1621 1100 1611 c 1,50,-1
 1250 1604 l 1,51,-1
 1314 1540 l 1,52,-1
 1445 1506 l 1,53,-1
 1443 1444 l 1,54,-1
 1581 1388 l 1,55,-1
 1554 1310 l 1,56,-1
 1702 1232 l 1,57,-1
 1645 1200 l 1,58,-1
 1749 1067 l 1,59,-1
 1694 1053 l 1,60,-1
 1818 894 l 1,61,-1
 1749 896 l 1,62,-1
 1854 730 l 1,63,-1
 1778 751 l 1,64,-1
 1838 592 l 1,65,-1
 1771 591 l 1,66,-1
 1854 416 l 1,67,-1
 1785 407 l 1,68,-1
 1845 262 l 1,69,-1
 1788 243 l 1,70,-1
 1833 137 l 1,71,-1
 500 137 l 1,72,73
 498 147 498 147 498 157 c 0,74,75
 498 278 498 278 638 414 c 0,76,77
 646 422 646 422 780 540 c 0,78,79
 899 645 899 645 903 649 c 0,80,81
 984 725 984 725 1007.5 770.5 c 128,-1,82
 1031 816 1031 816 1040 858 c 1,83,84
 977 828 977 828 891 836 c 0,85,86
 846 839 846 839 804 856 c 1,87,88
 728 775 728 775 655 749 c 1,89,90
 639 710 639 710 615 677 c 0,91,92
 574 618 574 618 516 580 c 0,93,94
 439 529 439 529 390 564 c 0,95,96
 366 580 366 580 360 598 c 1,97,98
 352 598 352 598 328 605 c 0,99,100
 251 625 251 625 223 709 c 0,101,102
 198 783 198 783 219 863 c 0,103,104
 243 952 243 952 310 1003 c 0,105,106
 425 1112 425 1112 497 1258 c 0,107,108
 584 1436 584 1436 688 1524 c 1,32,33
390 876 m 0,109,110
 423 915 423 915 438 930 c 0,111,112
 452 946 452 946 436 968 c 0,113,114
 414 995 414 995 354 903 c 1,115,116
 346 873 346 873 360 861 c 0,117,118
 373 850 373 850 390 876 c 0,109,110
768 1290 m 1,119,120
 813 1317 813 1317 813 1337 c 0,121,122
 813 1365 813 1365 764 1356 c 0,123,124
 671 1339 671 1339 612 1268 c 0,125,126
 586 1238 586 1238 596 1222 c 0,127,128
 610 1197 610 1197 672 1228 c 1,129,130
 708 1188 708 1188 747 1210 c 0,131,132
 784 1232 784 1232 768 1290 c 1,119,120
1163 963 m 0,133,134
 1241 1065 1241 1065 1251 1191 c 0,135,136
 1252 1208 1252 1208 1252 1217 c 0,137,138
 1250 1270 1250 1270 1218 1270 c 0,139,140
 1185 1270 1185 1270 1185 1218 c 1,141,142
 1184 1214 1184 1214 1183 1196 c 0,143,144
 1175 1090 1175 1090 1109 1001 c 0,145,146
 1071 949 1071 949 1098 929 c 0,147,148
 1105 924 1105 924 1112 924 c 0,149,150
 1133 924 1133 924 1163 963 c 0,133,134
1204 886 m 0,151,152
 1284 958 1284 958 1314 1054 c 0,153,154
 1329 1100 1329 1100 1304 1110 c 0,155,156
 1277 1120 1277 1120 1261 1075 c 0,157,158
 1260 1071 1260 1071 1254 1057 c 0,159,160
 1227 990 1227 990 1172 938 c 0,161,162
 1136 911 1136 911 1153 885 c 0,163,164
 1168 859 1168 859 1204 886 c 0,151,152
1238 816 m 0,165,166
 1307 845 1307 845 1331 892 c 2,167,-1
 1338 906 l 1,168,169
 1352 954 1352 954 1328 966 c 0,170,171
 1303 978 1303 978 1282 934 c 0,172,173
 1276 923 1276 923 1276 924 c 1,174,175
 1256 888 1256 888 1213 866 c 0,176,177
 1181 850 1181 850 1192 825 c 0,178,179
 1203 801 1203 801 1238 816 c 0,165,166
1711 226 m 0,180,181
 1716 310 1716 310 1716 455 c 0,182,183
 1716 934 1716 934 1569 1190 c 1,184,185
 1559 1218 1559 1218 1534 1258 c 0,186,187
 1506 1304 1506 1304 1496 1296 c 0,188,189
 1485 1287 1485 1287 1514 1243 c 1,190,191
 1526 1214 1526 1214 1533 1192 c 0,192,193
 1626 990 1626 990 1626 672 c 0,194,195
 1626 556 1626 556 1605 338 c 0,196,197
 1600 283 1600 283 1591 226 c 1,198,199
 1591 214 1591 214 1652 214 c 0,200,201
 1711 214 1711 214 1711 226 c 0,180,181
EndSplineSet
EndChar
StartChar: n
Encoding: 110 110 26
Width: 2048
Flags: W
Fore
801 1284 m 1,0,1
 814 1237 814 1237 767 1210 c 0,2,3
 720 1182 720 1182 688 1218 c 1,4,5
 629 1200 629 1200 617 1222 c 0,6,7
 594 1261 594 1261 702 1323 c 0,8,9
 746 1349 746 1349 784 1356 c 0,10,11
 822 1362 822 1362 831 1347 c 0,12,13
 843 1325 843 1325 801 1284 c 1,0,1
477 980 m 0,14,15
 491 961 491 961 479 947 c 0,16,17
 446 912 446 912 400 846 c 1,18,19
 391 826 391 826 378 838 c 0,20,21
 371 843 371 843 371 854 c 0,22,23
 371 877 371 877 405 925 c 0,24,25
 459 1003 459 1003 477 980 c 0,14,15
825 1586 m 1,26,-1
 812 1624 l 2,27,28
 799 1658 799 1658 782 1695 c 1,29,30
 770 1647 770 1647 766 1619 c 0,31,32
 763 1603 763 1603 758 1568 c 1,33,34
 790 1581 790 1581 821 1586 c 0,35,36
 824 1586 824 1586 825 1586 c 1,26,-1
688 1524 m 1,37,38
 685 1571 685 1571 696 1632 c 0,39,40
 717 1756 717 1756 772 1825 c 1,41,42
 837 1764 837 1764 879 1648 c 0,43,44
 883 1636 883 1636 891 1611 c 1,45,46
 893 1608 893 1608 895 1608 c 256,47,48
 897 1608 897 1608 900 1611 c 1,49,50
 922 1736 922 1736 977 1805 c 1,51,52
 1041 1741 1041 1741 1083 1627 c 1,53,54
 1084 1621 1084 1621 1100 1611 c 1,55,-1
 1250 1604 l 1,56,-1
 1314 1540 l 1,57,-1
 1445 1506 l 1,58,-1
 1443 1444 l 1,59,-1
 1581 1388 l 1,60,-1
 1554 1310 l 1,61,-1
 1702 1232 l 1,62,-1
 1645 1200 l 1,63,-1
 1749 1067 l 1,64,-1
 1694 1053 l 1,65,-1
 1818 894 l 1,66,-1
 1749 896 l 1,67,-1
 1854 730 l 1,68,-1
 1778 751 l 1,69,-1
 1838 592 l 1,70,-1
 1771 591 l 1,71,-1
 1854 416 l 1,72,-1
 1785 407 l 1,73,-1
 1845 262 l 1,74,-1
 1788 243 l 1,75,-1
 1833 137 l 1,76,-1
 500 137 l 1,77,78
 498 147 498 147 498 157 c 0,79,80
 498 278 498 278 638 414 c 0,81,82
 646 422 646 422 780 540 c 0,83,84
 899 645 899 645 903 649 c 0,85,86
 984 725 984 725 1007.5 770.5 c 128,-1,87
 1031 816 1031 816 1040 858 c 1,88,89
 977 828 977 828 891 836 c 0,90,91
 846 839 846 839 804 856 c 1,92,93
 728 775 728 775 655 749 c 1,94,95
 639 710 639 710 615 677 c 0,96,97
 574 618 574 618 516 580 c 0,98,99
 439 529 439 529 390 564 c 0,100,101
 366 580 366 580 360 598 c 1,102,103
 352 598 352 598 328 605 c 0,104,105
 251 625 251 625 223 709 c 0,106,107
 198 783 198 783 219 863 c 0,108,109
 243 952 243 952 310 1003 c 0,110,111
 425 1112 425 1112 497 1258 c 0,112,113
 584 1436 584 1436 688 1524 c 1,37,38
1576 1184 m 1,114,115
 1541 1277 1541 1277 1430 1382 c 0,116,117
 1326 1482 1326 1482 1227 1526 c 0,118,119
 1158 1557 1158 1557 1096 1557 c 0,120,121
 1065 1557 1065 1557 1037 1550 c 1,122,123
 1030 1564 1030 1564 1016 1603 c 0,124,125
 1004 1637 1004 1637 987 1675 c 1,126,127
 963 1581 963 1581 962 1523 c 1,128,129
 888 1510 888 1510 862 1445 c 1,130,131
 854 1432 854 1432 843 1424 c 0,132,133
 805 1398 805 1398 791 1420 c 0,134,135
 787 1426 787 1426 789 1439 c 0,136,137
 795 1470 795 1470 831 1518 c 1,138,139
 776 1506 776 1506 754 1490 c 0,140,141
 644 1405 644 1405 560 1233.5 c 128,-1,142
 476 1062 476 1062 347 944 c 0,143,144
 302 903 302 903 286 845 c 0,145,146
 272 793 272 793 283 743 c 0,147,148
 297 682 297 682 345 670 c 1,149,150
 380 756 380 756 442 814 c 0,151,152
 456 829 456 829 480 831 c 0,153,154
 504 832 504 832 512 827 c 0,155,156
 519 822 519 822 512 810 c 0,157,158
 491 782 491 782 468 745 c 0,159,160
 444 716 444 716 431 691 c 0,161,162
 427 685 427 685 420 670 c 0,163,164
 409 637 409 637 427 621 c 0,165,166
 447 602 447 602 498 650 c 0,167,168
 532 682 532 682 557 717 c 0,169,170
 584 756 584 756 597 791 c 1,171,172
 699 836 699 836 772 902 c 1,173,174
 763 928 763 928 760 951 c 0,175,176
 751 1003 751 1003 784 1009 c 0,177,178
 815 1014 815 1014 826 963 c 0,179,180
 830 947 830 947 838 916 c 1,181,182
 883 902 883 902 922 902 c 0,183,184
 1044 902 1044 902 1131 1000 c 0,185,186
 1213 1091 1213 1091 1224 1217 c 0,187,188
 1225 1229 1225 1229 1226 1238 c 0,189,190
 1226 1290 1226 1290 1259 1290 c 0,191,192
 1291 1290 1291 1290 1293 1237 c 0,193,194
 1293 1228 1293 1228 1292 1212 c 0,195,196
 1280 1059 1280 1059 1173 947 c 1,197,198
 1288 1010 1288 1010 1334 1140 c 0,199,200
 1341 1160 1341 1160 1340 1160 c 1,201,202
 1354 1209 1354 1209 1386 1201 c 0,203,204
 1417 1193 1417 1193 1404 1142 c 0,205,206
 1367 990 1367 990 1225 898 c 1,207,208
 1358 907 1358 907 1402 1000 c 1,209,210
 1402 998 1402 998 1407 1011 c 0,211,212
 1427 1062 1427 1062 1455 1051 c 0,213,214
 1481 1040 1481 1040 1471 986 c 1,215,216
 1466 974 1466 974 1465 970 c 0,217,218
 1426 887 1426 887 1322 857 c 0,219,220
 1255 838 1255 838 1184 838 c 0,221,222
 1143 838 1143 838 1100 844 c 1,223,224
 1066 721 1066 721 988 646 c 0,225,226
 907 575 907 575 745 433 c 0,227,228
 612 316 612 316 582 205 c 1,229,-1
 1717 205 l 1,230,231
 1723 289 1723 289 1723 447 c 0,232,233
 1723 927 1723 927 1576 1184 c 1,114,115
EndSplineSet
EndChar
StartChar: o
Encoding: 111 111 27
Width: 2048
Flags: W
Fore
1024 707 m 0,0,1
 1105 707 1105 707 1154 718 c 0,2,3
 1187 726 1187 726 1183 755 c 0,4,5
 1179 781 1179 781 1145 783 c 1,6,7
 1107 773 1107 773 1024 773 c 0,8,9
 940 773 940 773 903 783 c 1,10,11
 869 782 869 782 866 755 c 0,12,13
 861 726 861 726 894 718 c 0,14,15
 941 707 941 707 1024 707 c 0,0,1
1024 1506 m 0,16,17
 1049 1506 1049 1506 1068 1512 c 0,18,19
 1098 1519 1098 1519 1092 1551 c 0,20,21
 1086 1584 1086 1584 1056 1579 c 1,22,23
 1040 1573 1040 1573 1024 1573 c 256,24,25
 1008 1573 1008 1573 992 1579 c 1,26,27
 961 1584 961 1584 956 1551 c 0,28,29
 950 1518 950 1518 980 1512 c 0,30,31
 1000 1505 1000 1505 1024 1506 c 0,16,17
1138 1552 m 1,32,33
 1205 1449 1205 1449 1300 1366 c 0,34,35
 1320 1348 1320 1348 1314 1331 c 0,36,37
 1308 1313 1308 1313 1280 1313 c 2,38,-1
 1190 1313 l 1,39,40
 1207 1258 1207 1258 1247 1222 c 0,41,42
 1351 1127 1351 1127 1351 993 c 0,43,44
 1351 849 1351 849 1239 757 c 1,45,46
 1283 706 1283 706 1338 672 c 0,47,48
 1472 601 1472 601 1551 471.5 c 128,-1,49
 1630 342 1630 342 1630 190 c 0,50,51
 1630 169 1630 169 1626 137 c 1,52,-1
 422 137 l 1,53,54
 418 180 418 180 418 190 c 0,55,56
 418 342 418 342 496.5 471.5 c 128,-1,57
 575 601 575 601 710 672 c 0,58,59
 764 706 764 706 809 757 c 1,60,61
 697 848 697 848 697 993 c 0,62,63
 697 1127 697 1127 801 1222 c 0,64,65
 839 1258 839 1258 858 1313 c 1,66,-1
 768 1313 l 2,67,68
 740 1313 740 1313 734 1331 c 0,69,70
 727 1348 727 1348 748 1366 c 0,71,72
 843 1450 843 1450 910 1552 c 1,73,74
 862 1600 862 1600 862 1667 c 256,75,76
 862 1734 862 1734 909.5 1781.5 c 128,-1,77
 957 1829 957 1829 1024 1829 c 256,78,79
 1091 1829 1091 1829 1138.5 1781.5 c 128,-1,80
 1186 1734 1186 1734 1186 1667 c 0,81,82
 1186 1602 1186 1602 1138 1552 c 1,32,33
959 1347 m 2,83,84
 925 1347 925 1347 925 1312 c 1,85,-1
 925 1312 l 1,86,87
 925 1278 925 1278 959 1278 c 2,88,-1
 1089 1278 l 2,89,90
 1123 1278 1123 1278 1124 1312 c 1,91,-1
 1124 1312 l 1,92,93
 1124 1347 1124 1347 1089 1347 c 2,94,-1
 959 1347 l 2,83,84
EndSplineSet
EndChar
StartChar: p
Encoding: 112 112 28
Width: 2048
Flags: W
Fore
1561 205 m 1,0,1
 1556 337 1556 337 1487 444 c 0,2,3
 1443 513 1443 513 1337 590 c 0,4,5
 1219 676 1219 676 1178 724 c 1,6,7
 1112 707 1112 707 1024 707 c 0,8,9
 935 707 935 707 870 724 c 1,10,11
 829 676 829 676 710 590 c 0,12,13
 605 513 605 513 560 444 c 0,14,15
 490 337 490 337 487 205 c 1,16,-1
 1561 205 l 1,0,1
1025 773 m 0,17,18
 1123 773 1123 773 1174 792 c 1,19,20
 1284 862 1284 862 1284 993 c 0,21,22
 1284 1096 1284 1096 1205 1170 c 0,23,24
 1141 1228 1141 1228 1121 1313 c 1,25,-1
 927 1313 l 1,26,27
 906 1228 906 1228 843 1170 c 0,28,29
 765 1097 765 1097 765 993 c 0,30,31
 765 862 765 862 875 792 c 1,32,33
 924 773 924 773 1025 773 c 0,17,18
1082 1516 m 1,34,35
 1055 1505 1055 1505 1024 1505 c 0,36,37
 997 1505 997 1505 968 1515 c 1,38,39
 914 1439 914 1439 861 1383 c 1,40,-1
 1187 1383 l 1,41,42
 1127 1444 1127 1444 1082 1516 c 1,34,35
1138 1552 m 1,43,44
 1205 1449 1205 1449 1300 1366 c 0,45,46
 1320 1348 1320 1348 1314 1331 c 0,47,48
 1308 1313 1308 1313 1280 1313 c 2,49,-1
 1190 1313 l 1,50,51
 1207 1258 1207 1258 1247 1222 c 0,52,53
 1351 1127 1351 1127 1351 993 c 0,54,55
 1351 849 1351 849 1239 757 c 1,56,57
 1283 706 1283 706 1338 672 c 0,58,59
 1472 601 1472 601 1551 471.5 c 128,-1,60
 1630 342 1630 342 1630 190 c 0,61,62
 1630 169 1630 169 1626 137 c 1,63,-1
 422 137 l 1,64,65
 418 180 418 180 418 190 c 0,66,67
 418 342 418 342 496.5 471.5 c 128,-1,68
 575 601 575 601 710 672 c 0,69,70
 764 706 764 706 809 757 c 1,71,72
 697 848 697 848 697 993 c 0,73,74
 697 1127 697 1127 801 1222 c 0,75,76
 839 1258 839 1258 858 1313 c 1,77,-1
 768 1313 l 2,78,79
 740 1313 740 1313 734 1331 c 0,80,81
 727 1348 727 1348 748 1366 c 0,82,83
 843 1450 843 1450 910 1552 c 1,84,85
 862 1600 862 1600 862 1667 c 256,86,87
 862 1734 862 1734 909.5 1781.5 c 128,-1,88
 957 1829 957 1829 1024 1829 c 256,89,90
 1091 1829 1091 1829 1138.5 1781.5 c 128,-1,91
 1186 1734 1186 1734 1186 1667 c 0,92,93
 1186 1602 1186 1602 1138 1552 c 1,43,44
1024 1573 m 256,94,95
 1118 1573 1118 1573 1118 1667 c 0,96,97
 1118 1762 1118 1762 1024 1762 c 256,98,99
 930 1762 930 1762 930 1667 c 0,100,101
 930 1573 930 1573 1024 1573 c 256,94,95
EndSplineSet
EndChar
StartChar: q
Encoding: 113 113 29
Width: 2048
Flags: W
Fore
1024 1585 m 256,0,1
 1058 1585 1058 1585 1058 1619 c 256,2,3
 1058 1653 1058 1653 1024 1653 c 256,4,5
 990 1653 990 1653 990 1619 c 256,6,7
 990 1585 990 1585 1024 1585 c 256,0,1
1024 1517 m 256,8,9
 922 1517 922 1517 922 1619 c 256,10,11
 922 1721 922 1721 1024 1721 c 256,12,13
 1126 1721 1126 1721 1126 1619 c 256,14,15
 1126 1517 1126 1517 1024 1517 c 256,8,9
635 1291 m 256,16,17
 533 1291 533 1291 533 1393 c 0,18,19
 533 1494 533 1494 635 1494 c 256,20,21
 737 1494 737 1494 737 1393 c 0,22,23
 737 1291 737 1291 635 1291 c 256,16,17
635 1359 m 256,24,25
 669 1359 669 1359 669 1393 c 256,26,27
 669 1427 669 1427 635 1427 c 256,28,29
 601 1427 601 1427 601 1393 c 256,30,31
 601 1359 601 1359 635 1359 c 256,24,25
354 1102 m 1,32,33
 411 983 411 983 454 861 c 1,34,35
 472 870 472 870 509 888 c 1,36,37
 483 918 483 918 457 966 c 0,38,39
 415 1026 415 1026 354 1102 c 1,32,33
1024 803 m 0,40,41
 1399 803 1399 803 1561 720 c 1,42,43
 1565 749 1565 749 1570 808 c 1,44,45
 1558 828 1558 828 1495 845 c 1,46,47
 1475 832 1475 832 1456 836 c 0,48,49
 1437 839 1437 839 1421 860 c 1,50,51
 1337 876 1337 876 1220 885 c 1,52,53
 1210 876 1210 876 1199 875 c 0,54,55
 1181 874 1181 874 1164 888 c 1,56,57
 1096 891 1096 891 1024 891 c 256,58,59
 952 891 952 891 884 888 c 1,60,61
 867 874 867 874 850 875 c 0,62,63
 837 876 837 876 828 885 c 1,64,65
 710 876 710 876 628 860 c 1,66,67
 611 839 611 839 592 836 c 0,68,69
 572 832 572 832 553 845 c 1,70,71
 489 828 489 828 478 808 c 1,72,73
 479 786 479 786 487 720 c 1,74,75
 648 803 648 803 1024 803 c 0,40,41
783 946 m 1,76,77
 735 1021 735 1021 687 1146 c 1,78,79
 683 1011 683 1011 660 929 c 1,80,81
 721 940 721 940 783 946 c 1,76,77
1024 959 m 256,82,83
 1069 959 1069 959 1114 958 c 1,84,85
 1058 1072 1058 1072 1024 1281 c 1,86,87
 988 1071 988 1071 934 958 c 1,88,89
 979 959 979 959 1024 959 c 256,82,83
1694 1102 m 1,90,91
 1619 1011 1619 1011 1591 966 c 0,92,93
 1573 937 1573 937 1539 888 c 1,94,95
 1557 878 1557 878 1594 861 c 1,96,97
 1635 983 1635 983 1694 1102 c 1,90,91
1265 946 m 1,98,99
 1325 941 1325 941 1389 929 c 1,100,101
 1364 1010 1364 1010 1361 1146 c 1,102,103
 1312 1021 1312 1021 1265 946 c 1,98,99
1024 138 m 1,104,-1
 1024 205 l 1,105,106
 1170 205 1170 205 1328 219 c 0,107,108
 1570 240 1570 240 1570 282 c 256,109,110
 1570 324 1570 324 1329 345 c 0,111,112
 1170 359 1170 359 1024 359 c 0,113,114
 877 359 877 359 719 345 c 0,115,116
 478 324 478 324 478 282 c 256,117,118
 478 240 478 240 720 219 c 0,119,120
 877 205 877 205 1024 205 c 1,121,-1
 1024 138 l 1,122,123
 862 138 862 138 686 163 c 0,124,125
 409 202 409 202 409 282 c 0,126,127
 409 298 409 298 427 316 c 1,128,129
 434 382 434 382 434 477 c 0,130,131
 434 645 434 645 417 769 c 1,132,133
 411 786 411 786 404 804 c 2,134,-1
 391 841 l 2,135,136
 336 991 336 991 266 1131 c 1,137,138
 334 1131 334 1131 360 1195 c 1,139,140
 412 1132 412 1132 488 1023 c 1,141,142
 543 905 543 905 580 911 c 0,143,144
 612 916 612 916 623 1022 c 0,145,146
 627 1068 627 1068 627 1124 c 0,147,148
 627 1198 627 1198 620 1292 c 1,149,150
 629 1291 629 1291 635 1291 c 0,151,152
 671 1291 671 1291 701 1315 c 1,153,154
 772 1067 772 1067 838 951 c 1,155,156
 860 954 860 954 874 954 c 1,157,158
 940 1038 940 1038 978 1463 c 2,159,-1
 980 1495 l 2,160,161
 982 1511 982 1511 984 1526 c 1,162,163
 1003 1517 1003 1517 1024 1517 c 0,164,165
 1044 1517 1044 1517 1064 1526 c 1,166,-1
 1070 1463 l 2,167,168
 1106 1038 1106 1038 1174 954 c 1,169,170
 1187 954 1187 954 1210 951 c 1,171,172
 1274 1066 1274 1066 1348 1314 c 1,173,174
 1376 1291 1376 1291 1413 1291 c 0,175,176
 1418 1291 1418 1291 1428 1292 c 1,177,178
 1420 1197 1420 1197 1420 1122 c 0,179,180
 1420 1067 1420 1067 1424 1022 c 0,181,182
 1435 916 1435 916 1468 911 c 0,183,184
 1504 905 1504 905 1560 1023 c 0,185,186
 1607 1097 1607 1097 1688 1195 c 1,187,188
 1713 1131 1713 1131 1782 1131 c 1,189,190
 1714 998 1714 998 1657 841 c 2,191,-1
 1631 769 l 1,192,193
 1614 639 1614 639 1614 477 c 0,194,195
 1614 386 1614 386 1620 316 c 1,196,197
 1639 300 1639 300 1639 282 c 0,198,199
 1639 202 1639 202 1362 163 c 0,200,201
 1186 138 1186 138 1024 138 c 1,104,-1
1551 357 m 1,202,203
 1546 416 1546 416 1546 477 c 0,204,205
 1546 567 1546 567 1554 658 c 0,206,207
 1553 700 1553 700 1316 721 c 0,208,209
 1163 735 1163 735 1024 735 c 0,210,211
 878 735 878 735 720 720 c 0,212,213
 492 698 492 698 494 658 c 0,214,215
 502 531 502 531 502 477 c 0,216,217
 502 426 502 426 498 357 c 1,218,219
 677 427 677 427 1024 427 c 0,220,221
 1367 427 1367 427 1551 357 c 1,202,203
1413 1291 m 256,222,223
 1311 1291 1311 1291 1311 1393 c 0,224,225
 1311 1494 1311 1494 1413 1494 c 256,226,227
 1515 1494 1515 1494 1515 1393 c 0,228,229
 1515 1291 1515 1291 1413 1291 c 256,222,223
1413 1359 m 256,230,231
 1447 1359 1447 1359 1447 1393 c 256,232,233
 1447 1427 1447 1427 1413 1427 c 256,234,235
 1379 1427 1379 1427 1379 1393 c 256,236,237
 1379 1359 1379 1359 1413 1359 c 256,230,231
1782 1131 m 256,238,239
 1680 1131 1680 1131 1680 1233 c 256,240,241
 1680 1335 1680 1335 1782 1335 c 256,242,243
 1884 1335 1884 1335 1884 1233 c 256,244,245
 1884 1131 1884 1131 1782 1131 c 256,238,239
1782 1199 m 256,246,247
 1816 1199 1816 1199 1816 1233 c 256,248,249
 1816 1267 1816 1267 1782 1267 c 256,250,251
 1748 1267 1748 1267 1748 1233 c 256,252,253
 1748 1199 1748 1199 1782 1199 c 256,246,247
266 1131 m 256,254,255
 164 1131 164 1131 164 1233 c 256,256,257
 164 1335 164 1335 266 1335 c 256,258,259
 368 1335 368 1335 368 1233 c 256,260,261
 368 1131 368 1131 266 1131 c 256,254,255
266 1199 m 256,262,263
 300 1199 300 1199 300 1233 c 256,264,265
 300 1267 300 1267 266 1267 c 256,266,267
 232 1267 232 1267 232 1233 c 256,268,269
 232 1199 232 1199 266 1199 c 256,262,263
EndSplineSet
EndChar
StartChar: r
Encoding: 114 114 30
Width: 2048
Flags: W
Fore
649 1433 m 1,0,-1
 649 683 l 1,1,-1
 1399 683 l 1,2,-1
 1399 1433 l 1,3,-1
 649 1433 l 1,0,-1
564 478 m 1,4,-1
 564 341 l 1,5,-1
 1484 341 l 1,6,-1
 1484 478 l 1,7,-1
 564 478 l 1,4,-1
616 614 m 1,8,-1
 574 546 l 1,9,-1
 1474 546 l 1,10,-1
 1432 614 l 1,11,-1
 616 614 l 1,8,-1
530 273 m 1,12,-1
 530 205 l 1,13,-1
 1520 205 l 1,14,-1
 1520 273 l 1,15,-1
 530 273 l 1,12,-1
1161 1911 m 1,16,-1
 1169 1792 l 1,17,-1
 1314 1792 l 1,18,-1
 1322 1911 l 1,19,-1
 1554 1911 l 1,20,-1
 1554 1570 l 1,21,-1
 1468 1433 l 1,22,-1
 1468 683 l 1,23,-1
 1554 546 l 1,24,-1
 1554 341 l 1,25,-1
 1587 341 l 1,26,-1
 1587 137 l 1,27,-1
 461 137 l 1,28,-1
 461 341 l 1,29,-1
 494 341 l 1,30,-1
 494 546 l 1,31,-1
 580 683 l 1,32,-1
 580 1433 l 1,33,-1
 494 1570 l 1,34,-1
 494 1911 l 1,35,-1
 725 1911 l 1,36,-1
 734 1792 l 1,37,-1
 879 1792 l 1,38,-1
 887 1911 l 1,39,-1
 1161 1911 l 1,16,-1
574 1570 m 1,40,-1
 616 1503 l 1,41,-1
 1432 1503 l 1,42,-1
 1474 1570 l 1,43,-1
 574 1570 l 1,40,-1
564 1638 m 1,44,-1
 1484 1638 l 1,45,-1
 1484 1843 l 1,46,-1
 1391 1843 l 1,47,-1
 1382 1724 l 1,48,-1
 1101 1724 l 1,49,-1
 1092 1843 l 1,50,-1
 956 1843 l 1,51,-1
 947 1724 l 1,52,-1
 666 1724 l 1,53,-1
 657 1843 l 1,54,-1
 564 1843 l 1,55,-1
 564 1638 l 1,44,-1
EndSplineSet
EndChar
StartChar: t
Encoding: 116 116 31
Width: 2048
Flags: W
Fore
574 1570 m 1,0,-1
 627 1485 l 1,1,-1
 1421 1485 l 1,2,-1
 1474 1570 l 1,3,-1
 574 1570 l 1,0,-1
1144 1911 m 1,4,-1
 1152 1792 l 1,5,-1
 1331 1792 l 1,6,-1
 1340 1911 l 1,7,-1
 1554 1911 l 1,8,-1
 1554 1570 l 1,9,-1
 1468 1433 l 1,10,-1
 1468 683 l 1,11,-1
 1554 546 l 1,12,-1
 1554 341 l 1,13,-1
 1587 341 l 1,14,-1
 1587 137 l 1,15,-1
 461 137 l 1,16,-1
 461 341 l 1,17,-1
 494 341 l 1,18,-1
 494 546 l 1,19,-1
 580 683 l 1,20,-1
 580 1433 l 1,21,-1
 494 1570 l 1,22,-1
 494 1911 l 1,23,-1
 709 1911 l 1,24,-1
 717 1792 l 1,25,-1
 896 1792 l 1,26,-1
 905 1911 l 1,27,-1
 1144 1911 l 1,4,-1
564 1724 m 1,28,-1
 564 1638 l 1,29,-1
 1484 1638 l 1,30,-1
 1484 1724 l 1,31,-1
 564 1724 l 1,28,-1
546 325 m 1,32,-1
 546 239 l 1,33,-1
 1502 239 l 1,34,-1
 1502 325 l 1,35,-1
 546 325 l 1,32,-1
564 546 m 1,36,-1
 564 460 l 1,37,-1
 1484 460 l 1,38,-1
 1484 546 l 1,39,-1
 564 546 l 1,36,-1
649 717 m 1,40,-1
 649 632 l 1,41,-1
 1400 632 l 1,42,-1
 1400 717 l 1,43,-1
 649 717 l 1,40,-1
EndSplineSet
EndChar
StartChar: v
Encoding: 118 118 32
Width: 2048
Flags: W
Fore
1024 856 m 0,0,1
 1021 856 1021 856 1017.5 858.5 c 128,-1,2
 1014 861 1014 861 1012 861 c 0,3,4
 961 859 961 859 961 842 c 0,5,6
 961 816 961 816 1024 816 c 0,7,8
 1088 816 1088 816 1088 842 c 0,9,10
 1088 859 1088 859 1037 861 c 0,11,12
 1034 861 1034 861 1030 858.5 c 128,-1,13
 1026 856 1026 856 1024 856 c 0,0,1
1341 1775 m 0,14,15
 1379 1789 1379 1789 1424.5 1789.5 c 128,-1,16
 1470 1790 1470 1790 1461 1824 c 0,17,18
 1452 1857 1452 1857 1407 1847 c 0,19,20
 1359 1837 1359 1837 1323 1824 c 0,21,22
 1230 1790 1230 1790 1240 1766 c 0,23,24
 1249 1741 1249 1741 1341 1775 c 0,14,15
1135 1063 m 1,25,26
 1182 1069 1182 1069 1181 1090 c 0,27,28
 1179 1112 1179 1112 1124 1107 c 256,29,30
 1069 1102 1069 1102 1071 1080 c 0,31,32
 1073 1061 1073 1061 1116 1061 c 1,33,34
 1109 1064 1109 1064 1109 1072 c 0,35,36
 1109 1085 1109 1085 1124 1085 c 256,37,38
 1139 1085 1139 1085 1139 1072 c 1,39,40
 1138 1067 1138 1067 1135 1063 c 1,25,26
913 1063 m 1,41,42
 910 1068 910 1068 910 1072 c 0,43,44
 910 1085 910 1085 924 1085 c 0,45,46
 939 1085 939 1085 939 1072 c 0,47,48
 939 1064 939 1064 932 1061 c 1,49,50
 975 1061 975 1061 977 1080 c 0,51,52
 978 1103 978 1103 924 1107 c 0,53,54
 868 1112 868 1112 867 1090 c 0,55,56
 866 1069 866 1069 913 1063 c 1,41,42
1024 1042 m 0,57,58
 1003 1042 1003 1042 1003 972 c 0,59,60
 1003 966 1003 966 1001 962 c 1,61,62
 988 953 988 953 988 940 c 0,63,64
 988 920 988 920 1008 918 c 1,65,66
 1017 903 1017 903 1024 903 c 0,67,68
 1030 903 1030 903 1040 918 c 1,69,70
 1060 919 1060 919 1060 940 c 0,71,72
 1060 952 1060 952 1047 962 c 1,73,74
 1046 966 1046 966 1046 972 c 0,75,76
 1046 1042 1046 1042 1024 1042 c 0,57,58
1277 1323 m 1,77,78
 1282 1335 1282 1335 1283 1337 c 0,79,80
 1294 1371 1294 1371 1304 1392 c 1,81,-1
 744 1392 l 1,82,83
 751 1375 751 1375 765 1337 c 0,84,85
 769 1327 769 1327 771 1323 c 1,86,-1
 1277 1323 l 1,77,78
1233 1190 m 1,87,88
 1252 1186 1252 1186 1259 1222 c 0,89,90
 1265 1258 1265 1258 1248 1258 c 2,91,-1
 800 1258 l 2,92,93
 782 1258 782 1258 789 1222 c 256,94,95
 796 1186 796 1186 815 1190 c 1,96,-1
 1233 1190 l 1,87,88
1050 621 m 2,97,98
 1107 621 1107 621 1143 651 c 1,99,100
 1126 672 1126 672 1116 690 c 1,101,102
 1081 678 1081 678 1050 678 c 2,103,-1
 998 678 l 2,104,105
 966 678 966 678 933 690 c 1,106,107
 921 672 921 672 905 651 c 1,108,109
 940 621 940 621 998 621 c 2,110,-1
 1050 621 l 2,97,98
320 137 m 1,111,-1
 320 205 l 2,112,113
 319 217 319 217 319 225 c 0,114,115
 320 233 320 233 320 245 c 0,116,117
 320 392 320 392 420 499 c 0,118,119
 514 601 514 601 664 619 c 0,120,121
 795 635 795 635 873 755 c 1,122,123
 870 756 870 756 869 759 c 1,124,125
 852 784 852 784 829 804 c 0,126,127
 732 889 732 889 732 1059 c 0,128,129
 732 1134 732 1134 747 1188 c 1,130,131
 730 1188 730 1188 730 1223 c 1,132,133
 702 1330 702 1330 648 1434 c 0,134,135
 624 1481 624 1481 655 1495 c 0,136,137
 682 1506 682 1506 707 1466 c 1,138,139
 753 1452 753 1452 811 1452 c 0,140,141
 945 1452 945 1452 993 1535 c 1,142,143
 986 1587 986 1587 1032 1646 c 1,144,145
 1073 1735 1073 1735 1259 1838 c 0,146,147
 1307 1864 1307 1864 1353 1884 c 1,148,149
 1376 1890 1376 1890 1399 1892 c 0,150,151
 1444 1895 1444 1895 1485 1882 c 0,152,153
 1540 1865 1540 1865 1544 1826 c 0,154,155
 1550 1753 1550 1753 1421 1736 c 0,156,157
 1214 1707 1214 1707 1094 1624 c 1,158,159
 1057 1584 1057 1584 1057 1552 c 0,160,161
 1057 1544 1057 1544 1059 1538 c 2,162,163
 1060 1527 1060 1527 1068 1518 c 0,164,165
 1122 1452 1122 1452 1240 1452 c 0,166,167
 1296 1452 1296 1452 1343 1466 c 1,168,169
 1366 1507 1366 1507 1394 1495 c 0,170,171
 1424 1481 1424 1481 1401 1434 c 0,172,173
 1344 1323 1344 1323 1319 1223 c 1,174,175
 1319 1188 1319 1188 1302 1188 c 1,176,177
 1317 1134 1317 1134 1317 1059 c 0,178,179
 1317 888 1317 888 1220 804 c 0,180,181
 1198 785 1198 785 1180 759 c 0,182,183
 1178 756 1178 756 1176 752 c 1,184,185
 1256 635 1256 635 1384 619 c 0,186,187
 1533 601 1533 601 1628 499 c 0,188,189
 1728 391 1728 391 1728 245 c 0,190,191
 1728 233 1728 233 1728.5 225 c 128,-1,192
 1729 217 1729 217 1728 205 c 2,193,-1
 1728 137 l 1,194,-1
 320 137 l 1,111,-1
EndSplineSet
EndChar
StartChar: w
Encoding: 119 119 33
Width: 2048
Flags: W
Fore
502 478 m 1,0,-1
 588 452 l 1,1,-1
 741 566 l 1,2,-1
 559 621 l 1,3,4
 518 591 518 591 499 576 c 1,5,6
 501 527 501 527 502 478 c 1,0,-1
1024 663 m 1,7,8
 939 621 939 621 853 577 c 1,9,-1
 938 534 l 2,10,11
 981 512 981 512 1024 492 c 1,12,-1
 1195 577 l 1,13,-1
 1024 663 l 1,7,8
1024 708 m 0,14,15
 1320 708 1320 708 1485 669 c 0,16,17
 1538 656 1538 656 1553 694 c 0,18,19
 1557 703 1557 703 1557 711 c 0,20,21
 1557 741 1557 741 1507 757 c 0,22,23
 1327 817 1327 817 1024 817 c 256,24,25
 721 817 721 817 541 757 c 0,26,27
 491 741 491 741 491 711 c 0,28,29
 491 703 491 703 495 694 c 0,30,31
 510 656 510 656 563 669 c 0,32,33
 727 708 727 708 1024 708 c 0,14,15
1024 339 m 0,34,35
 1320 339 1320 339 1485 300 c 0,36,37
 1538 287 1538 287 1553 325 c 0,38,39
 1557 334 1557 334 1557 342 c 0,40,41
 1557 372 1557 372 1507 389 c 0,42,43
 1328 448 1328 448 1024 448 c 0,44,45
 719 448 719 448 541 389 c 0,46,47
 491 372 491 372 491 342 c 0,48,49
 491 334 491 334 495 325 c 0,50,51
 510 287 510 287 563 300 c 0,52,53
 727 339 727 339 1024 339 c 0,34,35
1024 137 m 256,54,55
 863 137 863 137 686 162 c 0,56,57
 409 202 409 202 409 282 c 0,58,59
 409 298 409 298 427 316 c 1,60,61
 434 382 434 382 434 477 c 0,62,63
 434 645 434 645 417 769 c 1,64,65
 411 786 411 786 404 804 c 2,66,-1
 391 841 l 2,67,68
 336 991 336 991 266 1131 c 1,69,70
 164 1131 164 1131 164 1233 c 256,71,72
 164 1335 164 1335 266 1335 c 256,73,74
 368 1335 368 1335 368 1233 c 0,75,76
 368 1204 368 1204 356 1187 c 1,77,78
 388 1140 388 1140 455 1048 c 0,79,80
 462 1039 462 1039 480 1014 c 0,81,82
 551 908 551 908 580 911 c 0,83,84
 633 916 633 916 633 1084 c 0,85,86
 633 1168 633 1168 620 1292 c 1,87,88
 533 1305 533 1305 533 1393 c 0,89,90
 533 1494 533 1494 635 1494 c 256,91,92
 737 1494 737 1494 737 1393 c 0,93,94
 737 1344 737 1344 700 1314 c 1,95,96
 728 1145 728 1145 838 951 c 1,97,98
 860 954 860 954 874 954 c 1,99,100
 922 1015 922 1015 952 1201 c 0,101,102
 974 1337 974 1337 978 1463 c 0,103,104
 978 1489 978 1489 984 1526 c 1,105,106
 922 1550 922 1550 922 1619 c 0,107,108
 922 1721 922 1721 1024 1721 c 256,109,110
 1126 1721 1126 1721 1126 1619 c 0,111,112
 1126 1550 1126 1550 1064 1526 c 1,113,114
 1070 1482 1070 1482 1070 1463 c 0,115,116
 1073 1336 1073 1336 1095 1201 c 0,117,118
 1125 1015 1125 1015 1174 954 c 1,119,120
 1187 954 1187 954 1210 951 c 1,121,122
 1320 1148 1320 1148 1348 1314 c 1,123,124
 1311 1344 1311 1344 1311 1393 c 0,125,126
 1311 1494 1311 1494 1413 1494 c 256,127,128
 1515 1494 1515 1494 1515 1393 c 0,129,130
 1515 1305 1515 1305 1428 1292 c 1,131,132
 1415 1168 1415 1168 1415 1084 c 0,133,134
 1415 916 1415 916 1468 911 c 0,135,136
 1496 908 1496 908 1568 1014 c 0,137,138
 1596 1052 1596 1052 1650 1131 c 0,139,140
 1667 1159 1667 1159 1692 1187 c 1,141,142
 1680 1204 1680 1204 1680 1233 c 0,143,144
 1680 1335 1680 1335 1782 1335 c 256,145,146
 1884 1335 1884 1335 1884 1233 c 256,147,148
 1884 1131 1884 1131 1782 1131 c 1,149,150
 1714 998 1714 998 1657 841 c 2,151,-1
 1631 769 l 1,152,153
 1614 639 1614 639 1614 477 c 0,154,155
 1614 382 1614 382 1621 316 c 1,156,157
 1639 300 1639 300 1639 282 c 0,158,159
 1639 202 1639 202 1362 162 c 0,160,161
 1185 137 1185 137 1024 137 c 256,54,55
1546 478 m 1,162,163
 1546 527 1546 527 1549 576 c 1,164,165
 1529 591 1529 591 1489 621 c 1,166,-1
 1307 566 l 1,167,-1
 1383 509 l 2,168,169
 1421 480 1421 480 1460 452 c 1,170,171
 1502 464 1502 464 1546 478 c 1,162,163
EndSplineSet
EndChar
StartChar: Adieresis
Encoding: 196 196 34
Width: 2048
Flags: W
Fore
1827 0 m 1,0,-1
 1827 2047 l 1,1,-1
 1911 2047 l 1,2,-1
 1911 0 l 1,3,-1
 1827 0 l 1,0,-1
1312 1403 m 1,4,-1
 1330 1403 l 1,5,-1
 1330 1198 l 1,6,-1
 1312 1198 l 1,7,8
 1312 1278 1312 1278 1229 1278 c 2,9,-1
 970 1278 l 1,10,-1
 961 1061 l 1,11,12
 1035 1118 1035 1118 1146 1118 c 0,13,14
 1236 1118 1236 1118 1297 1074 c 0,15,16
 1365 1024 1365 1024 1365 937 c 0,17,18
 1365 819 1365 819 1270.5 729 c 128,-1,19
 1176 639 1176 639 1058 639 c 0,20,21
 976 639 976 639 903 665 c 1,22,-1
 903 861 l 1,23,-1
 938 861 l 1,24,25
 948 783 948 783 987 733 c 0,26,27
 1033 674 1033 674 1106 674 c 0,28,29
 1182 674 1182 674 1223 735 c 0,30,31
 1259 788 1259 788 1259 868 c 0,32,33
 1259 952 1259 952 1221 1012 c 0,34,35
 1176 1083 1176 1083 1097 1083 c 0,36,37
 1010 1083 1010 1083 956 994 c 1,38,-1
 921 994 l 1,39,-1
 938 1367 l 1,40,-1
 1277 1367 l 2,41,42
 1311 1367 1311 1367 1312 1403 c 1,4,-1
EndSplineSet
EndChar
StartChar: Aring
Encoding: 197 197 35
Width: 2048
Flags: W
Fore
1827 0 m 1,0,-1
 1827 2047 l 1,1,-1
 1911 2047 l 1,2,-1
 1911 0 l 1,3,-1
 1827 0 l 1,0,-1
956 960 m 1,4,5
 1050 1062 1050 1062 1166 1062 c 0,6,7
 1253 1062 1253 1062 1307 1018 c 0,8,9
 1365 970 1365 970 1365 885 c 0,10,11
 1365 787 1365 787 1281 718 c 0,12,13
 1202 653 1202 653 1102 653 c 0,14,15
 978 653 978 653 909 753 c 0,16,17
 850 841 850 841 850 971 c 0,18,19
 850 1131 850 1131 936 1257 c 0,20,21
 1034 1399 1034 1399 1187 1399 c 0,22,23
 1251 1399 1251 1399 1321 1364 c 1,24,-1
 1321 1168 l 1,25,-1
 1285 1168 l 1,26,27
 1284 1242 1284 1242 1257 1295 c 0,28,29
 1223 1364 1223 1364 1157 1364 c 0,30,31
 1093 1364 1093 1364 1042 1302 c 0,32,33
 1000 1252 1000 1252 981 1181 c 0,34,35
 956 1094 956 1094 956 1028 c 2,36,-1
 956 960 l 1,4,5
1125 1026 m 0,37,38
 1057 1026 1057 1026 1018 975 c 0,39,40
 983 928 983 928 983 858 c 0,41,42
 983 790 983 790 1017 742 c 0,43,44
 1055 688 1055 688 1120 688 c 0,45,46
 1186 688 1186 688 1224 742 c 0,47,48
 1259 791 1259 791 1259 859 c 0,49,50
 1259 926 1259 926 1226 973 c 0,51,52
 1189 1026 1189 1026 1125 1026 c 0,37,38
EndSplineSet
EndChar
StartChar: Ccedilla
Encoding: 199 199 36
Width: 2048
Flags: W
Fore
1827 0 m 1,0,-1
 1827 2047 l 1,1,-1
 1911 2047 l 1,2,-1
 1911 0 l 1,3,-1
 1827 0 l 1,0,-1
1038 1037 m 1,4,5
 1037 1037 1037 1037 1006 1054 c 0,6,7
 940 1089 940 1089 915 1114 c 0,8,9
 876 1153 876 1153 876 1212 c 0,10,11
 876 1294 876 1294 961 1350 c 0,12,13
 1036 1399 1036 1399 1123 1399 c 0,14,15
 1187 1399 1187 1399 1235 1372 c 0,16,17
 1294 1338 1294 1338 1294 1279 c 0,18,19
 1294 1202 1294 1202 1133 1082 c 1,20,21
 1149 1073 1149 1073 1189 1053 c 0,22,23
 1365 965 1365 965 1365 870 c 0,24,25
 1365 762 1365 762 1218 688 c 0,26,27
 1148 653 1148 653 1059 653 c 0,28,29
 971 653 971 653 908 689 c 0,30,31
 832 733 832 733 832 815 c 0,32,33
 832 909 832 909 998 1012 c 0,34,35
 1011 1020 1011 1020 1038 1037 c 1,4,5
1111 1094 m 1,36,37
 1205 1185 1205 1185 1205 1257 c 0,38,39
 1205 1364 1205 1364 1087 1364 c 0,40,41
 1035 1364 1035 1364 1000 1333 c 128,-1,42
 965 1302 965 1302 965 1252 c 0,43,44
 965 1170 965 1170 1111 1094 c 1,36,37
1067 1022 m 1,45,46
 938 930 938 930 938 838 c 0,47,48
 938 770 938 770 983 729 c 128,-1,49
 1028 688 1028 688 1097 688 c 0,50,51
 1163 688 1163 688 1211 730.5 c 128,-1,52
 1259 773 1259 773 1259 838 c 0,53,54
 1259 913 1259 913 1175 959 c 0,55,56
 1119 988 1119 988 1067 1022 c 1,45,46
EndSplineSet
EndChar
StartChar: Eacute
Encoding: 201 201 37
Width: 2048
Flags: W
Fore
0 1911 m 1,0,-1
 2048 1911 l 1,1,-1
 2048 1827 l 1,2,-1
 0 1827 l 1,3,-1
 0 1911 l 1,0,-1
944 1608 m 1,4,-1
 944 1582 l 1,5,6
 917 1573 917 1573 917 1552 c 2,7,-1
 917 1167 l 1,8,9
 994 1252 994 1252 1019 1274 c 0,10,11
 1088 1333 1088 1333 1151 1333 c 0,12,13
 1228 1333 1228 1333 1270 1270 c 0,14,15
 1308 1215 1308 1215 1308 1135 c 0,16,17
 1308 983 1308 983 1196 884 c 0,18,19
 1120 817 1120 817 993 817 c 2,20,-1
 942 817 l 2,21,22
 855 817 855 817 837 782 c 1,23,-1
 801 782 l 1,24,25
 828 843 828 843 828 916 c 2,26,-1
 828 1473 l 2,27,28
 828 1523 828 1523 789 1523 c 0,29,30
 770 1523 770 1523 739 1510 c 1,31,-1
 739 1537 l 1,32,-1
 944 1608 l 1,4,-1
915 910 m 1,33,34
 981 870 981 870 1058 870 c 0,35,36
 1165 870 1165 870 1202 975 c 0,37,38
 1219 1023 1219 1023 1219 1085 c 0,39,40
 1219 1262 1219 1262 1099 1262 c 0,41,42
 1013 1262 1013 1262 956 1164 c 0,43,44
 908 1080 908 1080 908 988 c 0,45,46
 908 955 908 955 915 910 c 1,33,34
EndSplineSet
EndChar
StartChar: aacute
Encoding: 225 225 38
Width: 2048
Flags: W
Fore
777 1312 m 1,0,1
 910 1401 910 1401 1023 1401 c 0,2,3
 1093 1401 1093 1401 1141 1367 c 0,4,5
 1195 1329 1195 1329 1195 1262 c 0,6,7
 1195 1192 1195 1192 1135 1113 c 0,8,9
 1108 1079 1108 1079 1023 994 c 2,10,-1
 788 761 l 1,11,-1
 1105 761 l 2,12,13
 1186 761 1186 761 1204 841 c 1,14,-1
 1222 841 l 1,15,-1
 1177 646 l 1,16,-1
 1160 646 l 1,17,-1
 1160 653 l 2,18,19
 1160 672 1160 672 1140 672 c 2,20,-1
 706 672 l 1,21,-1
 706 698 l 1,22,-1
 867 893 l 2,23,24
 914 949 914 949 976 1032 c 0,25,26
 1088 1182 1088 1182 1088 1263 c 0,27,28
 1088 1306 1088 1306 1060.5 1336 c 128,-1,29
 1033 1366 1033 1366 990 1366 c 0,30,31
 915 1366 915 1366 862 1285 c 0,32,33
 818 1216 818 1216 813 1135 c 1,34,-1
 777 1135 l 1,35,-1
 777 1312 l 1,0,1
1621 0 m 1,36,-1
 1621 2047 l 1,37,-1
 1826 2047 l 1,38,-1
 1826 0 l 1,39,-1
 1621 0 l 1,36,-1
1962 0 m 1,40,-1
 1962 2047 l 1,41,-1
 2048 2047 l 1,42,-1
 2048 0 l 1,43,-1
 1962 0 l 1,40,-1
EndSplineSet
EndChar
StartChar: agrave
Encoding: 224 224 39
Width: 2048
Flags: W
Fore
884 1291 m 1,0,-1
 1168 1389 l 1,1,-1
 1168 1362 l 1,2,3
 1124 1346 1124 1346 1124 1298 c 2,4,-1
 1124 758 l 2,5,6
 1124 687 1124 687 1196 687 c 2,7,-1
 1222 687 l 1,8,-1
 1222 660 l 1,9,-1
 928 660 l 1,10,-1
 928 687 l 1,11,-1
 955 687 l 2,12,13
 1026 687 1026 687 1026 758 c 2,14,-1
 1026 1242 l 2,15,16
 1026 1289 1026 1289 981 1289 c 0,17,18
 960 1289 960 1289 884 1264 c 1,19,-1
 884 1291 l 1,0,-1
1621 0 m 1,20,-1
 1621 2047 l 1,21,-1
 1826 2047 l 1,22,-1
 1826 0 l 1,23,-1
 1621 0 l 1,20,-1
1962 0 m 1,24,-1
 1962 2047 l 1,25,-1
 2048 2047 l 1,26,-1
 2048 0 l 1,27,-1
 1962 0 l 1,24,-1
EndSplineSet
EndChar
StartChar: acircumflex
Encoding: 226 226 40
Width: 2048
Flags: W
Fore
768 1311 m 1,0,1
 904 1399 904 1399 1019 1399 c 0,2,3
 1081 1399 1081 1399 1125 1372 c 0,4,5
 1177 1340 1177 1340 1177 1281 c 0,6,7
 1177 1164 1177 1164 929 1069 c 1,8,-1
 988 1071 l 2,9,10
 1222 1071 1222 1071 1222 929 c 0,11,12
 1222 817 1222 817 1119 733 c 0,13,14
 1021 653 1021 653 908 653 c 0,15,16
 834 653 834 653 742 679 c 1,17,-1
 742 875 l 1,18,-1
 777 875 l 1,19,20
 785 796 785 796 831 744 c 0,21,22
 882 688 882 688 959 688 c 0,23,24
 1031 688 1031 688 1074 740 c 0,25,26
 1115 789 1115 789 1115 863 c 0,27,28
 1115 1044 1115 1044 926 1044 c 2,29,-1
 831 1044 l 1,30,-1
 831 1071 l 1,31,32
 913 1077 913 1077 988 1135 c 0,33,34
 1071 1199 1071 1199 1071 1278 c 0,35,36
 1071 1364 1071 1364 976 1364 c 0,37,38
 897 1364 897 1364 848 1284 c 0,39,40
 807 1217 807 1217 804 1133 c 1,41,-1
 768 1133 l 1,42,-1
 768 1311 l 1,0,1
1621 0 m 1,43,-1
 1621 2047 l 1,44,-1
 1826 2047 l 1,45,-1
 1826 0 l 1,46,-1
 1621 0 l 1,43,-1
1962 0 m 1,47,-1
 1962 2047 l 1,48,-1
 2048 2047 l 1,49,-1
 2048 0 l 1,50,-1
 1962 0 l 1,47,-1
EndSplineSet
EndChar
StartChar: adieresis
Encoding: 228 228 41
Width: 2048
Flags: W
Fore
1168 1403 m 1,0,-1
 1186 1403 l 1,1,-1
 1186 1198 l 1,2,-1
 1168 1198 l 1,3,4
 1168 1278 1168 1278 1086 1278 c 2,5,-1
 826 1278 l 1,6,-1
 817 1061 l 1,7,8
 891 1118 891 1118 1002 1118 c 0,9,10
 1093 1118 1093 1118 1154 1074 c 0,11,12
 1222 1024 1222 1024 1222 937 c 0,13,14
 1222 819 1222 819 1127.5 729 c 128,-1,15
 1033 639 1033 639 915 639 c 0,16,17
 833 639 833 639 759 665 c 1,18,-1
 759 861 l 1,19,-1
 795 861 l 1,20,21
 805 783 805 783 844 733 c 0,22,23
 890 674 890 674 962 674 c 0,24,25
 1039 674 1039 674 1080 735 c 0,26,27
 1115 787 1115 787 1115 868 c 0,28,29
 1115 953 1115 953 1077 1012 c 0,30,31
 1033 1083 1033 1083 954 1083 c 0,32,33
 866 1083 866 1083 813 994 c 1,34,-1
 777 994 l 1,35,-1
 795 1367 l 1,36,-1
 1133 1367 l 2,37,38
 1168 1367 1168 1367 1168 1403 c 1,0,-1
1621 0 m 1,39,-1
 1621 2047 l 1,40,-1
 1826 2047 l 1,41,-1
 1826 0 l 1,42,-1
 1621 0 l 1,39,-1
1962 0 m 1,43,-1
 1962 2047 l 1,44,-1
 2048 2047 l 1,45,-1
 2048 0 l 1,46,-1
 1962 0 l 1,43,-1
EndSplineSet
EndChar
StartChar: atilde
Encoding: 227 227 42
Width: 2048
Flags: W
Fore
1029 1210 m 1,0,1
 950 1133 950 1133 893 1059 c 2,2,-1
 783 918 l 1,3,-1
 1029 918 l 1,4,-1
 1029 1210 l 1,0,1
1097 1389 m 1,5,-1
 1127 1389 l 1,6,-1
 1127 918 l 1,7,-1
 1242 918 l 1,8,-1
 1242 865 l 1,9,-1
 1127 865 l 1,10,-1
 1127 749 l 2,11,12
 1127 687 1127 687 1192 687 c 2,13,-1
 1207 687 l 1,14,-1
 1207 660 l 1,15,-1
 931 660 l 1,16,-1
 931 687 l 1,17,-1
 953 687 l 2,18,19
 1029 687 1029 687 1029 749 c 2,20,-1
 1029 865 l 1,21,-1
 718 865 l 1,22,-1
 718 888 l 1,23,-1
 930 1162 l 2,24,25
 1058 1327 1058 1327 1097 1389 c 1,5,-1
1621 0 m 1,26,-1
 1621 2047 l 1,27,-1
 1826 2047 l 1,28,-1
 1826 0 l 1,29,-1
 1621 0 l 1,26,-1
1962 0 m 1,30,-1
 1962 2047 l 1,31,-1
 2048 2047 l 1,32,-1
 2048 0 l 1,33,-1
 1962 0 l 1,30,-1
EndSplineSet
EndChar
StartChar: aring
Encoding: 229 229 43
Width: 2048
Flags: W
Fore
981 1026 m 0,0,1
 913 1026 913 1026 874 975 c 0,2,3
 840 928 840 928 840 858 c 0,4,5
 840 790 840 790 873 742 c 0,6,7
 912 688 912 688 977 688 c 256,8,9
 1042 688 1042 688 1081 742 c 0,10,11
 1115 791 1115 791 1115 859 c 0,12,13
 1115 926 1115 926 1082 973 c 0,14,15
 1045 1026 1045 1026 981 1026 c 0,0,1
813 960 m 1,16,17
 906 1062 906 1062 1022 1062 c 0,18,19
 1110 1062 1110 1062 1163 1018 c 0,20,21
 1222 971 1222 971 1222 885 c 0,22,23
 1222 787 1222 787 1138 718 c 0,24,25
 1059 653 1059 653 959 653 c 0,26,27
 835 653 835 653 766 753 c 0,28,29
 706 841 706 841 706 971 c 0,30,31
 706 1132 706 1132 793 1258 c 0,32,33
 890 1399 890 1399 1044 1399 c 0,34,35
 1107 1399 1107 1399 1177 1364 c 1,36,-1
 1177 1168 l 1,37,-1
 1142 1168 l 1,38,39
 1140 1242 1140 1242 1114 1295 c 0,40,41
 1080 1364 1080 1364 1014 1364 c 0,42,43
 889 1364 889 1364 837 1181 c 0,44,45
 813 1097 813 1097 813 1028 c 2,46,-1
 813 960 l 1,16,17
1621 0 m 1,47,-1
 1621 2047 l 1,48,-1
 1826 2047 l 1,49,-1
 1826 0 l 1,50,-1
 1621 0 l 1,47,-1
1962 0 m 1,51,-1
 1962 2047 l 1,52,-1
 2048 2047 l 1,53,-1
 2048 0 l 1,54,-1
 1962 0 l 1,51,-1
EndSplineSet
EndChar
StartChar: ccedilla
Encoding: 231 231 44
Width: 2048
Flags: W
Fore
923 1022 m 1,0,1
 795 930 795 930 795 838 c 0,2,3
 795 770 795 770 840 729 c 128,-1,4
 885 688 885 688 954 688 c 0,5,6
 1019 688 1019 688 1067 730.5 c 128,-1,7
 1115 773 1115 773 1115 838 c 0,8,9
 1115 913 1115 913 1031 959 c 0,10,11
 976 988 976 988 923 1022 c 1,0,1
967 1094 m 1,12,13
 1062 1185 1062 1185 1062 1257 c 0,14,15
 1062 1364 1062 1364 944 1364 c 0,16,17
 892 1364 892 1364 857 1333 c 128,-1,18
 822 1302 822 1302 822 1252 c 0,19,20
 822 1170 822 1170 967 1094 c 1,12,13
895 1037 m 1,21,22
 894 1037 894 1037 863 1054 c 0,23,24
 797 1089 797 1089 772 1114 c 0,25,26
 733 1153 733 1153 733 1212 c 0,27,28
 733 1294 733 1294 818 1350 c 0,29,30
 893 1399 893 1399 980 1399 c 0,31,32
 1044 1399 1044 1399 1092 1372 c 0,33,34
 1151 1339 1151 1339 1151 1279 c 0,35,36
 1151 1203 1151 1203 990 1082 c 1,37,38
 1008 1071 1008 1071 1046 1053 c 0,39,40
 1144 1003 1144 1003 1183 963.5 c 128,-1,41
 1222 924 1222 924 1222 870 c 0,42,43
 1222 761 1222 761 1075 688 c 0,44,45
 1004 653 1004 653 916 653 c 256,46,47
 828 653 828 653 765 689 c 0,48,49
 689 733 689 733 689 815 c 0,50,51
 689 909 689 909 855 1012 c 2,52,-1
 877 1026 l 2,53,54
 888 1032 888 1032 895 1037 c 1,21,22
1621 0 m 1,55,-1
 1621 2047 l 1,56,-1
 1826 2047 l 1,57,-1
 1826 0 l 1,58,-1
 1621 0 l 1,55,-1
1962 0 m 1,59,-1
 1962 2047 l 1,60,-1
 2048 2047 l 1,61,-1
 2048 0 l 1,62,-1
 1962 0 l 1,59,-1
EndSplineSet
EndChar
StartChar: eacute
Encoding: 233 233 45
Width: 2048
Flags: W
Fore
915 767 m 1,0,1
 980 727 980 727 1058 727 c 0,2,3
 1219 727 1219 727 1219 942 c 0,4,5
 1219 1118 1219 1118 1099 1118 c 0,6,7
 1012 1118 1012 1118 956 1020 c 0,8,9
 908 937 908 937 908 845 c 0,10,11
 908 811 908 811 915 767 c 1,0,1
944 1465 m 1,12,-1
 944 1438 l 1,13,14
 917 1429 917 1429 917 1408 c 2,15,-1
 917 1023 l 1,16,17
 995 1109 995 1109 1019 1130 c 0,18,19
 1089 1189 1089 1189 1151 1189 c 0,20,21
 1227 1189 1227 1189 1270 1127 c 0,22,23
 1308 1072 1308 1072 1308 992 c 0,24,25
 1308 839 1308 839 1196 740 c 0,26,27
 1120 674 1120 674 993 674 c 2,28,-1
 942 674 l 2,29,30
 855 674 855 674 837 638 c 1,31,-1
 801 638 l 1,32,33
 828 699 828 699 828 772 c 2,34,-1
 828 1330 l 2,35,36
 828 1380 828 1380 789 1380 c 0,37,38
 771 1380 771 1380 739 1367 c 1,39,-1
 739 1394 l 1,40,-1
 944 1465 l 1,12,-1
0 1962 m 1,41,-1
 0 2048 l 1,42,-1
 2048 2048 l 1,43,-1
 2048 1962 l 1,44,-1
 0 1962 l 1,41,-1
0 1621 m 1,45,-1
 0 1826 l 1,46,-1
 2048 1826 l 1,47,-1
 2048 1621 l 1,48,-1
 0 1621 l 1,45,-1
EndSplineSet
EndChar
StartChar: egrave
Encoding: 232 232 46
Width: 2048
Flags: W
Fore
0 1962 m 1,0,-1
 0 2048 l 1,1,-1
 2048 2048 l 1,2,-1
 2048 1962 l 1,3,-1
 0 1962 l 1,0,-1
0 1621 m 1,4,-1
 0 1826 l 1,5,-1
 2048 1826 l 1,6,-1
 2048 1621 l 1,7,-1
 0 1621 l 1,4,-1
831 1115 m 1,8,9
 958 1186 958 1186 1070 1186 c 0,10,11
 1169 1186 1169 1186 1169 1085 c 2,12,-1
 1169 740 l 2,13,14
 1169 715 1169 715 1190 715 c 0,15,16
 1212 715 1212 715 1266 760 c 1,17,-1
 1266 724 l 1,18,19
 1182 653 1182 653 1127 653 c 0,20,21
 1080 653 1080 653 1080 705 c 2,22,-1
 1080 785 l 1,23,24
 948 653 948 653 876 653 c 0,25,26
 832 653 832 653 804 687 c 0,27,28
 777 718 777 718 777 763 c 0,29,30
 777 880 777 880 1080 1017 c 1,31,-1
 1080 1082 l 2,32,33
 1080 1151 1080 1151 1012 1151 c 0,34,35
 952 1151 952 1151 910 1094 c 0,36,37
 873 1046 873 1046 866 982 c 1,38,-1
 831 982 l 1,39,-1
 831 1115 l 1,8,9
1089 964 m 1,40,41
 1011 948 1011 948 949 910 c 0,42,43
 866 859 866 859 866 795 c 0,44,45
 866 724 866 724 941 724 c 0,46,47
 1017 724 1017 724 1057 811 c 0,48,49
 1087 876 1087 876 1089 964 c 1,40,41
EndSplineSet
EndChar
StartChar: ecircumflex
Encoding: 234 234 47
Width: 2048
Flags: W
Fore
1242 825 m 1,0,1
 1120 674 1120 674 1006 674 c 0,2,3
 913 674 913 674 853 747 c 0,4,5
 798 815 798 815 798 909 c 0,6,7
 798 1026 798 1026 874 1114 c 0,8,9
 953 1207 953 1207 1068 1207 c 0,10,11
 1135 1207 1135 1207 1216 1171 c 1,12,-1
 1216 1020 l 1,13,-1
 1180 1020 l 1,14,15
 1179 1083 1179 1083 1142 1127 c 128,-1,16
 1105 1171 1105 1171 1044 1171 c 0,17,18
 967 1171 967 1171 924 1100 c 0,19,20
 887 1040 887 1040 887 959 c 0,21,22
 887 875 887 875 927 814 c 0,23,24
 974 745 974 745 1054 745 c 0,25,26
 1137 745 1137 745 1242 860 c 1,27,-1
 1242 825 l 1,0,1
0 1621 m 1,28,-1
 0 1826 l 1,29,-1
 2048 1826 l 1,30,-1
 2048 1621 l 1,31,-1
 0 1621 l 1,28,-1
0 1962 m 1,32,-1
 0 2048 l 1,33,-1
 2048 2048 l 1,34,-1
 2048 1962 l 1,35,-1
 0 1962 l 1,32,-1
EndSplineSet
EndChar
StartChar: edieresis
Encoding: 235 235 48
Width: 2048
Flags: W
Fore
1140 1092 m 1,0,1
 1062 1154 1062 1154 992 1154 c 0,2,3
 916 1154 916 1154 872 1073 c 0,4,5
 836 1006 836 1006 836 924 c 0,6,7
 836 858 836 858 865 807 c 0,8,9
 900 745 900 745 962 745 c 0,10,11
 1042 745 1042 745 1098 850 c 0,12,13
 1147 940 1147 940 1147 1028 c 0,14,15
 1147 1065 1147 1065 1140 1092 c 1,0,1
1058 1411 m 1,16,-1
 1254 1483 l 1,17,-1
 1254 1456 l 1,18,19
 1227 1446 1227 1446 1227 1417 c 2,20,-1
 1227 789 l 2,21,22
 1227 741 1227 741 1265 741 c 0,23,24
 1281 741 1281 741 1307 754 c 1,25,-1
 1307 727 l 1,26,-1
 1164 674 l 1,27,-1
 1138 674 l 1,28,-1
 1138 846 l 1,29,30
 1067 760 1067 760 1039 735 c 0,31,32
 972 674 972 674 909 674 c 0,33,34
 832 674 832 674 786 744 c 0,35,36
 747 805 747 805 747 887 c 0,37,38
 747 999 747 999 828 1100 c 0,39,40
 914 1207 914 1207 1024 1207 c 0,41,42
 1059 1207 1059 1207 1108 1183 c 0,43,44
 1138 1167 l 1,45,-1
 1138 1343 l 2,46,47
 1138 1396 1138 1396 1104 1396 c 0,48,49
 1085 1396 1085 1396 1058 1385 c 1,50,-1
 1058 1411 l 1,16,-1
0 1621 m 1,51,-1
 0 1826 l 1,52,-1
 2048 1826 l 1,53,-1
 2048 1621 l 1,54,-1
 0 1621 l 1,51,-1
0 1962 m 1,55,-1
 0 2048 l 1,56,-1
 2048 2048 l 1,57,-1
 2048 1962 l 1,58,-1
 0 1962 l 1,55,-1
EndSplineSet
EndChar
StartChar: iacute
Encoding: 237 237 49
Width: 2048
Flags: W
Fore
846 1136 m 1,0,-1
 870 1136 l 2,1,2
 913 1136 913 1136 935 1211 c 0,3,4
 997 1429 997 1429 1145 1429 c 0,5,6
 1164 1429 1164 1429 1201 1412 c 1,7,-1
 1201 1269 l 1,8,-1
 1166 1269 l 1,9,10
 1162 1376 1162 1376 1094 1376 c 0,11,12
 1049 1376 1049 1376 1024 1327 c 0,13,14
 1006 1288 1006 1288 1006 1238 c 0,15,16
 1006 1136 1006 1136 1102 1136 c 2,17,-1
 1148 1136 l 1,18,-1
 1148 1109 l 1,19,-1
 1015 1109 l 1,20,-1
 1015 789 l 2,21,22
 1015 701 1015 701 1095 700 c 1,23,-1
 1095 674 l 1,24,-1
 846 674 l 1,25,-1
 846 700 l 1,26,27
 926 701 926 701 926 789 c 2,28,-1
 926 1109 l 1,29,-1
 846 1109 l 1,30,-1
 846 1136 l 1,0,-1
0 1621 m 1,31,-1
 0 1826 l 1,32,-1
 2048 1826 l 1,33,-1
 2048 1621 l 1,34,-1
 0 1621 l 1,31,-1
0 1962 m 1,35,-1
 0 2048 l 1,36,-1
 2048 2048 l 1,37,-1
 2048 1962 l 1,38,-1
 0 1962 l 1,35,-1
EndSplineSet
EndChar
StartChar: igrave
Encoding: 236 236 50
Width: 2048
Flags: W
Fore
1130 1038 m 1,0,1
 1118 1171 1118 1171 1018 1171 c 0,2,3
 969 1171 969 1171 933 1128 c 0,4,5
 902 1090 902 1090 895 1038 c 1,6,-1
 1130 1038 l 1,0,1
1245 825 m 1,7,8
 1123 674 1123 674 1007 674 c 0,9,10
 918 674 918 674 857 751 c 0,11,12
 801 822 801 822 801 914 c 0,13,14
 801 1021 801 1021 867 1110 c 0,15,16
 940 1207 940 1207 1044 1207 c 0,17,18
 1123 1207 1123 1207 1172 1147 c 0,19,20
 1216 1093 1216 1093 1219 1011 c 1,21,-1
 890 1011 l 1,22,23
 890 1005 890 1005 890 979 c 0,24,25
 890 891 890 891 930 824 c 0,26,27
 978 745 978 745 1061 745 c 0,28,29
 1151 745 1151 745 1245 860 c 1,30,-1
 1245 825 l 1,7,8
0 1621 m 1,31,-1
 0 1826 l 1,32,-1
 2048 1826 l 1,33,-1
 2048 1621 l 1,34,-1
 0 1621 l 1,31,-1
0 1962 m 1,35,-1
 0 2048 l 1,36,-1
 2048 2048 l 1,37,-1
 2048 1962 l 1,38,-1
 0 1962 l 1,35,-1
EndSplineSet
EndChar
StartChar: icircumflex
Encoding: 238 238 51
Width: 2048
Flags: W
Fore
1032 722 m 1,0,1
 824 663 824 663 824 575 c 0,2,3
 824 520 824 520 890 492 c 0,4,5
 940 472 940 472 1003 472 c 0,6,7
 1080 472 1080 472 1143 501 c 0,8,9
 1225 539 1225 539 1225 609 c 0,10,11
 1225 638 1225 638 1201 654 c 128,-1,12
 1177 670 1177 670 1096 699 c 2,13,-1
 1032 722 l 1,0,1
1015 1174 m 0,14,15
 961 1174 961 1174 928.5 1138.5 c 128,-1,16
 896 1103 896 1103 896 1049 c 0,17,18
 896 996 896 996 927 960.5 c 128,-1,19
 958 925 958 925 1010 925 c 0,20,21
 1060 925 1060 925 1093.5 961.5 c 128,-1,22
 1127 998 1127 998 1127 1050 c 0,23,24
 1127 1101 1127 1101 1096 1137.5 c 128,-1,25
 1065 1174 1065 1174 1015 1174 c 0,14,15
1056 899 m 1,26,27
 985 889 985 889 972 889 c 0,28,29
 907 889 907 889 860 920 c 0,30,31
 807 955 807 955 807 1017 c 0,32,33
 807 1098 807 1098 890 1156 c 0,34,35
 966 1209 966 1209 1051 1209 c 0,36,37
 1087 1209 1087 1209 1154 1180 c 0,38,39
 1227 1147 1227 1147 1273 1147 c 2,40,-1
 1313 1147 l 1,41,-1
 1313 1121 l 1,42,-1
 1202 1121 l 1,43,44
 1216 1094 1216 1094 1216 1071 c 0,45,46
 1216 1003 1216 1003 1112 918 c 0,47,48
 1047 864 1047 864 1047 843 c 0,49,50
 1047 809 1047 809 1151 774 c 0,51,52
 1313 718 1313 718 1313 641 c 0,53,54
 1313 542 1313 542 1182 483 c 0,55,56
 1077 436 1077 436 965 436 c 0,57,58
 885 436 885 436 822 461 c 0,59,60
 736 496 736 496 736 564 c 0,61,62
 736 683 736 683 998 737 c 1,63,64
 958 767 958 767 958 802 c 0,65,66
 958 839 958 839 1056 899 c 1,26,27
0 1621 m 1,67,-1
 0 1826 l 1,68,-1
 2048 1826 l 1,69,-1
 2048 1621 l 1,70,-1
 0 1621 l 1,67,-1
0 1962 m 1,71,-1
 0 2048 l 1,72,-1
 2048 2048 l 1,73,-1
 2048 1962 l 1,74,-1
 0 1962 l 1,71,-1
EndSplineSet
EndChar
StartChar: idieresis
Encoding: 239 239 52
Width: 2048
Flags: W
Fore
948 1465 m 1,0,-1
 948 1438 l 1,1,2
 921 1429 921 1429 921 1397 c 2,3,-1
 921 1009 l 1,4,5
 1049 1189 1049 1189 1152 1189 c 0,6,7
 1241 1189 1241 1189 1241 1071 c 2,8,-1
 1241 789 l 2,9,10
 1241 701 1241 701 1321 700 c 1,11,-1
 1321 674 l 1,12,-1
 1126 674 l 1,13,-1
 1126 700 l 1,14,15
 1152 700 1152 700 1152 729 c 2,16,-1
 1152 1056 l 2,17,18
 1152 1127 1152 1127 1095 1127 c 0,19,20
 1013 1127 1013 1127 957 1003 c 0,21,22
 912 902 912 902 912 809 c 0,23,24
 912 692 912 692 986 698 c 2,25,-1
 1010 700 l 1,26,-1
 1010 674 l 1,27,-1
 752 674 l 1,28,-1
 752 700 l 1,29,30
 832 701 832 701 832 789 c 2,31,-1
 832 1344 l 2,32,33
 832 1378 832 1378 793 1378 c 0,34,35
 772 1378 772 1378 743 1367 c 1,36,-1
 743 1394 l 1,37,-1
 948 1465 l 1,0,-1
0 1621 m 1,38,-1
 0 1826 l 1,39,-1
 2048 1826 l 1,40,-1
 2048 1621 l 1,41,-1
 0 1621 l 1,38,-1
0 1962 m 1,42,-1
 0 2048 l 1,43,-1
 2048 2048 l 1,44,-1
 2048 1962 l 1,45,-1
 0 1962 l 1,42,-1
EndSplineSet
EndChar
StartChar: AE
Encoding: 198 198 53
Width: 2048
Flags: W
Fore
1827 0 m 1,0,-1
 1827 2047 l 1,1,-1
 1911 2047 l 1,2,-1
 1911 0 l 1,3,-1
 1827 0 l 1,0,-1
885 1391 m 1,4,-1
 912 1391 l 1,5,-1
 912 1386 l 2,6,7
 912 1364 912 1364 947 1364 c 2,8,-1
 1365 1364 l 1,9,-1
 1365 1330 l 1,10,11
 1235 1162 1235 1162 1176 1013 c 0,12,13
 1112 850 1112 850 1108 653 c 1,14,-1
 1001 653 l 1,15,16
 1011 886 1011 886 1127 1056 c 0,17,18
 1189 1147 1189 1147 1220 1185 c 2,19,-1
 1294 1275 l 1,20,-1
 992 1275 l 2,21,22
 912 1275 912 1275 912 1195 c 1,23,-1
 885 1195 l 1,24,-1
 885 1391 l 1,4,-1
EndSplineSet
EndChar
StartChar: ae
Encoding: 230 230 54
Width: 2048
Flags: W
Fore
742 1391 m 1,0,-1
 769 1391 l 1,1,-1
 769 1386 l 2,2,3
 769 1364 769 1364 804 1364 c 2,4,-1
 1222 1364 l 1,5,-1
 1222 1330 l 1,6,7
 972 1008 972 1008 964 653 c 1,8,-1
 858 653 l 1,9,10
 867 886 867 886 984 1056 c 0,11,12
 1050 1152 1050 1152 1077 1185 c 2,13,-1
 1151 1275 l 1,14,-1
 849 1275 l 2,15,16
 769 1275 769 1275 769 1195 c 1,17,-1
 742 1195 l 1,18,-1
 742 1391 l 1,0,-1
1621 0 m 1,19,-1
 1621 2047 l 1,20,-1
 1826 2047 l 1,21,-1
 1826 0 l 1,22,-1
 1621 0 l 1,19,-1
1962 0 m 1,23,-1
 1962 2047 l 1,24,-1
 2048 2047 l 1,25,-1
 2048 0 l 1,26,-1
 1962 0 l 1,23,-1
EndSplineSet
EndChar
StartChar: Agrave
Encoding: 192 192 55
Width: 2048
Flags: W
Fore
1827 0 m 1,0,-1
 1827 2047 l 1,1,-1
 1911 2047 l 1,2,-1
 1911 0 l 1,3,-1
 1827 0 l 1,0,-1
1027 1291 m 1,4,-1
 1312 1389 l 1,5,-1
 1312 1362 l 1,6,7
 1267 1346 1267 1346 1267 1298 c 2,8,-1
 1267 758 l 2,9,10
 1267 687 1267 687 1339 687 c 2,11,-1
 1365 687 l 1,12,-1
 1365 660 l 1,13,-1
 1072 660 l 1,14,-1
 1072 687 l 1,15,-1
 1098 687 l 2,16,17
 1170 687 1170 687 1170 758 c 2,18,-1
 1170 1242 l 2,19,20
 1170 1289 1170 1289 1125 1289 c 0,21,22
 1104 1289 1104 1289 1027 1264 c 1,23,-1
 1027 1291 l 1,4,-1
EndSplineSet
EndChar
StartChar: Atilde
Encoding: 195 195 56
Width: 2048
Flags: W
Fore
1827 0 m 1,0,-1
 1827 2047 l 1,1,-1
 1911 2047 l 1,2,-1
 1911 0 l 1,3,-1
 1827 0 l 1,0,-1
1240 1389 m 1,4,-1
 1270 1389 l 1,5,-1
 1270 918 l 1,6,-1
 1386 918 l 1,7,-1
 1386 865 l 1,8,-1
 1270 865 l 1,9,-1
 1270 749 l 2,10,11
 1270 687 1270 687 1335 687 c 2,12,-1
 1350 687 l 1,13,-1
 1350 660 l 1,14,-1
 1075 660 l 1,15,-1
 1075 687 l 1,16,-1
 1097 687 l 2,17,18
 1172 687 1172 687 1172 749 c 2,19,-1
 1172 865 l 1,20,-1
 861 865 l 1,21,-1
 861 888 l 1,22,-1
 1073 1162 l 2,23,24
 1201 1327 1201 1327 1240 1389 c 1,4,-1
1172 1210 m 1,25,26
 1094 1133 1094 1133 1036 1059 c 2,27,-1
 926 918 l 1,28,-1
 1172 918 l 1,29,-1
 1172 1210 l 1,25,26
EndSplineSet
EndChar
StartChar: Acircumflex
Encoding: 194 194 57
Width: 2048
Flags: W
Fore
1827 0 m 1,0,-1
 1827 2047 l 1,1,-1
 1911 2047 l 1,2,-1
 1911 0 l 1,3,-1
 1827 0 l 1,0,-1
912 1311 m 1,4,5
 1048 1399 1048 1399 1162 1399 c 0,6,7
 1225 1399 1225 1399 1268 1372 c 0,8,9
 1321 1340 1321 1340 1321 1281 c 0,10,11
 1321 1164 1321 1164 1072 1069 c 1,12,-1
 1132 1071 l 2,13,14
 1365 1071 1365 1071 1365 929 c 0,15,16
 1365 817 1365 817 1262 733 c 0,17,18
 1165 653 1165 653 1051 653 c 0,19,20
 978 653 978 653 885 679 c 1,21,-1
 885 875 l 1,22,-1
 921 875 l 1,23,24
 928 796 928 796 975 744 c 0,25,26
 1025 688 1025 688 1102 688 c 0,27,28
 1174 688 1174 688 1218 740 c 0,29,30
 1259 788 1259 788 1259 863 c 0,31,32
 1259 1044 1259 1044 1070 1044 c 2,33,-1
 974 1044 l 1,34,-1
 974 1071 l 1,35,36
 1056 1077 1056 1077 1131 1135 c 0,37,38
 1214 1199 1214 1199 1214 1278 c 0,39,40
 1214 1364 1214 1364 1119 1364 c 0,41,42
 1041 1364 1041 1364 992 1284 c 0,43,44
 950 1216 950 1216 947 1133 c 1,45,-1
 912 1133 l 1,46,-1
 912 1311 l 1,4,5
EndSplineSet
EndChar
StartChar: Ecircumflex
Encoding: 202 202 58
Width: 2048
Flags: W
Fore
0 1911 m 1,0,-1
 2048 1911 l 1,1,-1
 2048 1827 l 1,2,-1
 0 1827 l 1,3,-1
 0 1911 l 1,0,-1
1242 968 m 1,4,5
 1120 817 1120 817 1006 817 c 0,6,7
 913 817 913 817 853 890 c 0,8,9
 798 959 798 959 798 1053 c 0,10,11
 798 1169 798 1169 874 1257 c 0,12,13
 954 1350 954 1350 1068 1350 c 0,14,15
 1135 1350 1135 1350 1216 1315 c 1,16,-1
 1216 1164 l 1,17,-1
 1180 1164 l 1,18,19
 1178 1227 1178 1227 1143 1269 c 0,20,21
 1105 1315 1105 1315 1044 1315 c 0,22,23
 967 1315 967 1315 923 1244 c 0,24,25
 887 1183 887 1183 887 1102 c 0,26,27
 887 1019 887 1019 927 958 c 0,28,29
 974 888 974 888 1054 888 c 0,30,31
 1137 888 1137 888 1242 1004 c 1,32,-1
 1242 968 l 1,4,5
EndSplineSet
EndChar
StartChar: Aacute
Encoding: 193 193 59
Width: 2048
Flags: W
Fore
1827 0 m 1,0,-1
 1827 2047 l 1,1,-1
 1911 2047 l 1,2,-1
 1911 0 l 1,3,-1
 1827 0 l 1,0,-1
921 1312 m 1,4,5
 1054 1401 1054 1401 1167 1401 c 0,6,7
 1237 1401 1237 1401 1284 1367 c 0,8,9
 1338 1329 1338 1329 1338 1262 c 0,10,11
 1338 1191 1338 1191 1278 1113 c 0,12,13
 1252 1079 1252 1079 1166 994 c 2,14,-1
 932 761 l 1,15,-1
 1249 761 l 2,16,17
 1331 761 1331 761 1347 841 c 1,18,-1
 1365 841 l 1,19,-1
 1321 646 l 1,20,-1
 1303 646 l 1,21,-1
 1303 653 l 2,22,23
 1303 672 1303 672 1283 672 c 2,24,-1
 850 672 l 1,25,-1
 850 698 l 1,26,-1
 1011 893 l 2,27,28
 1177 1093 1177 1093 1211 1178 c 0,29,30
 1232 1228 1232 1228 1232 1263 c 0,31,32
 1232 1306 1232 1306 1204 1336 c 128,-1,33
 1176 1366 1176 1366 1133 1366 c 0,34,35
 1058 1366 1058 1366 1006 1284 c 0,36,37
 962 1216 962 1216 956 1135 c 1,38,-1
 921 1135 l 1,39,-1
 921 1312 l 1,4,5
EndSplineSet
EndChar
StartChar: Edieresis
Encoding: 203 203 60
Width: 2048
Flags: W
Fore
0 1911 m 1,0,-1
 2048 1911 l 1,1,-1
 2048 1827 l 1,2,-1
 0 1827 l 1,3,-1
 0 1911 l 1,0,-1
1058 1555 m 1,4,-1
 1254 1626 l 1,5,-1
 1254 1599 l 1,6,7
 1227 1589 1227 1589 1227 1561 c 2,8,-1
 1227 932 l 2,9,10
 1227 885 1227 885 1265 885 c 0,11,12
 1280 885 1280 885 1307 897 c 1,13,-1
 1307 870 l 1,14,-1
 1164 817 l 1,15,-1
 1138 817 l 1,16,-1
 1138 990 l 1,17,18
 1067 903 1067 903 1039 878 c 0,19,20
 972 817 972 817 909 817 c 0,21,22
 832 817 832 817 786 888 c 0,23,24
 747 949 747 949 747 1030 c 0,25,26
 747 1143 747 1143 828 1244 c 0,27,28
 914 1350 914 1350 1024 1350 c 0,29,30
 1059 1350 1059 1350 1108 1326 c 0,31,32
 1123 1319 1123 1319 1138 1310 c 1,33,-1
 1138 1486 l 2,34,35
 1138 1540 1138 1540 1104 1540 c 0,36,37
 1085 1540 1085 1540 1058 1528 c 1,38,-1
 1058 1555 l 1,4,-1
1140 1236 m 1,39,40
 1061 1297 1061 1297 992 1297 c 0,41,42
 916 1297 916 1297 872 1216 c 0,43,44
 836 1150 836 1150 836 1067 c 0,45,46
 836 1001 836 1001 865 950 c 0,47,48
 901 888 901 888 962 888 c 0,49,50
 1042 888 1042 888 1099 993 c 0,51,52
 1147 1083 1147 1083 1147 1172 c 0,53,54
 1147 1208 1147 1208 1140 1236 c 1,39,40
EndSplineSet
EndChar
StartChar: Egrave
Encoding: 200 200 61
Width: 2048
Flags: W
Fore
0 1911 m 1,0,-1
 2048 1911 l 1,1,-1
 2048 1827 l 1,2,-1
 0 1827 l 1,3,-1
 0 1911 l 1,0,-1
831 1279 m 1,4,5
 958 1350 958 1350 1070 1350 c 0,6,7
 1169 1350 1169 1350 1169 1249 c 2,8,-1
 1169 904 l 2,9,10
 1169 879 1169 879 1190 879 c 0,11,12
 1212 879 1212 879 1266 924 c 1,13,-1
 1266 888 l 1,14,15
 1182 817 1182 817 1127 817 c 0,16,17
 1080 817 1080 817 1080 869 c 2,18,-1
 1080 949 l 1,19,20
 948 817 948 817 876 817 c 0,21,22
 832 817 832 817 804.5 849.5 c 128,-1,23
 777 882 777 882 777 926 c 0,24,25
 777 1044 777 1044 1080 1181 c 1,26,-1
 1080 1246 l 2,27,28
 1080 1315 1080 1315 1012 1315 c 0,29,30
 952 1315 952 1315 909 1258 c 0,31,32
 872 1209 872 1209 866 1146 c 1,33,-1
 831 1146 l 1,34,-1
 831 1279 l 1,4,5
1089 1128 m 1,35,36
 1012 1112 1012 1112 949 1074 c 0,37,38
 866 1023 866 1023 866 959 c 0,39,40
 866 888 866 888 941 888 c 0,41,42
 1018 888 1018 888 1057 975 c 0,43,44
 1087 1040 1087 1040 1089 1128 c 1,35,36
EndSplineSet
EndChar
StartChar: Iacute
Encoding: 205 205 62
Width: 2048
Flags: W
Fore
0 1911 m 1,0,-1
 2048 1911 l 1,1,-1
 2048 1827 l 1,2,-1
 0 1827 l 1,3,-1
 0 1911 l 1,0,-1
846 1279 m 1,4,-1
 870 1279 l 2,5,6
 913 1279 913 1279 935 1354 c 0,7,8
 997 1573 997 1573 1145 1573 c 0,9,10
 1165 1573 1165 1573 1201 1555 c 1,11,-1
 1201 1413 l 1,12,-1
 1166 1413 l 1,13,14
 1163 1519 1163 1519 1094 1519 c 0,15,16
 1055 1519 1055 1519 1030.5 1480 c 128,-1,17
 1006 1441 1006 1441 1006 1382 c 0,18,19
 1006 1279 1006 1279 1102 1279 c 2,20,-1
 1148 1279 l 1,21,-1
 1148 1253 l 1,22,-1
 1015 1253 l 1,23,-1
 1015 933 l 2,24,25
 1015 844 1015 844 1095 844 c 1,26,-1
 1095 817 l 1,27,-1
 846 817 l 1,28,-1
 846 844 l 1,29,30
 926 844 926 844 926 933 c 2,31,-1
 926 1253 l 1,32,-1
 846 1253 l 1,33,-1
 846 1279 l 1,4,-1
EndSplineSet
EndChar
StartChar: Icircumflex
Encoding: 206 206 63
Width: 2048
Flags: W
Fore
0 1911 m 1,0,-1
 2048 1911 l 1,1,-1
 2048 1827 l 1,2,-1
 0 1827 l 1,3,-1
 0 1911 l 1,0,-1
1056 1042 m 1,4,5
 997 1033 997 1033 972 1033 c 0,6,7
 907 1033 907 1033 860 1063 c 0,8,9
 807 1098 807 1098 807 1160 c 0,10,11
 807 1242 807 1242 890 1300 c 0,12,13
 966 1353 966 1353 1051 1353 c 0,14,15
 1087 1353 1087 1353 1154 1323 c 0,16,17
 1209 1298 1209 1298 1223 1297 c 2,18,19
 1240 1290 1240 1290 1273 1290 c 2,20,-1
 1313 1290 l 1,21,-1
 1313 1264 l 1,22,-1
 1202 1264 l 1,23,24
 1216 1237 1216 1237 1216 1214 c 0,25,26
 1216 1146 1216 1146 1112 1062 c 0,27,28
 1047 1008 1047 1008 1047 986 c 0,29,30
 1047 952 1047 952 1151 917 c 0,31,32
 1313 862 1313 862 1313 785 c 0,33,34
 1313 686 1313 686 1182 626 c 0,35,36
 1077 580 1077 580 965 580 c 0,37,38
 885 580 885 580 822 605 c 0,39,40
 736 639 736 639 736 708 c 0,41,42
 736 825 736 825 998 880 c 1,43,44
 958 912 958 912 958 945 c 0,45,46
 958 982 958 982 1056 1042 c 1,4,5
1015 1317 m 0,47,48
 961 1317 961 1317 928.5 1281.5 c 128,-1,49
 896 1246 896 1246 896 1192 c 0,50,51
 896 1139 896 1139 926 1105 c 0,52,53
 958 1068 958 1068 1010 1068 c 0,54,55
 1061 1068 1061 1068 1094 1104.5 c 128,-1,56
 1127 1141 1127 1141 1127 1193 c 0,57,58
 1127 1244 1127 1244 1096 1280.5 c 128,-1,59
 1065 1317 1065 1317 1015 1317 c 0,47,48
1032 866 m 1,60,61
 824 807 824 807 824 718 c 0,62,63
 824 663 824 663 890 636 c 0,64,65
 940 615 940 615 1003 615 c 0,66,67
 1080 615 1080 615 1143 645 c 0,68,69
 1225 683 1225 683 1225 752 c 0,70,71
 1225 782 1225 782 1200 799 c 0,72,73
 1177 813 1177 813 1096 843 c 2,74,-1
 1032 866 l 1,60,61
EndSplineSet
EndChar
StartChar: Idieresis
Encoding: 207 207 64
Width: 2048
Flags: W
Fore
0 1911 m 1,0,-1
 2048 1911 l 1,1,-1
 2048 1827 l 1,2,-1
 0 1827 l 1,3,-1
 0 1911 l 1,0,-1
948 1608 m 1,4,-1
 948 1582 l 1,5,6
 921 1573 921 1573 921 1541 c 2,7,-1
 921 1152 l 1,8,9
 1049 1333 1049 1333 1152 1333 c 0,10,11
 1241 1333 1241 1333 1241 1214 c 2,12,-1
 1241 933 l 2,13,14
 1241 844 1241 844 1321 844 c 1,15,-1
 1321 817 l 1,16,-1
 1126 817 l 1,17,-1
 1126 843 l 1,18,19
 1152 843 1152 843 1152 873 c 2,20,-1
 1152 1199 l 2,21,22
 1152 1270 1152 1270 1095 1270 c 0,23,24
 1013 1270 1013 1270 957 1147 c 0,25,26
 912 1046 912 1046 912 953 c 0,27,28
 912 836 912 836 986 842 c 2,29,-1
 1010 844 l 1,30,-1
 1010 817 l 1,31,-1
 752 817 l 1,32,-1
 752 844 l 1,33,34
 832 844 832 844 832 933 c 2,35,-1
 832 1488 l 2,36,37
 832 1521 832 1521 793 1521 c 0,38,39
 772 1521 772 1521 743 1510 c 1,40,-1
 743 1537 l 1,41,-1
 948 1608 l 1,4,-1
EndSplineSet
EndChar
StartChar: Igrave
Encoding: 204 204 65
Width: 2048
Flags: W
Fore
0 1911 m 1,0,-1
 2048 1911 l 1,1,-1
 2048 1827 l 1,2,-1
 0 1827 l 1,3,-1
 0 1911 l 1,0,-1
1245 968 m 1,4,5
 1123 817 1123 817 1007 817 c 0,6,7
 918 817 918 817 857 894 c 0,8,9
 801 966 801 966 801 1057 c 0,10,11
 801 1164 801 1164 867 1253 c 0,12,13
 940 1350 940 1350 1044 1350 c 0,14,15
 1123 1350 1123 1350 1172 1291 c 0,16,17
 1216 1237 1216 1237 1219 1155 c 1,18,-1
 890 1155 l 1,19,20
 890 1148 890 1148 890 1123 c 0,21,22
 890 1035 890 1035 930 967 c 0,23,24
 978 888 978 888 1061 888 c 0,25,26
 1151 888 1151 888 1245 1004 c 1,27,-1
 1245 968 l 1,4,5
1130 1181 m 1,28,29
 1118 1315 1118 1315 1018 1315 c 0,30,31
 969 1315 969 1315 933 1271 c 0,32,33
 902 1233 902 1233 895 1181 c 1,34,-1
 1130 1181 l 1,28,29
EndSplineSet
EndChar
StartChar: A
Encoding: 65 65 66
Width: 2048
Flags: W
TeX: 0 0 0 0
Fore
1826 0 m 1,0,-1
 1622 0 l 1,1,2
 1622 177 1622 177 1746.5 301.5 c 128,-1,3
 1871 426 1871 426 2048 426 c 1,4,-1
 2048 222 l 1,5,6
 1956 222 1956 222 1891 157 c 128,-1,7
 1826 92 1826 92 1826 0 c 1,0,-1
1962 0 m 1,8,9
 1962 86 1962 86 2048 86 c 1,10,-1
 2048 0 l 1,11,-1
 1962 0 l 1,8,9
EndSplineSet
EndChar
StartChar: s
Encoding: 115 115 67
Width: 2048
Flags: W
TeX: 0 0 0 0
Fore
137 0 m 1,0,1
 137 57 137 57 97 97 c 128,-1,2
 57 137 57 137 0 137 c 1,3,-1
 0 221 l 1,4,5
 92 221 92 221 157 156.5 c 128,-1,6
 222 92 222 92 222 0 c 1,7,-1
 137 0 l 1,0,1
EndSplineSet
EndChar
StartChar: D
Encoding: 68 68 68
Width: 2048
Flags: W
TeX: 0 0 0 0
Fore
1826 2048 m 1,0,1
 1826 1955 1826 1955 1890.5 1890.5 c 128,-1,2
 1955 1826 1955 1826 2048 1826 c 1,3,-1
 2048 1621 l 1,4,5
 1870 1621 1870 1621 1746 1745.5 c 128,-1,6
 1622 1870 1622 1870 1622 2048 c 1,7,-1
 1826 2048 l 1,0,1
1962 2048 m 1,8,-1
 2048 2048 l 1,9,-1
 2048 1962 l 1,10,11
 1962 1962 1962 1962 1962 2048 c 1,8,-1
EndSplineSet
EndChar
StartChar: F
Encoding: 70 70 69
Width: 2048
Flags: W
TeX: 0 0 0 0
Fore
223 2048 m 1,0,-1
 427 2048 l 1,1,2
 427 1871 427 1871 302 1746 c 128,-1,3
 177 1621 177 1621 0 1621 c 1,4,-1
 0 1826 l 1,5,6
 92 1826 92 1826 157.5 1891 c 128,-1,7
 223 1956 223 1956 223 2048 c 1,0,-1
87 2048 m 1,8,9
 87 1962 87 1962 0 1962 c 1,10,-1
 0 2048 l 1,11,-1
 87 2048 l 1,8,9
EndSplineSet
EndChar
StartChar: S
Encoding: 83 83 70
Width: 2048
Flags: W
TeX: 0 0 0 0
Fore
223 0 m 1,0,1
 223 92 223 92 157.5 157 c 128,-1,2
 92 222 92 222 0 222 c 1,3,-1
 0 426 l 1,4,5
 177 426 177 426 302 301.5 c 128,-1,6
 427 177 427 177 427 0 c 1,7,-1
 223 0 l 1,0,1
87 0 m 1,8,-1
 0 0 l 1,9,-1
 0 86 l 1,10,11
 86 86 86 86 87 0 c 1,8,-1
EndSplineSet
EndChar
StartChar: a
Encoding: 97 97 71
Width: 2048
Flags: W
TeX: 0 0 0 0
Fore
1911 0 m 1,0,-1
 1827 0 l 1,1,2
 1827 92 1827 92 1891.5 156.5 c 128,-1,3
 1956 221 1956 221 2048 221 c 1,4,-1
 2048 137 l 1,5,6
 1991 137 1991 137 1951 97 c 128,-1,7
 1911 57 1911 57 1911 0 c 1,0,-1
EndSplineSet
EndChar
StartChar: d
Encoding: 100 100 72
Width: 2048
Flags: W
TeX: 0 0 0 0
Fore
1911 2048 m 1,0,1
 1911 1991 1911 1991 1951 1950.5 c 128,-1,2
 1991 1910 1991 1910 2048 1910 c 1,3,-1
 2048 1827 l 1,4,5
 1956 1827 1956 1827 1891.5 1891.5 c 128,-1,6
 1827 1956 1827 1956 1827 2048 c 1,7,-1
 1911 2048 l 1,0,1
EndSplineSet
EndChar
StartChar: f
Encoding: 102 102 73
Width: 2048
Flags: W
TeX: 0 0 0 0
Fore
137 2048 m 1,0,-1
 222 2048 l 1,1,2
 222 1956 222 1956 157 1891.5 c 128,-1,3
 92 1827 92 1827 0 1827 c 1,4,-1
 0 1910 l 1,5,6
 57 1910 57 1910 97 1950.5 c 128,-1,7
 137 1991 137 1991 137 2048 c 1,0,-1
EndSplineSet
EndChar
StartChar: exclam
Encoding: 33 33 74
Width: 2048
Flags: HW
TeX: 0 0 0 0
Fore
1962 86 m 1,0,-1
 2048 86 l 1,1,-1
 2048 0 l 1,2,-1
 1962 0 l 1,3,-1
 1962 86 l 1,0,-1
1622 426 m 1,4,-1
 2048 426 l 1,5,-1
 2048 222 l 1,6,-1
 1826 222 l 1,7,-1
 1826 0 l 1,8,-1
 1622 0 l 1,9,-1
 1622 426 l 1,4,-1
EndSplineSet
EndChar
StartChar: numbersign
Encoding: 35 35 75
Width: 2048
Flags: HW
TeX: 0 0 0 0
Fore
87 86 m 1,0,-1
 87 0 l 1,1,-1
 0 0 l 1,2,-1
 0 86 l 1,3,-1
 87 86 l 1,0,-1
427 426 m 1,4,-1
 427 0 l 1,5,-1
 223 0 l 1,6,-1
 223 222 l 1,7,-1
 0 222 l 1,8,-1
 0 426 l 1,9,-1
 427 426 l 1,4,-1
EndSplineSet
EndChar
StartChar: parenright
Encoding: 41 41 76
Width: 2048
Flags: HW
TeX: 0 0 0 0
Fore
87 1962 m 1,0,-1
 0 1962 l 1,1,-1
 0 2048 l 1,2,-1
 87 2048 l 1,3,-1
 87 1962 l 1,0,-1
427 1621 m 1,4,-1
 0 1621 l 1,5,-1
 0 1826 l 1,6,-1
 223 1826 l 1,7,-1
 223 2048 l 1,8,-1
 427 2048 l 1,9,-1
 427 1621 l 1,4,-1
EndSplineSet
EndChar
StartChar: slash
Encoding: 47 47 77
Width: 2048
Flags: HW
TeX: 0 0 0 0
Fore
1962 1962 m 1,0,-1
 1962 2048 l 1,1,-1
 2048 2048 l 1,2,-1
 2048 1962 l 1,3,-1
 1962 1962 l 1,0,-1
1622 1621 m 1,4,-1
 1622 2048 l 1,5,-1
 1826 2048 l 1,6,-1
 1826 1826 l 1,7,-1
 2048 1826 l 1,8,-1
 2048 1621 l 1,9,-1
 1622 1621 l 1,4,-1
EndSplineSet
EndChar
StartChar: one
Encoding: 49 49 78
Width: 2048
Flags: HW
TeX: 0 0 0 0
Fore
1911 137 m 1,0,-1
 1911 0 l 1,1,-1
 1827 0 l 1,2,-1
 1827 221 l 1,3,-1
 2048 221 l 1,4,-1
 2048 137 l 1,5,-1
 1911 137 l 1,0,-1
EndSplineSet
EndChar
StartChar: three
Encoding: 51 51 79
Width: 2048
Flags: HW
TeX: 0 0 0 0
Fore
137 137 m 1,0,-1
 0 137 l 1,1,-1
 0 221 l 1,2,-1
 222 221 l 1,3,-1
 222 0 l 1,4,-1
 137 0 l 1,5,-1
 137 137 l 1,0,-1
EndSplineSet
EndChar
StartChar: seven
Encoding: 55 55 80
Width: 2048
Flags: HW
TeX: 0 0 0 0
Fore
1911 1910 m 1,0,-1
 2048 1910 l 1,1,-1
 2048 1827 l 1,2,-1
 1827 1827 l 1,3,-1
 1827 2048 l 1,4,-1
 1911 2048 l 1,5,-1
 1911 1910 l 1,0,-1
EndSplineSet
EndChar
StartChar: nine
Encoding: 57 57 81
Width: 2048
Flags: HW
TeX: 0 0 0 0
Fore
137 1910 m 1,0,-1
 137 2048 l 1,1,-1
 222 2048 l 1,2,-1
 222 1827 l 1,3,-1
 0 1827 l 1,4,-1
 0 1910 l 1,5,-1
 137 1910 l 1,0,-1
EndSplineSet
EndChar
